<svg width="177" height="200" viewBox="0 0 177 200" fill="none" xmlns="http://www.w3.org/2000/svg">
<path d="M40.005 43.3333H113.338C114.222 43.3333 115.07 42.9821 115.695 42.357C116.321 41.7319 116.672 40.884 116.672 40C116.672 39.1159 116.321 38.2681 115.695 37.643C115.07 37.0178 114.222 36.6667 113.338 36.6667H40.005C39.121 36.6667 38.2731 37.0178 37.648 37.643C37.0229 38.2681 36.6717 39.1159 36.6717 40C36.6717 40.884 37.0229 41.7319 37.648 42.357C38.2731 42.9821 39.121 43.3333 40.005 43.3333Z" fill="#013475"/>
<path d="M40.005 63.3333H113.338C114.222 63.3333 115.07 62.9821 115.695 62.357C116.321 61.7319 116.672 60.884 116.672 60C116.672 59.1159 116.321 58.2681 115.695 57.643C115.07 57.0178 114.222 56.6666 113.338 56.6666H40.005C39.121 56.6666 38.2731 57.0178 37.648 57.643C37.0229 58.2681 36.6717 59.1159 36.6717 60C36.6717 60.884 37.0229 61.7319 37.648 62.357C38.2731 62.9821 39.121 63.3333 40.005 63.3333Z" fill="#013475"/>
<path d="M40.005 83.3333H113.338C114.222 83.3333 115.07 82.9821 115.695 82.357C116.321 81.7319 116.672 80.884 116.672 80C116.672 79.1159 116.321 78.2681 115.695 77.643C115.07 77.0178 114.222 76.6666 113.338 76.6666H40.005C39.121 76.6666 38.2731 77.0178 37.648 77.643C37.0229 78.2681 36.6717 79.1159 36.6717 80C36.6717 80.884 37.0229 81.7319 37.648 82.357C38.2731 82.9821 39.121 83.3333 40.005 83.3333Z" fill="#013475"/>
<path d="M40.005 103.333H113.338C114.222 103.333 115.07 102.982 115.695 102.357C116.321 101.732 116.672 100.884 116.672 100C116.672 99.1159 116.321 98.2681 115.695 97.6429C115.07 97.0178 114.222 96.6666 113.338 96.6666H40.005C39.121 96.6666 38.2731 97.0178 37.648 97.6429C37.0229 98.2681 36.6717 99.1159 36.6717 100C36.6717 100.884 37.0229 101.732 37.648 102.357C38.2731 102.982 39.121 103.333 40.005 103.333Z" fill="#013475"/>
<path d="M40.005 123.333H66.6717C67.5558 123.333 68.4036 122.982 69.0287 122.357C69.6539 121.732 70.005 120.884 70.005 120C70.005 119.116 69.6539 118.268 69.0287 117.643C68.4036 117.018 67.5558 116.667 66.6717 116.667H40.005C39.121 116.667 38.2731 117.018 37.648 117.643C37.0229 118.268 36.6717 119.116 36.6717 120C36.6717 120.884 37.0229 121.732 37.648 122.357C38.2731 122.982 39.121 123.333 40.005 123.333Z" fill="#013475"/>
<path d="M171.727 78.7562C169.438 77.4179 166.712 77.0423 164.146 77.7119C161.581 78.3814 159.386 80.0414 158.043 82.3275L150.005 96.0416V13.3333C150.005 12.4493 149.654 11.6014 149.029 10.9763C148.404 10.3512 147.556 10 146.672 10H121.386C121.386 10 111.37 -0.2 110.969 0.143333C110.657 0.0484259 110.332 0.00012882 110.005 0H13.3384C12.4543 0 11.6065 0.351189 10.9814 0.97631C10.3562 1.60143 10.0051 2.44928 10.0051 3.33333V13.7554C7.14182 14.4935 4.60515 16.1624 2.79401 18.4996C0.982863 20.8369 0 23.7098 0 26.6667C0 29.6235 0.982863 32.4965 2.79401 34.8337C4.60515 37.1709 7.14182 38.8398 10.0051 39.5779V47.0887C7.14182 47.8268 4.60515 49.4957 2.79401 51.833C0.982863 54.1702 0 57.0431 0 60C0 62.9568 0.982863 65.8298 2.79401 68.167C4.60515 70.5042 7.14182 72.1731 10.0051 72.9112V80.4221C7.14182 81.1601 4.60515 82.829 2.79401 85.1663C0.982863 87.5035 0 90.3765 0 93.3333C0 96.2901 0.982863 99.1631 2.79401 101.5C4.60515 103.838 7.14182 105.506 10.0051 106.245V110.422C7.14182 111.16 4.60515 112.829 2.79401 115.166C0.982863 117.504 0 120.376 0 123.333C0 126.29 0.982863 129.163 2.79401 131.5C4.60515 133.838 7.14182 135.506 10.0051 136.245V156.667C10.0051 157.551 10.3562 158.399 10.9814 159.024C11.6065 159.649 12.4543 160 13.3384 160H16.6717V170C16.6717 170.884 17.0229 171.732 17.648 172.357C18.2732 172.982 19.121 173.333 20.0051 173.333H104.71L102.426 177.231C102.221 177.58 102.083 177.965 102.017 178.365C102.014 178.384 102.008 178.4 102.005 178.42L101.997 178.474V178.487L99.3305 196.17C99.2312 196.829 99.3316 197.502 99.6187 198.103C99.9058 198.704 100.366 199.206 100.941 199.543C101.516 199.879 102.179 200.036 102.843 199.993C103.508 199.95 104.145 199.708 104.671 199.3L118.849 188.292C119.758 187.586 120.201 187.155 120.131 186.575L127.891 173.333H146.672C147.556 173.333 148.404 172.982 149.029 172.357C149.654 171.732 150.005 170.884 150.005 170V135.599L175.297 92.4396C176.635 90.1509 177.01 87.4249 176.341 84.8597C175.672 82.2945 174.012 80.0995 171.727 78.7562ZM165.829 84.1583C166.467 83.9918 167.14 84.0183 167.763 84.2342C168.385 84.4502 168.93 84.8461 169.328 85.3717C169.726 85.8974 169.959 86.5292 169.998 87.1874C170.037 87.8455 169.88 88.5004 169.546 89.0691L167.861 91.9441L162.111 88.5733L163.797 85.6983C164.017 85.32 164.31 84.9891 164.658 84.7248C165.007 84.4605 165.405 84.2679 165.829 84.1583ZM115.614 181.097L109.864 177.726L153.683 102.954L159.433 106.325L115.614 181.097ZM113.338 11.3808L125.291 23.3333H113.338V11.3808ZM157.053 97.2016L158.738 94.3266L164.49 97.6975L162.805 100.572L157.053 97.2016ZM143.338 16.6667V106.667C143.339 106.883 143.36 107.099 143.402 107.311L136.672 118.795V26.6667C136.672 26.2296 136.586 25.7967 136.419 25.3929C136.252 24.989 136.007 24.622 135.698 24.3129L135.695 24.3096L128.053 16.6667H143.338ZM16.6717 6.66666H106.672V26.6667C106.672 27.5507 107.023 28.3986 107.648 29.0237C108.273 29.6488 109.121 30 110.005 30H130.005V130.171L116.431 153.333H16.6717V136.245C18.9794 135.651 21.0854 134.448 22.7703 132.763C24.4552 131.078 25.6573 128.972 26.2513 126.664C26.4717 125.808 26.3428 124.899 25.893 124.137C25.4432 123.376 24.7094 122.824 23.853 122.604C23.4289 122.495 22.9875 122.471 22.554 122.532C22.1204 122.593 21.7033 122.74 21.3263 122.962C20.5649 123.412 20.0133 124.146 19.793 125.002C19.5721 125.86 19.1822 126.664 18.6462 127.368C18.1102 128.073 17.4389 128.663 16.6717 129.104V106.245C18.9794 105.651 21.0854 104.448 22.7703 102.763C24.4552 101.078 25.6573 98.9719 26.2513 96.6641C26.4717 95.8077 26.3428 94.8988 25.893 94.1374C25.4432 93.376 24.7094 92.8245 23.853 92.6041C22.9965 92.3838 22.0877 92.5127 21.3263 92.9625C20.5649 93.4122 20.0133 94.146 19.793 95.0025C19.5721 95.8596 19.1822 96.6639 18.6462 97.3683C18.1102 98.0726 17.4389 98.6628 16.6717 99.1041V72.9116C18.9794 72.3174 21.0854 71.115 22.7703 69.4299C24.4552 67.7448 25.6573 65.6386 26.2513 63.3308C26.4717 62.4744 26.3428 61.5655 25.893 60.8041C25.4432 60.0427 24.7094 59.4912 23.853 59.2708C22.9965 59.0505 22.0877 59.1794 21.3263 59.6291C20.5649 60.0789 20.0133 60.8127 19.793 61.6691C19.5721 62.5262 19.1822 63.3306 18.6462 64.0349C18.1102 64.7393 17.4389 65.3295 16.6717 65.7708V39.5783C18.9794 38.984 21.0854 37.7817 22.7703 36.0966C24.4552 34.4114 25.6573 32.3052 26.2513 29.9975C26.4717 29.1411 26.3428 28.2322 25.893 27.4708C25.4432 26.7094 24.7094 26.1578 23.853 25.9375C22.9965 25.7171 22.0877 25.846 21.3263 26.2958C20.5649 26.7456 20.0133 27.4794 19.793 28.3358C19.5721 29.1929 19.1822 29.9973 18.6462 30.7016C18.1102 31.406 17.4389 31.9961 16.6717 32.4375V6.66666ZM6.67173 26.6667C6.67329 25.4979 6.98207 24.3501 7.56712 23.3384C8.15216 22.3266 8.9929 21.4864 10.0051 20.9021V32.4312C8.9929 31.8469 8.15216 31.0067 7.56712 29.9949C6.98207 28.9832 6.67329 27.8354 6.67173 26.6667ZM6.67173 60C6.67329 58.8312 6.98207 57.6835 7.56712 56.6717C8.15216 55.6599 8.9929 54.8198 10.0051 54.2354V65.7646C8.9929 65.1802 8.15216 64.34 7.56712 63.3283C6.98207 62.3165 6.67329 61.1687 6.67173 60ZM6.67173 93.3333C6.67329 92.1646 6.98207 91.0168 7.56712 90.005C8.15216 88.9933 8.9929 88.1531 10.0051 87.5687V99.0979C8.9929 98.5135 8.15216 97.6733 7.56712 96.6616C6.98207 95.6498 6.67329 94.502 6.67173 93.3333ZM6.67173 123.333C6.67329 122.165 6.98207 121.017 7.56712 120.005C8.15216 118.993 8.9929 118.153 10.0051 117.569V129.098C8.9929 128.514 8.15216 127.673 7.56712 126.662C6.98207 125.65 6.67329 124.502 6.67173 123.333ZM23.3384 166.667V160H112.524L108.617 166.667H23.3384ZM107.864 184.282L110.872 186.045L107.163 188.923L107.864 184.282ZM143.338 166.667H131.797L143.338 146.975V166.667Z" fill="#013475"/>
</svg>
