<svg width="224" height="200" viewBox="0 0 224 200" fill="none" xmlns="http://www.w3.org/2000/svg">
<path d="M220.967 19.9758H190.401V13.3075C190.294 5.93054 184.286 0 176.909 0C169.532 0 163.524 5.93054 163.417 13.3075V19.9758H125.31V13.3075C125.213 5.93054 119.195 0 111.818 0C104.441 0 98.433 5.93054 98.3261 13.3075V19.9758H60.2188V13.3075C60.112 5.93054 54.1039 0 46.727 0C39.35 0 33.3419 5.93054 33.2351 13.3075V19.9758H2.66925C1.96068 19.9758 1.28125 20.2573 0.786224 20.7523C0.281506 21.257 0 21.9364 0 22.645V197.331C0 198.806 1.2036 200 2.6692 200H220.966C221.675 200 222.354 199.719 222.849 199.214C223.354 198.719 223.635 198.039 223.635 197.321V22.6353V22.645C223.635 21.1696 222.432 19.9758 220.967 19.9758ZM168.765 13.3075C168.775 8.81343 172.415 5.17366 176.909 5.16397C181.403 5.17367 185.043 8.81368 185.053 13.3075V31.9921V31.9824C185.053 36.4862 181.403 40.126 176.909 40.126C172.415 40.126 168.765 36.4862 168.765 31.9824V13.3075ZM103.666 13.3075C103.666 8.80374 107.315 5.16397 111.819 5.16397C116.313 5.17367 119.953 8.81368 119.962 13.3075V31.9921V31.9824C119.962 36.4862 116.313 40.126 111.819 40.126C107.325 40.126 103.675 36.4862 103.675 31.9824L103.666 13.3075ZM38.5755 13.3075C38.5755 8.81343 42.2153 5.16397 46.719 5.16397C51.2131 5.16397 54.8625 8.81368 54.8625 13.3075V31.9921V31.9824C54.8625 36.4862 51.2128 40.126 46.719 40.126C42.2153 40.126 38.5755 36.4862 38.5755 31.9824V13.3075ZM33.2274 25.3239V31.9921V31.9824C33.1789 35.5931 34.5766 39.0779 37.1099 41.6402C39.6432 44.2125 43.1086 45.6587 46.7193 45.6587C50.33 45.6587 53.7856 44.2124 56.3189 41.6402C58.8522 39.0779 60.2499 35.5931 60.2014 31.9824V25.3238H98.3286V31.9921V31.9824C98.2801 35.5931 99.6875 39.0778 102.221 41.6402C104.754 44.2125 108.21 45.6587 111.82 45.6587C115.431 45.6587 118.887 44.2124 121.43 41.6402C123.963 39.0778 125.361 35.5931 125.312 31.9824V25.3238H163.42V31.9921V31.9824C163.371 35.5931 164.769 39.0778 167.312 41.6402C169.845 44.2125 173.301 45.6586 176.911 45.6586C180.522 45.6586 183.978 44.2124 186.511 41.6402C189.054 39.0778 190.452 35.5931 190.403 31.9824V25.3238H218.291V56.5581H5.35336V25.3238L33.2274 25.3239ZM5.35013 194.652V61.908H218.297V194.652H5.35013ZM28.1795 122.339H66.6943H66.6846C67.3931 122.339 68.0726 122.057 68.5773 121.562C69.082 121.058 69.3635 120.378 69.3635 119.67V81.1549C69.3635 79.6795 68.16 78.4857 66.6846 78.4857H28.1698C26.6945 78.4857 25.5006 79.6796 25.5006 81.1549V119.67C25.5006 120.378 25.7821 121.058 26.2771 121.562C26.7819 122.067 27.4613 122.349 28.1699 122.349L28.1795 122.339ZM30.8487 83.8241H64.0062V117.002H30.8387L30.8487 83.8241ZM131.077 78.476H92.5618V78.4857C91.0865 78.4857 89.8829 79.6796 89.8829 81.1549V119.67C89.8829 120.378 90.1644 121.058 90.6691 121.562C91.1739 122.058 91.8533 122.339 92.5619 122.339H131.077C131.785 122.339 132.465 122.058 132.969 121.562C133.464 121.058 133.746 120.378 133.746 119.67V81.1549C133.746 79.6796 132.542 78.4954 131.077 78.4954L131.077 78.476ZM128.407 116.991L95.24 117.001V83.8331H128.397L128.407 116.991ZM195.468 78.476H156.953V78.4857C155.478 78.4857 154.274 79.6796 154.274 81.1549V119.67C154.274 120.378 154.556 121.058 155.06 121.562C155.565 122.058 156.245 122.339 156.953 122.339H195.468C196.177 122.339 196.856 122.058 197.361 121.562C197.856 121.058 198.137 120.378 198.137 119.67V81.1549C198.137 79.6796 196.934 78.4954 195.468 78.4954L195.468 78.476ZM192.799 116.991L159.631 117.001V83.8331H192.799V116.991ZM195.468 136.559H156.953V136.569C155.478 136.569 154.274 137.762 154.274 139.238V177.753C154.284 178.461 154.565 179.141 155.07 179.645C155.565 180.14 156.254 180.422 156.953 180.412H195.468C196.186 180.412 196.866 180.14 197.361 179.636C197.865 179.131 198.147 178.451 198.147 177.743V139.228C198.137 137.753 196.943 136.569 195.468 136.569L195.468 136.559ZM192.799 175.074L159.631 175.083V141.916H192.799V175.074ZM131.076 136.559H92.5608V136.569C91.0855 136.569 89.8819 137.762 89.8819 139.238V177.753C89.8916 179.228 91.0855 180.422 92.5608 180.412H131.076C131.784 180.412 132.464 180.14 132.968 179.636C133.473 179.131 133.755 178.451 133.755 177.743V139.228C133.745 137.753 132.541 136.569 131.076 136.569L131.076 136.559ZM128.406 175.074L95.239 175.083V141.916H128.396L128.406 175.074ZM69.3521 169.551V177.753V177.743C69.3521 178.451 69.0706 179.131 68.5658 179.636C68.0708 180.14 67.3817 180.412 66.6828 180.412H28.168C27.4497 180.412 26.7703 180.14 26.2752 179.636C25.7705 179.131 25.489 178.451 25.489 177.743V139.228C25.489 138.519 25.7705 137.84 26.2752 137.335C26.7703 136.84 27.4497 136.559 28.168 136.559H55.5011C56.9764 136.559 58.1703 137.753 58.1703 139.228C58.1703 140.703 56.9764 141.907 55.5011 141.907H30.8372V175.084H64.0047V169.552C63.9852 168.824 64.257 168.125 64.7617 167.601C65.2665 167.086 65.9556 166.795 66.6836 166.795C67.4019 166.795 68.091 167.086 68.5958 167.601C69.1005 168.125 69.3715 168.823 69.3521 169.551ZM77.5927 141.771C78.641 142.819 78.641 144.508 77.5927 145.556L54.2393 168.909C53.191 169.958 51.502 169.958 50.4539 168.909L39.0975 157.553C38.5637 157.058 38.2628 156.369 38.2531 155.65C38.2434 154.922 38.5249 154.233 39.0393 153.719C39.544 153.204 40.2429 152.923 40.9709 152.933C41.6891 152.942 42.3783 153.253 42.8733 153.777L52.3467 163.251L73.8171 141.78C74.3121 141.275 74.9916 140.994 75.7098 140.994C76.4184 140.994 77.0977 141.275 77.5927 141.771Z" fill="#013475"/>
</svg>
