<svg width="267" height="200" viewBox="0 0 267 200" fill="none" xmlns="http://www.w3.org/2000/svg">
<path d="M19.2308 22.4852C22.0085 22.4852 24.2604 20.2334 24.2604 17.4556C24.2604 14.6779 22.0085 12.426 19.2308 12.426C16.453 12.426 14.2012 14.6779 14.2012 17.4556C14.2012 20.2334 16.453 22.4852 19.2308 22.4852Z" fill="#013475"/>
<path d="M32.2485 22.4852C35.0263 22.4852 37.2781 20.2334 37.2781 17.4556C37.2781 14.6779 35.0263 12.426 32.2485 12.426C29.4708 12.426 27.2189 14.6779 27.2189 17.4556C27.2189 20.2334 29.4708 22.4852 32.2485 22.4852Z" fill="#013475"/>
<path d="M45.2663 22.4852C48.044 22.4852 50.2959 20.2334 50.2959 17.4556C50.2959 14.6779 48.044 12.426 45.2663 12.426C42.4885 12.426 40.2367 14.6779 40.2367 17.4556C40.2367 20.2334 42.4885 22.4852 45.2663 22.4852Z" fill="#013475"/>
<path d="M222.189 179.586L218.047 173.965L208.284 160.355L231.361 147.041L159.467 113.905L169.527 192.012L189.645 173.965L193.491 179.586L208.284 200L226.923 186.391L222.189 179.586Z" fill="#013475"/>
<path d="M0 0V179.586H160.651L159.763 171.302H7.98816V34.6154H257.988V171.302H224.852L230.769 179.29H266.272V0H0ZM258.284 26.6272H7.98816V8.28402H257.988V26.6272H258.284Z" fill="#013475"/>
</svg>
