<svg width="191" height="200" viewBox="0 0 191 200" fill="none" xmlns="http://www.w3.org/2000/svg">
<path d="M33.547 58.9744H125.427C125.881 58.9744 126.316 58.7943 126.636 58.4737C126.957 58.1531 127.137 57.7183 127.137 57.265C127.137 56.8116 126.957 56.3768 126.636 56.0562C126.316 55.7357 125.881 55.5556 125.427 55.5556H33.547C33.0936 55.5556 32.6589 55.7357 32.3383 56.0562C32.0177 56.3768 31.8376 56.8116 31.8376 57.265C31.8376 57.7183 32.0177 58.1531 32.3383 58.4737C32.6589 58.7943 33.0936 58.9744 33.547 58.9744Z" fill="#013475"/>
<path d="M33.547 76.9231H125.427C125.881 76.9231 126.316 76.743 126.636 76.4224C126.957 76.1018 127.137 75.667 127.137 75.2137C127.137 74.7603 126.957 74.3255 126.636 74.0049C126.316 73.6844 125.881 73.5043 125.427 73.5043H33.547C33.0936 73.5043 32.6589 73.6844 32.3383 74.0049C32.0177 74.3255 31.8376 74.7603 31.8376 75.2137C31.8376 75.667 32.0177 76.1018 32.3383 76.4224C32.6589 76.743 33.0936 76.9231 33.547 76.9231Z" fill="#013475"/>
<path d="M33.547 94.8718H93.8034C94.2568 94.8718 94.6916 94.6917 95.0122 94.3711C95.3327 94.0506 95.5128 93.6158 95.5128 93.1624C95.5128 92.709 95.3327 92.2742 95.0122 91.9537C94.6916 91.6331 94.2568 91.453 93.8034 91.453H33.547C33.0936 91.453 32.6589 91.6331 32.3383 91.9537C32.0177 92.2742 31.8376 92.709 31.8376 93.1624C31.8376 93.6158 32.0177 94.0506 32.3383 94.3711C32.6589 94.6917 33.0936 94.8718 33.547 94.8718Z" fill="#013475"/>
<path d="M61.7521 121.795H33.547C33.0936 121.795 32.6589 121.975 32.3383 122.296C32.0177 122.616 31.8376 123.051 31.8376 123.504C31.8376 123.958 32.0177 124.392 32.3383 124.713C32.6589 125.034 33.0936 125.214 33.547 125.214H61.7521C62.2055 125.214 62.6403 125.034 62.9609 124.713C63.2814 124.392 63.4615 123.958 63.4615 123.504C63.4615 123.051 63.2814 122.616 62.9609 122.296C62.6403 121.975 62.2055 121.795 61.7521 121.795Z" fill="#013475"/>
<path d="M61.7521 138.034H33.547C33.0936 138.034 32.6589 138.214 32.3383 138.535C32.0177 138.855 31.8376 139.29 31.8376 139.744C31.8376 140.197 32.0177 140.632 32.3383 140.952C32.6589 141.273 33.0936 141.453 33.547 141.453H61.7521C62.2055 141.453 62.6403 141.273 62.9609 140.952C63.2814 140.632 63.4615 140.197 63.4615 139.744C63.4615 139.29 63.2814 138.855 62.9609 138.535C62.6403 138.214 62.2055 138.034 61.7521 138.034Z" fill="#013475"/>
<path d="M61.7521 154.273H33.547C33.0936 154.273 32.6589 154.454 32.3383 154.774C32.0177 155.095 31.8376 155.53 31.8376 155.983C31.8376 156.436 32.0177 156.871 32.3383 157.192C32.6589 157.512 33.0936 157.692 33.547 157.692H61.7521C62.2055 157.692 62.6403 157.512 62.9609 157.192C63.2814 156.871 63.4615 156.436 63.4615 155.983C63.4615 155.53 63.2814 155.095 62.9609 154.774C62.6403 154.454 62.2055 154.273 61.7521 154.273Z" fill="#013475"/>
<path d="M34.8291 40.5983H77.1367C77.5901 40.5983 78.0249 40.4182 78.3455 40.0976C78.6661 39.777 78.8462 39.3423 78.8462 38.8889C78.8462 38.4355 78.6661 38.0007 78.3455 37.6802C78.0249 37.3596 77.5901 37.1795 77.1367 37.1795H34.8291C34.3757 37.1795 33.9409 37.3596 33.6203 37.6802C33.2998 38.0007 33.1197 38.4355 33.1197 38.8889C33.1197 39.3423 33.2998 39.777 33.6203 40.0976C33.9409 40.4182 34.3757 40.5983 34.8291 40.5983Z" fill="#013475"/>
<path d="M187.047 28.6325L177.35 23.1624C175.71 22.257 173.777 22.0391 171.976 22.5566C170.175 23.0742 168.653 24.2848 167.744 25.9231L159.457 40.5598H159.479C159.423 40.6282 159.261 40.7009 159.214 40.7821L145.299 65.235V35.7479C145.318 35.5319 145.293 35.3143 145.227 35.108C145.16 34.9017 145.052 34.7109 144.91 34.547L111.325 0.508547C111.176 0.348519 110.997 0.220778 110.797 0.133285C110.597 0.0457924 110.381 0.000421577 110.162 0H15.5983C14.6538 0 13.6752 0.764957 13.6752 1.7094V13.2479H1.92308C0.978632 13.2479 0 14.0128 0 14.9573V198.291C0 199.235 0.978632 200 1.92308 200H130.556C131.5 200 132.051 199.235 132.051 198.291V187.179H143.974C144.428 187.179 144.863 186.999 145.183 186.679C145.504 186.358 145.684 185.923 145.684 185.47L145.594 116.667L181.444 53.3291C181.488 53.2495 181.525 53.1666 181.556 53.0812H181.577L189.863 38.4444C191.765 35.0641 190.479 30.5812 187.047 28.6325ZM111.538 5.74786L139.859 34.188H111.538V5.74786ZM128.632 196.581H3.4188V16.6667H13.6752V185.47C13.6752 186.415 14.6538 187.179 15.5983 187.179H128.632V196.581ZM142.261 183.761H17.094V3.4188H108.12V35.8974C108.12 36.8419 109.098 37.6068 110.043 37.6068H141.88V71.2735L118.581 112.821H81.1538C80.9317 112.822 80.7119 112.867 80.5074 112.954C80.3029 113.041 80.1177 113.167 79.9626 113.326C79.8075 113.485 79.6856 113.674 79.604 113.88C79.5223 114.087 79.4826 114.308 79.4872 114.53V164.957C79.4826 165.179 79.5223 165.4 79.604 165.607C79.6856 165.814 79.8075 166.002 79.9626 166.161C80.1177 166.32 80.3029 166.447 80.5074 166.533C80.7119 166.62 80.9317 166.666 81.1538 166.667H125.598C126.056 166.668 126.496 166.49 126.824 166.17C127.151 165.85 127.34 165.415 127.35 164.957V144.017L131.483 141.252C131.706 141.105 131.89 140.907 132.021 140.675L142.184 122.65L142.261 183.761ZM112.346 149.85L113 131.863L127.252 139.932L112.346 149.85ZM109.902 128.205C109.748 128.463 109.673 128.76 109.688 129.06L108.812 153.124C108.799 153.432 108.872 153.737 109.023 154.006C109.174 154.275 109.397 154.496 109.667 154.645C109.929 154.786 110.224 154.855 110.521 154.846C110.866 154.844 111.203 154.741 111.491 154.551L123.932 146.273V163.248H82.906V116.239H116.645L109.902 128.205ZM129.868 137.474L113.718 128.333L161.479 43.9701L177.628 53.1111L129.868 137.474ZM186.885 36.7521L179.308 50.1368L163.162 40.9957L170.739 27.6068C170.964 27.1821 171.271 26.8065 171.642 26.5019C172.014 26.1974 172.442 25.97 172.903 25.8331C173.363 25.6962 173.846 25.6525 174.324 25.7046C174.801 25.7568 175.264 25.9037 175.684 26.1368L185.363 31.6239C186.233 32.1142 186.878 32.9233 187.161 33.8802C187.445 34.8372 187.346 35.867 186.885 36.7521Z" fill="#013475"/>
</svg>
