<svg width="201" height="200" viewBox="0 0 201 200" fill="none" xmlns="http://www.w3.org/2000/svg">
<path d="M111.432 130.681C111.432 108.042 93.0402 89.6494 70.4 89.6494C47.7607 89.6494 29.3681 108.041 29.3681 130.681C29.3681 153.321 47.7599 171.713 70.4 171.713C93.0309 171.713 111.432 153.289 111.432 130.681ZM70.3916 165.646C51.1027 165.646 35.4273 149.971 35.4273 130.681C35.4273 111.392 51.1022 95.7171 70.3916 95.7171C89.6809 95.7171 105.356 111.392 105.356 130.681C105.364 149.962 89.6809 165.646 70.3916 165.646Z" fill="#013475"/>
<path d="M70.3916 114.2C74.0962 114.2 77.1012 117.205 77.1012 120.91C77.1012 122.573 78.4431 123.939 80.1308 123.939C81.7938 123.939 83.1604 122.598 83.1604 120.91C83.1604 114.908 79.011 109.928 73.4212 108.553V106.766C73.4212 105.103 72.0793 103.737 70.3916 103.737C68.7286 103.737 67.362 105.079 67.362 106.766V108.553C61.7721 109.928 57.6228 114.941 57.6228 120.91C57.6228 127.965 63.3362 133.687 70.3998 133.687C74.1045 133.687 77.1094 136.692 77.1094 140.396C77.1094 144.101 74.1045 147.106 70.3998 147.106C66.6952 147.106 63.6902 144.101 63.6902 140.396C63.6902 138.733 62.3483 137.367 60.6606 137.367C58.9976 137.367 57.631 138.709 57.631 140.396C57.631 146.398 61.7804 151.379 67.3702 152.754V154.54C67.3702 156.203 68.7121 157.57 70.3998 157.57C72.0628 157.57 73.4294 156.228 73.4294 154.54V152.754C79.0193 151.379 83.1686 146.365 83.1686 140.396C83.1686 133.341 77.4553 127.619 70.3916 127.619C66.6869 127.619 63.682 124.615 63.682 120.91C63.6902 117.238 66.6869 114.2 70.3916 114.2Z" fill="#013475"/>
<path d="M190.91 149.519H174.115C183.278 143.262 189.28 132.724 189.28 120.812C189.28 101.654 173.695 86.0371 154.505 86.0371C143.358 86.0371 133.429 91.3388 127.073 99.5469C118.799 83.4193 107.85 69.0865 97.5337 59.7585C102.58 59.281 106.573 55.0658 106.573 49.9204C106.573 46.1498 104.433 42.8981 101.337 41.235C120.848 26.6386 117.975 12.8822 114.139 5.59636C112.986 3.42306 110.755 2.14693 108.36 2.24578C105.865 2.34457 103.7 3.8429 102.679 6.17278C101.115 9.77858 98.3322 12.5612 94.1171 14.6359C94.0513 14.6688 93.8948 14.6359 93.829 14.5371C89.0046 7.06179 82.8137 2.21274 75.8819 0.517008C72.4982 -0.314483 68.8265 -0.149841 65.2784 1.06036C59.1781 3.10204 54.2631 6.9714 49.8259 13.1952C49.7271 13.3269 49.6036 13.3269 49.5377 13.3516C46.4752 11.1124 43.8244 7.82753 41.6837 3.57955C40.7617 1.76014 39.0657 0.51707 37.0241 0.228967C34.9495 -0.0591767 32.8419 0.673534 31.4012 2.2048C27.4413 6.42811 25.6548 11.8287 26.2312 17.7973C27.0627 26.2932 32.7762 35.3574 38.9753 41.4904C36.1268 43.2439 34.2169 46.3476 34.2169 49.9206C34.2169 55.0906 38.2096 59.3057 43.2564 59.7586C26.6759 74.7007 8.44809 102.544 2.43947 129.974C-2.35184 151.882 -0.0796881 168.833 9.2066 180.365C19.9996 193.743 39.412 200 70.3909 200C81.3156 200 90.7336 199.169 98.8765 197.571C100.507 199.07 102.647 200 105.01 200H177.754C182.768 200 186.851 195.917 186.851 190.903V180.81C186.851 179.756 186.629 178.735 186.308 177.78H190.934C195.948 177.78 200.032 173.697 200.032 168.683V158.59C199.974 153.601 195.923 149.519 190.91 149.519ZM172.296 171.747H157.576V155.586H172.296V171.747ZM115.137 168.709V158.616C115.137 156.953 116.512 155.586 118.167 155.586H130.713V171.747H118.167C116.504 171.747 115.137 170.372 115.137 168.709ZM151.501 155.586V171.747H136.781V155.586H151.501ZM123.624 177.781H138.344V193.942L123.624 193.933V177.781ZM144.387 177.781H159.107V193.942L144.387 193.933V177.781ZM154.538 92.1363C170.377 92.1363 183.245 105.004 183.245 120.843C183.245 136.683 170.377 149.55 154.538 149.55C138.698 149.55 125.831 136.683 125.831 120.843C125.831 105.004 138.698 92.1363 154.538 92.1363ZM35.872 6.30218C36.0038 6.17046 36.1272 6.17046 36.3166 6.26925C38.8686 11.4064 42.1617 15.4322 46.0229 18.2477C47.3648 19.2027 48.995 19.5896 50.625 19.3344C52.2879 19.0463 53.8192 18.1242 54.8072 16.7164C58.4461 11.5793 62.406 8.41794 67.2301 6.82084C69.6918 5.98935 72.178 5.86586 74.4502 6.40921C79.9414 7.75113 84.7656 11.6123 88.7585 17.8444C90.5121 20.5612 93.9945 21.5161 96.8678 20.0836C102.326 17.3668 106.162 13.5058 108.27 8.59095C108.369 8.36866 108.525 8.3028 108.78 8.43453C114.337 19.0052 108.682 29.921 92.3976 40.014L46.4109 39.9894C40.821 35.6425 33.1234 26.1914 32.2673 17.2173C31.8557 12.9116 33.0319 9.33178 35.872 6.30218ZM40.2517 49.9179C40.2517 47.7775 41.9724 46.0238 44.1459 46.0238H96.6365C98.7769 46.0238 100.498 47.7444 100.498 49.9179C100.498 52.0914 98.7769 53.812 96.6365 53.812H44.1459C42.0054 53.812 40.2517 52.0585 40.2517 49.9179ZM13.9411 176.561C5.85673 166.533 3.97132 151.27 8.35123 131.282C14.6739 102.352 36.0697 71.9818 52.6435 59.8803H88.1178C99.775 68.4093 113.762 85.9359 123.28 105.671C121.041 110.273 119.732 115.377 119.732 120.835C119.732 132.748 125.766 143.285 134.896 149.542H118.102C113.088 149.542 109.005 153.626 109.005 158.639V168.733C109.005 169.786 109.227 170.807 109.548 171.762H104.921C99.9076 171.762 95.8242 175.846 95.8242 180.859V190.953C95.8242 191.307 95.8901 191.652 95.923 192.006C88.5795 193.315 80.0835 193.982 70.3121 193.982C41.4323 193.933 23.4845 188.409 13.9436 176.562L13.9411 176.561ZM101.973 190.902V180.809C101.973 179.146 103.348 177.779 105.003 177.779H117.549V193.94H105.003C103.315 193.931 101.973 192.589 101.973 190.902ZM180.752 180.809V190.902C180.752 192.565 179.377 193.931 177.722 193.931H165.175V177.771H177.722C179.418 177.779 180.752 179.154 180.752 180.809ZM193.94 168.707C193.94 170.37 192.565 171.736 190.911 171.736H178.364V155.575H190.911C192.574 155.575 193.94 156.95 193.94 158.605V168.707Z" fill="#013475"/>
<path d="M154.538 134.066C151.73 134.066 149.425 131.769 149.425 128.954C149.425 127.291 148.083 125.924 146.396 125.924C144.7 125.924 143.366 127.266 143.366 128.954C143.366 134.066 146.815 138.306 151.508 139.648V140.8C151.508 142.463 152.85 143.83 154.538 143.83C156.201 143.83 157.567 142.488 157.567 140.8V139.648C162.26 138.306 165.709 134.058 165.709 128.954C165.709 122.787 160.696 117.774 154.529 117.774C151.722 117.774 149.417 115.477 149.417 112.661C149.417 109.854 151.714 107.549 154.529 107.549C157.337 107.549 159.642 109.845 159.642 112.661C159.642 114.324 160.984 115.691 162.672 115.691C164.334 115.691 165.701 114.349 165.701 112.661C165.701 107.549 162.252 103.309 157.559 101.967V100.814C157.559 99.1515 156.217 97.7848 154.529 97.7848C152.866 97.7848 151.5 99.1267 151.5 100.814V101.967C146.84 103.309 143.358 107.557 143.358 112.661C143.358 118.827 148.371 123.841 154.538 123.841C157.345 123.841 159.65 126.138 159.65 128.954C159.65 131.761 157.345 134.066 154.538 134.066Z" fill="#013475"/>
</svg>
