<svg width="200" height="200" viewBox="0 0 200 200" fill="none" xmlns="http://www.w3.org/2000/svg">
<path fill-rule="evenodd" clip-rule="evenodd" d="M46.3767 71.5716H10.7023C7.86618 71.5716 5.14602 72.7043 3.13044 74.711C1.12375 76.7177 0 79.4378 0 82.2829V153.383C0 159.296 4.78939 164.085 10.6934 164.085L46.377 164.103V196.433C46.377 198.404 47.9734 200 49.9444 200H149.833C151.804 200 153.4 198.404 153.4 196.433V164.103L189.084 164.085C194.988 164.085 199.777 159.296 199.777 153.383V82.2737C199.777 79.4376 198.653 76.7174 196.647 74.7108C194.631 72.7041 191.911 71.5714 189.075 71.5714H153.4V3.56744C153.4 1.59643 151.804 0 149.833 0H49.9446C47.9736 0 46.3772 1.59643 46.3772 3.56744L46.3767 71.5716ZM146.265 142.697V192.865H53.5116V142.697H146.265ZM67.7814 185.506H131.995C133.966 185.506 135.563 183.91 135.563 181.939C135.563 179.968 133.966 178.371 131.995 178.371H67.7814C65.8104 178.371 64.2139 179.968 64.2139 181.939C64.2139 183.91 65.8104 185.506 67.7814 185.506ZM67.7814 171.236H131.995C133.966 171.236 135.563 169.64 135.563 167.669C135.563 165.698 133.966 164.101 131.995 164.101H67.7814C65.8104 164.101 64.2139 165.698 64.2139 167.669C64.2139 169.64 65.8104 171.236 67.7814 171.236ZM67.7814 156.966H131.995C133.966 156.966 135.563 155.37 135.563 153.399C135.563 151.428 133.966 149.832 131.995 149.832H67.7814C65.8104 149.832 64.2139 151.428 64.2139 153.399C64.2139 155.37 65.8104 156.966 67.7814 156.966ZM153.4 156.966L189.074 156.949C191.045 156.949 192.642 155.352 192.642 153.381V82.2721C192.642 81.3267 192.267 80.426 191.598 79.7481C190.929 79.0792 190.02 78.7046 189.074 78.7046H10.7023C9.75689 78.7046 8.84718 79.0792 8.17822 79.7481C7.50932 80.4259 7.13475 81.3267 7.13475 82.2721V153.381C7.13475 155.352 8.73118 156.949 10.7022 156.949L46.3766 156.966V142.697H24.9719C23.0009 142.697 21.4045 141.1 21.4045 139.129C21.4045 137.158 23.0009 135.562 24.9719 135.562H174.804C176.775 135.562 178.372 137.158 178.372 139.129C178.372 141.1 176.775 142.697 174.804 142.697H153.4L153.4 156.966ZM142.698 89.4077C138.756 89.4077 135.563 92.6094 135.563 96.5426C135.563 100.476 138.756 103.677 142.698 103.677C146.64 103.677 149.833 100.476 149.833 96.5426C149.833 92.6094 146.64 89.4077 142.698 89.4077ZM164.102 89.4077C160.16 89.4077 156.967 92.6094 156.967 96.5426C156.967 100.476 160.16 103.677 164.102 103.677C168.044 103.677 171.237 100.476 171.237 96.5426C171.237 92.6094 168.044 89.4077 164.102 89.4077ZM53.5105 71.5705V7.13283H146.264V71.5705H53.5105Z" fill="#013475"/>
</svg>
