<svg width="186" height="200" viewBox="0 0 186 200" fill="none" xmlns="http://www.w3.org/2000/svg">
<path d="M116.8 30.8C113.2 30.8 110 28.6 108.6 25.2C107.2 22.2 104.2 20 100.8 20C97.4 20 94.4 22 93 25.2C91.6 28.6 88.4 30.8 84.8 30.8C79.8 30.8 76 26.8 76 22V5.4C76 2.4 78.4 0 81.4 0H120.4C123.4 0 125.8 2.4 125.8 5.4V22.2C125.6 27 121.8 30.8 116.8 30.8ZM100.8 15.6C106 15.6 110.8 18.8 112.8 23.6C113.6 25.4 115 26.4 116.8 26.4C119.2 26.4 121.2 24.6 121.2 22.2V5.4C121.2 5 120.8 4.6 120.4 4.6H81.2C80.8 4.6 80.4 5 80.4 5.4V22.2C80.4 24.6 82.2 26.4 84.6 26.4C86.4 26.4 88 25.4 88.6 23.6C90.8 18.6 95.6 15.6 100.8 15.6Z" fill="#013475"/>
<path d="M151.2 183.6H89.2C88 183.6 87 182.6 87 181.4C87 180.2 88 179.2 89.2 179.2H151C167.6 179.2 181 165.8 181 149.2V18.2H169C167.8 18.2 166.8 17.2 166.8 16C166.8 14.8 167.8 13.8 169 13.8H183.2C184.4 13.8 185.4 14.8 185.4 16V149C185.6 168 170.2 183.6 151.2 183.6Z" fill="#013475"/>
<path d="M140 169.2H95C93.8 169.2 92.8 168.2 92.8 167C92.8 165.8 93.8 164.8 95 164.8H140C143.6 164.8 146.6 161.8 146.6 158.2V147C146.6 145.8 147.6 144.8 148.8 144.8H160C163.6 144.8 166.6 141.8 166.6 138.2V4.6H133.8C132.6 4.6 131.6 3.6 131.6 2.4C131.6 1.2 132.6 0.2 133.8 0.2H169.2C170.4 0.2 171.4 1.2 171.4 2.4V138C171.4 144.2 166.4 149.2 160.2 149.2H151.2V158C151.2 164.2 146.2 169.2 140 169.2Z" fill="#013475"/>
<path d="M32.4 107.2C31.2 107.2 30.2 106.2 30.2 105V2.2C30.2 1 31.2 0 32.4 0H67.8C69 0 70 1 70 2.2C70 3.4 69 4.4 67.8 4.4H34.8V104.8C34.8 106.2 33.8 107.2 32.4 107.2Z" fill="#013475"/>
<path d="M44.8 200C20 200 0 179.8 0 155.2C0 130.6 20 110.4 44.8 110.4C69.6 110.4 89.6 130.6 89.6 155.2C89.6 179.8 69.4 200 44.8 200ZM44.8 115C22.6 115 4.6 133 4.6 155.2C4.6 177.4 22.6 195.4 44.8 195.4C67 195.4 85 177.4 85 155.2C85 133 67 115 44.8 115Z" fill="#013475"/>
<path d="M44.8 180.2C43.6 180.2 42.6 179.2 42.6 178C42.6 176.8 43.6 175.8 44.8 175.8C56.2 175.8 65.4 166.6 65.4 155.2C65.4 143.8 56 134.6 44.8 134.6C33.4 134.6 24.2 143.8 24.2 155.2C24.2 156.4 23.2 157.4 22 157.4C20.8 157.4 19.8 156.4 19.8 155.2C19.8 141.4 31 130.2 44.8 130.2C58.6 130.2 69.8 141.4 69.8 155.2C69.8 169 58.6 180.2 44.8 180.2Z" fill="#013475"/>
<path d="M22 165.4C21.4 165.4 20.8 165.2 20.4 164.8L13.6 158C12.8 157.2 12.8 155.6 13.6 154.8C14.4 154 16 154 16.8 154.8L22 160L27.2 154.8C28 154 29.6 154 30.4 154.8C31.2 155.6 31.2 157.2 30.4 158L23.6 164.8C23.2 165 22.6 165.4 22 165.4Z" fill="#013475"/>
<path d="M101.625 47.0689C101.827 47.0119 102.043 46.9681 102.25 47.0304C107.139 48.3052 111.893 50.052 116.541 52.0209C116.986 52.2191 117.448 52.3835 117.878 52.6149C117.522 55.1333 117.139 57.6484 116.817 60.1709C117.237 59.9753 117.625 59.7221 118.031 59.5006C120.136 58.3107 122.288 57.2036 124.483 56.1847C124.674 56.1052 124.895 55.9434 125.101 56.08C128.77 57.907 132.337 59.9282 135.869 62.0038C136.247 62.2312 136.632 62.4447 137 62.6873C135.857 63.5146 134.697 64.3194 133.566 65.1633C129.908 67.8733 126.37 70.7451 122.95 73.7481C122.748 73.957 122.453 73.7806 122.215 73.7475C116.181 72.3646 110.099 71.1939 103.985 70.2254C103.372 70.1438 102.765 70.0152 102.149 69.9688C102.372 70.1843 102.63 70.3573 102.883 70.535C107.063 73.5711 111.179 76.6962 115.192 79.9484C115.314 80.0492 115.434 80.1533 115.555 80.2567C115.084 80.7532 114.554 81.1901 114.072 81.6754C110.152 85.3937 106.229 89.1087 102.311 92.8303C102.224 92.9072 102.134 92.9828 102.045 93.059C101.718 92.8078 101.442 92.4995 101.145 92.2158C94.3474 85.6933 87.4854 79.2305 80.3579 73.0633C80.4771 72.7763 80.6168 72.4985 80.7626 72.2241C82.6306 68.5754 84.5226 64.9359 86.591 61.3946C86.7993 61.0254 87.0489 60.6787 87.2252 60.2922C86.8785 60.4433 86.5584 60.6462 86.2303 60.8331C82.4156 63.0227 78.6735 65.3357 74.9927 67.7414C74.7937 67.8654 74.6107 68.0298 74.3804 68.0941C74.1608 67.9675 73.9791 67.7865 73.7801 67.632C71.8102 66.0609 69.7698 64.5793 67.6901 63.1567C67.4858 63.0181 67.2835 62.8769 67.0858 62.7284C67.5051 62.4208 67.975 62.1921 68.4168 61.9183C74.3085 58.4592 80.3413 55.2248 86.583 52.4346C86.8446 52.3139 87.1114 52.1714 87.4082 52.1734C91.7826 52.178 96.1569 52.3464 100.519 52.6666C100.958 52.6911 101.395 52.7574 101.835 52.7362C101.71 52.66 101.582 52.5884 101.448 52.5307C98.8628 51.4786 96.2394 50.5214 93.5907 49.6423C93.9927 49.4561 94.4226 49.3427 94.8392 49.1955C97.0853 48.4372 99.3347 47.6854 101.625 47.0689ZM101.868 52.8694C98.1215 54.5181 94.4499 56.3339 90.8442 58.2676C89.6743 58.9087 88.4923 59.5311 87.3443 60.2106C87.6298 60.3982 87.9267 60.5673 88.2208 60.741C90.7158 62.2286 93.1582 63.8017 95.5679 65.4212C97.7574 66.8836 99.9023 68.411 102.055 69.9264C102.408 69.7017 102.738 69.4445 103.081 69.2045C107.26 66.2273 111.509 63.3396 115.924 60.7171C116.207 60.5514 116.5 60.3996 116.76 60.1974C112.118 57.3932 107.257 54.9504 102.25 52.8622C102.126 52.8032 101.988 52.8078 101.868 52.8694Z" fill="#003772"/>
<path d="M100.553 55.4893C102.206 55.3375 103.891 55.4403 105.5 55.8605C106.532 56.1284 107.534 56.5354 108.425 57.1234C109.055 57.543 109.629 58.0654 110.018 58.7184C110.42 59.3886 110.6 60.2146 110.399 60.9803C110.18 61.8852 109.552 62.6316 108.831 63.1958C107.728 64.045 106.4 64.5601 105.048 64.8604C102.825 65.3476 100.479 65.2992 98.2805 64.7052C96.9455 64.3367 95.6438 63.7341 94.6302 62.7748C93.9534 62.1033 93.433 61.1951 93.4763 60.2173C93.5009 59.1791 94.1245 58.2563 94.8951 57.6007C96.4743 56.2848 98.5374 55.7014 100.553 55.4893Z" fill="#003772"/>
<path d="M67.0007 96.3425C67.8805 96.2994 68.7616 96.3372 69.642 96.3239C70.2842 96.314 70.9511 96.3093 71.552 96.5692C72.0738 96.7866 72.5203 97.2202 72.678 97.7704C72.9023 98.5122 72.8105 99.3899 72.2974 99.9952C72.0272 100.322 71.6246 100.487 71.2406 100.641C71.4509 100.757 71.6864 100.859 71.8282 101.062C72.0312 101.354 72.1463 101.695 72.2575 102.03C72.5543 102.985 72.8617 103.936 73.1625 104.89C72.4564 104.897 71.7503 104.894 71.0442 104.893C70.7934 104.115 70.589 103.324 70.3535 102.542C70.2456 102.212 70.1525 101.848 69.8843 101.607C69.6507 101.41 69.3253 101.436 69.0391 101.435C69.0231 102.587 69.0404 103.74 69.0324 104.892C68.355 104.893 67.6775 104.899 67 104.888C67.0027 102.04 67.002 99.191 67.0007 96.3425ZM68.9639 97.789C68.9506 98.5208 68.9446 99.254 68.9672 99.9859C69.4118 99.9813 69.9009 100.033 70.2949 99.7857C70.8399 99.4257 70.9278 98.5619 70.4972 98.0853C70.0906 97.6975 69.479 97.7711 68.9639 97.789Z" fill="#003772"/>
<path d="M89.0194 96.3359C89.6197 96.3146 90.2213 96.3173 90.8216 96.3345C90.8362 96.8635 90.8482 97.3932 90.8143 97.9216C90.2167 97.9222 89.6197 97.9209 89.0221 97.9222C89.0128 97.3932 89.0154 96.8649 89.0194 96.3359Z" fill="#003772"/>
<path d="M103.566 96.3345C105.152 96.318 106.738 96.3173 108.324 96.3345C108.342 96.8264 108.344 97.319 108.323 97.8115C107.387 97.8374 106.45 97.8109 105.513 97.8228C105.494 98.4817 105.499 99.142 105.509 99.8016C106.413 99.8215 107.317 99.795 108.221 99.8129C108.22 100.311 108.22 100.81 108.221 101.308C107.317 101.326 106.413 101.3 105.509 101.32C105.492 102.51 105.511 103.702 105.502 104.892C104.857 104.895 104.212 104.895 103.567 104.892C103.539 103.857 103.564 102.822 103.556 101.787C103.563 99.9693 103.541 98.1516 103.566 96.3345Z" fill="#003772"/>
<path d="M117.702 96.3359C118.303 96.3146 118.904 96.3173 119.505 96.3345C119.529 98.2842 119.507 100.234 119.515 102.185C119.523 103.086 119.492 103.989 119.543 104.89C118.971 104.895 118.399 104.899 117.828 104.888C117.798 104.603 117.775 104.317 117.754 104.032C117.563 104.282 117.383 104.552 117.114 104.724C116.705 104.99 116.186 105.03 115.716 104.941C115.151 104.825 114.708 104.384 114.457 103.885C114.121 103.218 114.022 102.459 114.037 101.721C114.032 100.961 114.169 100.158 114.635 99.5358C115.15 98.8424 116.175 98.668 116.942 99.0154C117.271 99.1586 117.482 99.4589 117.691 99.736C117.716 98.603 117.69 97.4695 117.702 96.3359ZM116.455 100.153C116.156 100.295 116.033 100.635 115.978 100.939C115.906 101.394 115.924 101.857 115.932 102.315C115.949 102.686 116.003 103.076 116.215 103.391C116.419 103.699 116.904 103.777 117.19 103.539C117.397 103.371 117.512 103.119 117.578 102.867C117.726 102.279 117.723 101.662 117.625 101.066C117.577 100.797 117.495 100.52 117.312 100.308C117.104 100.069 116.736 100.04 116.455 100.153Z" fill="#003772"/>
<path d="M135.059 96.3359C135.659 96.316 136.259 96.316 136.86 96.3359C136.883 97.9315 136.862 99.5278 136.87 101.124C136.862 102.38 136.882 103.636 136.86 104.892C136.259 104.896 135.658 104.895 135.058 104.892C135.036 102.973 135.055 101.054 135.049 99.1354C135.056 98.202 135.035 97.2686 135.059 96.3359Z" fill="#003772"/>
<path d="M92.1553 97.7041C92.7422 97.5271 93.3252 97.3355 93.9115 97.1559C93.9195 97.7505 93.8975 98.3458 93.9202 98.9405C94.3062 98.9478 94.6921 98.9458 95.0781 98.9464C95.1008 99.3634 95.1001 99.7817 95.0788 100.199C94.6935 100.211 94.3081 100.208 93.9228 100.208C93.8949 101.065 93.9202 101.924 93.9088 102.781C93.9182 103.064 93.9102 103.424 94.181 103.597C94.4725 103.755 94.8139 103.633 95.1194 103.584C95.1254 104.024 95.1234 104.464 95.1207 104.904C94.6409 104.999 94.1491 104.99 93.6626 104.975C93.2174 104.958 92.7582 104.791 92.468 104.442C92.1938 104.109 92.106 103.668 92.0934 103.249C92.0774 102.236 92.1107 101.222 92.0787 100.21C91.6621 100.203 91.2455 100.202 90.8296 100.214C90.8262 101.773 90.8469 103.333 90.8203 104.892C90.2193 104.896 89.619 104.895 89.0187 104.892C89.0167 102.911 89.0167 100.929 89.0187 98.9471C90.0589 98.9385 91.0998 98.957 92.1399 98.9398C92.1493 98.5275 92.1386 98.1158 92.1553 97.7041Z" fill="#003772"/>
<path d="M74.5202 99.1519C75.1085 98.8238 75.8199 98.7814 76.4721 98.9073C77.0497 99.0187 77.5821 99.3687 77.8809 99.8785C78.3388 100.626 78.3801 101.534 78.3481 102.386C77.1762 102.414 76.0029 102.377 74.8309 102.404C74.8522 102.791 74.988 103.193 75.3101 103.436C75.7121 103.769 76.2664 103.757 76.7602 103.74C77.1835 103.734 77.6001 103.651 78.0047 103.533C78.0114 103.989 78.0333 104.444 78.0267 104.9C77.5429 104.981 77.0511 104.982 76.5619 104.994C75.8638 104.993 75.1311 104.97 74.4995 104.636C73.854 104.311 73.4081 103.674 73.2384 102.982C73.0341 102.158 73.0581 101.262 73.3848 100.472C73.6084 99.9276 73.9977 99.4377 74.5202 99.1519ZM75.1351 100.233C74.8682 100.556 74.8502 100.997 74.8376 101.396C75.4618 101.424 76.0867 101.414 76.711 101.402C76.6917 100.999 76.6657 100.557 76.3949 100.232C76.0954 99.8474 75.4339 99.848 75.1351 100.233Z" fill="#003772"/>
<path d="M79.6678 99.5769C80.1696 99.0969 80.8704 98.8702 81.5558 98.847C82.0869 98.8318 82.6173 98.8795 83.1444 98.9398C83.149 99.3959 83.1178 99.852 83.0632 100.305C82.5434 100.264 81.999 100.161 81.4926 100.334C80.9795 100.525 80.7186 101.078 80.6694 101.591C80.5962 102.204 80.6674 102.933 81.1951 103.338C81.7528 103.773 82.5081 103.629 83.1597 103.572C83.2076 104.014 83.2096 104.459 83.2049 104.903C82.5734 105.033 81.9245 105.006 81.285 104.973C80.6967 104.942 80.105 104.733 79.6745 104.323C79.0149 103.717 78.7467 102.792 78.7607 101.92C78.7487 101.066 79.0303 100.171 79.6678 99.5769Z" fill="#003772"/>
<path d="M83.8199 99.9335C84.2012 99.3482 84.8527 98.9484 85.5482 98.8682C86.034 98.8099 86.5398 98.8477 87.0003 99.0194C87.5134 99.2109 87.9293 99.62 88.1563 100.114C88.4863 100.82 88.5336 101.619 88.491 102.386C87.3244 102.412 86.1564 102.384 84.9891 102.398C84.9945 102.719 85.0836 103.046 85.3013 103.291C85.5302 103.551 85.8696 103.699 86.2123 103.729C86.8612 103.778 87.5207 103.728 88.1436 103.536C88.1662 103.992 88.1849 104.448 88.1649 104.905C87.4522 105.001 86.7288 105.005 86.0114 104.977C85.3279 104.954 84.6271 104.738 84.1213 104.265C83.6302 103.814 83.3773 103.161 83.2961 102.511C83.179 101.629 83.3107 100.681 83.8199 99.9335ZM85.2374 100.287C85.0131 100.612 84.9858 101.02 84.9891 101.403C85.6061 101.416 86.2236 101.417 86.8406 101.403C86.8459 101.005 86.8086 100.578 86.5624 100.248C86.2516 99.8348 85.5182 99.8447 85.2374 100.287Z" fill="#003772"/>
<path d="M96.0604 98.9511C97.0034 98.9 97.9564 98.7615 98.8968 98.9153C99.3939 99.0041 99.9163 99.2103 100.207 99.6445C100.466 100.019 100.528 100.484 100.543 100.928C100.568 102.248 100.516 103.57 100.576 104.891C100.029 104.895 99.4837 104.898 98.938 104.89C98.9134 104.667 98.8881 104.446 98.8582 104.225C98.6465 104.416 98.4436 104.626 98.1867 104.758C97.7148 104.999 97.1538 105.039 96.6427 104.918C96.0511 104.774 95.56 104.28 95.4322 103.685C95.3057 103.119 95.3743 102.471 95.7569 102.013C96.107 101.594 96.6394 101.381 97.1638 101.279C97.7275 101.157 98.3071 101.183 98.8801 101.177C98.8795 100.889 98.8422 100.574 98.6239 100.362C98.3471 100.063 97.9018 100.088 97.5285 100.101C97.0187 100.113 96.5276 100.26 96.0571 100.445C96.0464 99.9474 96.0418 99.4489 96.0604 98.9511ZM97.4027 102.325C96.9981 102.591 96.9149 103.203 97.1851 103.588C97.5631 104.018 98.3344 103.877 98.6286 103.417C98.9041 103.012 98.8961 102.502 98.8715 102.034C98.373 102.026 97.8313 102.041 97.4027 102.325Z" fill="#003772"/>
<path d="M109.001 99.8938C109.398 99.3104 110.065 98.9239 110.769 98.8603C111.316 98.8099 111.893 98.8662 112.385 99.1241C112.81 99.3455 113.14 99.7241 113.332 100.159C113.645 100.854 113.687 101.635 113.648 102.386C112.472 102.41 111.296 102.387 110.12 102.396C110.168 102.728 110.243 103.079 110.488 103.327C110.718 103.565 111.041 103.7 111.368 103.729C112.017 103.779 112.676 103.727 113.3 103.537C113.321 103.992 113.34 104.448 113.32 104.905C112.585 105.003 111.839 105.007 111.099 104.973C110.393 104.939 109.672 104.689 109.179 104.169C108.734 103.706 108.513 103.072 108.445 102.445C108.339 101.568 108.484 100.628 109.001 99.8938ZM110.421 100.248C110.173 100.578 110.138 101.005 110.144 101.403C110.761 101.416 111.38 101.416 111.996 101.403C112 101.005 111.965 100.578 111.718 100.248C111.418 99.8454 110.719 99.8401 110.421 100.248Z" fill="#003772"/>
<path d="M120.677 99.7274C121.061 99.2646 121.618 98.9458 122.217 98.8728C122.863 98.79 123.563 98.8669 124.115 99.2355C124.607 99.5669 124.922 100.109 125.06 100.678C125.211 101.234 125.215 101.814 125.199 102.386C124.025 102.411 122.85 102.383 121.676 102.399C121.701 102.788 121.833 103.194 122.159 103.436C122.561 103.774 123.117 103.756 123.611 103.74C124.034 103.735 124.451 103.651 124.856 103.533C124.862 103.989 124.877 104.445 124.872 104.901C124.147 105.004 123.409 105.008 122.679 104.972C121.987 104.937 121.271 104.72 120.774 104.219C120.187 103.64 119.959 102.79 119.961 101.987C119.941 101.184 120.156 100.352 120.677 99.7274ZM121.986 100.232C121.721 100.559 121.697 101 121.672 101.401C122.301 101.417 122.93 101.419 123.559 101.4C123.528 100.999 123.51 100.558 123.245 100.232C122.946 99.85 122.282 99.8414 121.986 100.232Z" fill="#003772"/>
<path d="M129.747 98.9498C130.408 98.9053 131.069 98.8503 131.732 98.843C132.403 98.8616 133.145 98.9299 133.672 99.3919C134.122 99.7877 134.226 100.418 134.237 100.986C134.253 102.288 134.221 103.591 134.258 104.893C133.713 104.894 133.168 104.898 132.623 104.889C132.603 104.648 132.579 104.408 132.554 104.168C132.3 104.487 131.978 104.766 131.577 104.88C130.916 105.084 130.113 105.006 129.594 104.514C129.114 104.073 128.989 103.358 129.106 102.74C129.197 102.242 129.534 101.806 129.986 101.578C130.772 101.153 131.693 101.173 132.561 101.178C132.572 100.856 132.501 100.504 132.238 100.292C131.949 100.06 131.551 100.092 131.203 100.103C130.698 100.117 130.21 100.261 129.744 100.447C129.747 99.9475 129.743 99.4483 129.747 98.9498ZM131.16 102.276C130.695 102.523 130.576 103.212 130.896 103.615C131.286 104.003 132.02 103.869 132.311 103.42C132.587 103.019 132.584 102.513 132.576 102.046C132.097 102.012 131.59 102.045 131.16 102.276Z" fill="#003772"/>
<path d="M125.618 98.9471C126.165 98.9431 126.711 98.9445 127.258 98.9464C127.273 99.2646 127.294 99.5828 127.344 99.8984C127.577 99.6365 127.74 99.2965 128.062 99.1274C128.425 98.9206 128.856 98.9391 129.261 98.9445C129.264 99.4463 129.264 99.9488 129.261 100.451C128.821 100.468 128.317 100.37 127.945 100.664C127.551 100.976 127.501 101.517 127.473 101.983C127.451 102.952 127.473 103.922 127.463 104.892C126.863 104.895 126.262 104.895 125.662 104.892C125.617 102.911 125.696 100.927 125.618 98.9471Z" fill="#003772"/>
</svg>
