<svg width="268" height="200" viewBox="0 0 268 200" fill="none" xmlns="http://www.w3.org/2000/svg">
<path fill-rule="evenodd" clip-rule="evenodd" d="M155.998 160.197C155.998 159.914 156.232 159.675 156.517 159.675H235.931C236.214 159.675 236.445 159.914 236.445 160.197V166.705C236.445 166.988 236.214 167.227 235.931 167.227H156.517C156.232 167.227 155.998 166.988 155.998 166.705V160.197ZM156.517 172.692H235.931C239.22 172.692 241.918 170.004 241.918 166.705V160.197C241.918 156.895 239.22 154.21 235.931 154.21H156.517C153.218 154.21 150.533 156.895 150.533 160.197V166.705C150.533 170.004 153.218 172.692 156.517 172.692ZM40.4738 133.749C40.4738 120.663 48.4905 109.42 59.868 104.661C61.1783 106.796 63.0258 108.536 65.1892 109.72L60.2175 148.449C60.1069 149.31 60.4153 150.171 61.037 150.772L70.1021 159.441C71.156 160.454 72.8246 160.45 73.8791 159.441L82.939 150.772C83.5685 150.171 83.8742 149.31 83.7638 148.449L78.7868 109.72C80.9553 108.533 82.8028 106.796 84.1081 104.661C95.4908 109.42 103.507 120.663 103.507 133.749V165.266H40.4738V133.749ZM78.1675 147.776L73.4911 111.385H70.4849L65.8136 147.779L71.988 153.686L78.1675 147.776ZM78.6275 102.942C74.2237 101.997 69.755 101.996 65.3486 102.942C68.8598 107.028 75.1183 107.025 78.6275 102.942ZM37.7425 170.729H106.239C107.747 170.729 108.973 169.506 108.973 167.998V133.749C108.973 113.358 92.3817 96.7676 71.988 96.7676C51.5995 96.7676 35.0112 113.358 35.0112 133.749V167.998C35.0112 169.506 36.2342 170.729 37.7425 170.729ZM71.7979 60.8573C78.2216 60.8573 83.4529 66.0834 83.4529 72.507C83.4529 78.9331 78.2216 84.1594 71.7979 84.1594C65.3768 84.1594 60.1455 78.9331 60.1455 72.507C60.1455 66.0834 65.3768 60.8573 71.7979 60.8573ZM71.7979 89.622C81.2329 89.622 88.9181 81.9445 88.9181 72.507C88.9181 63.0695 81.2329 55.392 71.7979 55.392C62.3604 55.392 54.6828 63.0695 54.6828 72.507C54.6828 81.9445 62.3604 89.622 71.7979 89.622ZM177.98 102.03C178.561 100.635 180.156 99.9743 181.557 100.553C187.963 103.205 197.248 104.777 204.008 102.135C208.595 100.319 209.091 97.9906 209.188 97.0015C209.101 96.0405 208.621 93.7871 203.993 91.8857C197.734 89.4202 194.051 91.6876 186.621 88.7613C181.063 86.4153 178.168 83.0212 178.008 78.6711C178.008 78.5864 178.008 78.5014 178.013 78.4194C178.416 71.5702 185.346 67.5617 193.484 66.7695V63.699C193.484 62.1907 194.71 60.965 196.215 60.965C197.729 60.965 198.949 62.1907 198.949 63.699V66.7463C204.139 67.1112 208.741 68.18 212.942 70.0044C214.325 70.6055 214.959 72.2115 214.358 73.5965C213.757 74.9814 212.151 75.6187 210.769 75.0147C204.787 72.412 195.387 70.8456 188.687 73.4397C181.831 76.094 181.688 80.8886 188.702 83.7097C194.707 86.1249 198.172 83.8753 205.961 86.788C205.982 86.7956 206.002 86.8033 206.026 86.8137C212.783 89.5758 214.446 93.7819 214.659 96.8268C214.664 96.9604 214.664 97.094 214.654 97.2276C214.115 104.141 206.997 108.102 198.949 108.839V111.886C198.949 113.394 197.729 114.62 196.215 114.62C194.71 114.62 193.484 113.394 193.484 111.886V108.847C188.576 108.513 183.877 107.431 179.463 105.599C178.065 105.021 177.402 103.422 177.98 102.03ZM155.998 131.345C155.998 131.062 156.232 130.82 156.517 130.82H235.931C236.214 130.82 236.445 131.062 236.445 131.345V137.853C236.445 138.136 236.214 138.375 235.931 138.375H156.517C156.232 138.375 155.998 138.136 155.998 137.853V131.345ZM156.517 143.84H235.931C239.22 143.84 241.918 141.155 241.918 137.853V131.345C241.918 128.043 239.22 125.358 235.931 125.358H156.517C153.218 125.358 150.533 128.043 150.533 131.345V137.853C150.533 141.155 153.218 143.84 156.517 143.84ZM5.46258 17.7009C5.46258 10.9534 10.951 5.46264 17.6983 5.46264H250.063C256.795 5.46264 262.294 10.9534 262.294 17.7009V29.9391H5.46259L5.46258 17.7009ZM2.73129 35.4017H265.017C266.533 35.4017 267.767 34.1786 267.767 32.6704V17.7009C267.767 7.93962 259.827 0 250.063 0H17.6983C7.93956 0 0 7.93962 0 17.7009V32.6704C3.01158e-07 34.1786 1.22305 35.4017 2.73129 35.4017ZM262.294 175.791V45.0987H5.46259V175.791C5.46259 186.125 13.8725 194.535 24.2068 194.535H243.537C253.892 194.535 262.294 186.125 262.294 175.791ZM265.017 39.6336H2.73129C1.22305 39.6336 0 40.8567 0 42.3649V175.791C0 189.139 10.8584 200 24.2068 200H243.537C256.898 200 267.767 189.139 267.767 175.791V42.3649C267.767 40.8567 266.533 39.6336 265.017 39.6336Z" fill="#013475"/>
</svg>
