<svg width="200" height="200" viewBox="0 0 200 200" fill="none" xmlns="http://www.w3.org/2000/svg">
<path d="M37.5 129.167C28.2953 129.167 20.8333 136.629 20.8333 145.833C20.8333 155.038 28.2953 162.5 37.5 162.5C46.7047 162.5 54.1667 155.038 54.1667 145.833C54.1575 136.632 46.7009 129.176 37.5 129.167ZM37.5 154.167C32.8976 154.167 29.1667 150.436 29.1667 145.833C29.1667 141.231 32.8976 137.5 37.5 137.5C42.1024 137.5 45.8333 141.231 45.8333 145.833C45.8274 150.433 42.0999 154.161 37.5 154.167Z" fill="#013475"/>
<path d="M100 129.167C90.7952 129.167 83.3333 136.629 83.3333 145.833C83.3333 155.038 90.7952 162.5 100 162.5C109.205 162.5 116.667 155.038 116.667 145.833C116.657 136.632 109.201 129.176 100 129.167ZM100 154.167C95.3976 154.167 91.6667 150.436 91.6667 145.833C91.6667 141.231 95.3976 137.5 100 137.5C104.602 137.5 108.333 141.231 108.333 145.833C108.327 150.433 104.6 154.161 100 154.167Z" fill="#013475"/>
<path d="M162.5 129.167C153.295 129.167 145.833 136.629 145.833 145.833C145.833 155.038 153.295 162.5 162.5 162.5C171.705 162.5 179.167 155.038 179.167 145.833C179.157 136.632 171.701 129.176 162.5 129.167ZM162.5 154.167C157.898 154.167 154.167 150.436 154.167 145.833C154.167 141.231 157.898 137.5 162.5 137.5C167.102 137.5 170.833 141.231 170.833 145.833C170.827 150.433 167.1 154.161 162.5 154.167Z" fill="#013475"/>
<path d="M91.6667 100H108.333C109.439 100.001 110.499 99.5619 111.28 98.7803C112.062 97.9988 112.501 96.9386 112.5 95.8333V41.6667C112.501 40.5614 112.062 39.5012 111.28 38.7197C110.499 37.9381 109.439 37.4994 108.333 37.5H91.6667C90.5614 37.4994 89.5012 37.9381 88.7197 38.7197C87.9381 39.5012 87.4994 40.5614 87.5 41.6667V95.8333C87.4994 96.9386 87.9381 97.9988 88.7197 98.7803C89.5012 99.5619 90.5614 100.001 91.6667 100ZM95.8333 45.8333H104.167V91.6667H95.8333V45.8333Z" fill="#013475"/>
<path d="M37.5 100C38.6053 100.001 39.6654 99.5619 40.447 98.7803C41.2285 97.9988 41.6673 96.9386 41.6667 95.8333V41.6667C41.6667 39.3655 39.8012 37.5 37.5 37.5C35.1988 37.5 33.3333 39.3655 33.3333 41.6667V95.8333C33.3327 96.9386 33.7715 97.9988 34.553 98.7803C35.3346 99.5619 36.3947 100.001 37.5 100Z" fill="#013475"/>
<path d="M162.5 100C163.605 100.001 164.665 99.5619 165.447 98.7803C166.229 97.9988 166.667 96.9386 166.667 95.8333V41.6667C166.667 39.3655 164.801 37.5 162.5 37.5C160.199 37.5 158.333 39.3655 158.333 41.6667V95.8333C158.333 96.9386 158.771 97.9988 159.553 98.7803C160.335 99.5619 161.395 100.001 162.5 100Z" fill="#013475"/>
<path d="M187.5 0H12.5C5.59956 0.00753213 0.00753213 5.59956 0 12.5V187.5C0.00753213 194.4 5.59956 199.992 12.5 200H187.5C194.4 199.992 199.992 194.4 200 187.5V12.5C199.992 5.59956 194.4 0.00753213 187.5 0ZM129.167 8.33333V191.667H70.8333V8.33333H129.167ZM8.33333 187.5V12.5C8.3349 10.1995 10.1995 8.3349 12.5 8.33333H62.5V191.667H12.5C10.1995 191.665 8.3349 189.801 8.33333 187.5ZM191.667 187.5C191.665 189.801 189.801 191.665 187.5 191.667H137.5V8.33333H187.5C189.801 8.3349 191.665 10.1995 191.667 12.5V187.5Z" fill="#013475"/>
</svg>
