<svg width="180" height="180" viewBox="0 0 180 180" fill="none" xmlns="http://www.w3.org/2000/svg">
<path fill-rule="evenodd" clip-rule="evenodd" d="M161.174 166.939C160.651 166.939 160.129 166.743 159.728 166.343C156.127 162.775 154.224 158.646 154.224 154.403C154.224 150.175 156.126 146.043 159.725 142.464C160.53 141.664 161.831 141.668 162.632 142.471C163.432 143.277 163.429 144.58 162.624 145.379C159.778 148.209 158.335 151.245 158.335 154.403C158.335 157.572 159.777 160.605 162.621 163.424C163.427 164.224 163.434 165.526 162.635 166.333C162.233 166.736 161.704 166.939 161.174 166.939Z" fill="#013475"/>
<path fill-rule="evenodd" clip-rule="evenodd" d="M9.42279 120.343C8.26533 120.343 7.17004 120.796 6.33912 121.624C5.44787 122.516 4.99873 123.715 5.08177 124.993C5.23183 127.266 7.2246 129.05 9.6184 129.05L149.511 129.05C149.554 129.046 149.598 129.046 149.643 129.046C161.355 129.046 170.883 119.519 170.883 107.804C170.883 96.0922 161.355 86.5645 149.643 86.5645L9.41853 86.5644C8.26096 86.5644 7.1659 87.0178 6.33474 87.8456C5.44395 88.7377 4.99469 89.9368 5.07763 91.2106C5.22792 93.4871 7.22057 95.2714 9.61437 95.2714H147.452C150.842 95.2714 154.017 96.6025 156.393 99.0218C158.77 101.438 160.046 104.635 159.987 108.025C159.87 114.815 154.248 120.343 147.452 120.343L9.42279 120.343ZM26.4408 133.161C26.399 133.164 26.3568 133.164 26.3143 133.164C14.6023 133.164 5.07405 142.692 5.07405 154.403C5.07405 166.118 14.6023 175.646 26.3143 175.646H166.347C168.741 175.646 170.733 173.862 170.884 171.585C170.967 170.311 170.518 169.112 169.619 168.213C168.795 167.392 167.7 166.939 166.543 166.939H28.5132C21.7178 166.939 16.0949 161.412 15.9786 154.621C15.9197 151.231 17.1957 148.034 19.572 145.618C21.9484 143.199 25.124 141.868 28.5131 141.868L166.351 141.868C168.745 141.868 170.738 140.084 170.888 137.807C170.971 136.533 170.522 135.334 169.623 134.431C168.8 133.614 167.705 133.161 166.547 133.161L26.4408 133.161ZM166.347 179.757H26.3143C12.3356 179.757 0.96334 168.384 0.96334 154.403C0.96334 145.522 5.55707 137.689 12.4941 133.161L9.61839 133.16C5.06653 133.16 1.27188 129.689 0.979733 125.26C0.821022 122.823 1.71608 120.439 3.43502 118.712C5.04889 117.11 7.17269 116.232 9.42278 116.232H147.452C152.019 116.232 155.798 112.517 155.876 107.954C155.916 105.677 155.059 103.529 153.461 101.902C151.864 100.278 149.73 99.3821 147.452 99.3821H9.61426C5.0624 99.3821 1.26775 95.9101 0.975721 91.4818C0.816895 89.0445 1.71172 86.6608 3.43066 84.9338C5.04453 83.3316 7.16834 82.4537 9.41843 82.4537L149.642 82.4535C163.621 82.4535 174.994 93.8262 174.994 107.804C174.994 116.689 170.399 124.522 163.462 129.05L166.546 129.05C168.797 129.05 170.921 129.928 172.527 131.523C174.253 133.257 175.148 135.641 174.99 138.074C174.697 142.506 170.903 145.978 166.351 145.978L28.5129 145.978C26.2351 145.978 24.1011 146.874 22.5037 148.497C20.9066 150.121 20.0489 152.273 20.0887 154.55C20.1668 159.113 23.9457 162.828 28.5128 162.828H166.543C168.793 162.828 170.917 163.706 172.522 165.301C174.249 167.035 175.144 169.419 174.986 171.853C174.693 176.285 170.899 179.757 166.347 179.757Z" fill="#013475"/>
<path fill-rule="evenodd" clip-rule="evenodd" d="M14.7909 120.347C14.2617 120.347 13.7328 120.143 13.3308 119.74C12.5319 118.934 12.5377 117.631 13.3442 116.832C16.1883 114.016 17.6304 110.98 17.6304 107.815C17.6304 104.656 16.1874 101.62 13.3414 98.7865C12.5365 97.9871 12.5331 96.6846 13.3337 95.8818C14.1344 95.0753 15.4359 95.0717 16.2404 95.8711C19.8391 99.4535 21.741 103.582 21.741 107.815C21.741 112.057 19.838 116.186 16.2375 119.754C15.8368 120.15 15.3138 120.347 14.7909 120.347Z" fill="#013475"/>
<path fill-rule="evenodd" clip-rule="evenodd" d="M42.643 48.604C42.4018 48.604 42.1566 48.5612 41.9171 48.4721L8.73752 35.9435C7.93762 35.6435 7.40832 34.8765 7.40808 34.0236C7.40808 33.1672 7.93739 32.4001 8.73729 32.1003L92.7265 0.377313C93.1946 0.198878 93.711 0.198994 94.1792 0.377313L178.173 32.1003C178.973 32.4001 179.502 33.1673 179.502 34.0237C179.502 34.8766 178.972 35.6438 178.172 35.9436L144.984 48.4721C143.922 48.8717 142.737 48.3365 142.335 47.2732C141.935 46.2132 142.471 45.0252 143.533 44.6255L171.627 34.0201L93.4528 4.49522L15.2819 34.0201L43.3693 44.6254C44.4316 45.0286 44.9672 46.2133 44.5661 47.2732C44.2557 48.0976 43.4733 48.604 42.643 48.604Z" fill="#013475"/>
<path fill-rule="evenodd" clip-rule="evenodd" d="M9.4636 59.8801C8.32829 59.8801 7.40832 58.9595 7.40832 57.8247L7.40808 34.0236C7.40808 32.8888 8.32829 31.961 9.4636 31.961C10.5987 31.961 11.5189 32.8818 11.5189 34.0164V57.8247C11.5189 58.9593 10.5987 59.8802 9.4636 59.8801Z" fill="#013475"/>
<path fill-rule="evenodd" clip-rule="evenodd" d="M9.4636 59.8801C6.78674 59.8801 4.60873 62.0604 4.60873 64.7367C4.60873 67.4129 6.78673 69.5933 9.4636 69.5933C12.1403 69.5932 14.3184 67.4131 14.3184 64.7367C14.3184 62.0603 12.1404 59.8802 9.4636 59.8801ZM9.4636 73.7039C4.51993 73.7039 0.498047 69.6824 0.498047 64.7366C0.498047 59.7942 4.51993 55.7729 9.4636 55.7729C14.4073 55.7728 18.429 59.7944 18.429 64.7366C18.429 69.6824 14.4073 73.704 9.4636 73.7039Z" fill="#013475"/>
<path fill-rule="evenodd" clip-rule="evenodd" d="M144.258 86.5716C143.123 86.5716 142.203 85.6509 142.203 84.5162V41.5813C142.092 41.3707 140.506 38.8943 127.973 36.6927C118.622 35.051 106.364 34.1484 93.4568 34.1484C80.5501 34.1482 68.2908 35.0511 58.9381 36.6927C46.4017 38.8942 44.8141 41.3708 44.7026 41.5813V84.5162C44.7026 85.6509 43.7823 86.5716 42.6472 86.5716C41.5122 86.5716 40.5918 85.6509 40.5918 84.5162V41.5383C40.5918 39.126 42.3089 35.5971 57.1553 32.8387C66.8731 31.0329 79.7654 30.0375 93.4568 30.0375C107.148 30.0374 120.039 31.0331 129.754 32.8387C144.597 35.597 146.314 39.1262 146.314 41.5385V84.5162C146.314 85.6508 145.394 86.5716 144.258 86.5716Z" fill="#013475"/>
<path fill-rule="evenodd" clip-rule="evenodd" d="M144.258 73.5899H42.6433C41.5081 73.5899 40.5879 72.6693 40.5879 71.5346C40.5879 70.3999 41.5081 69.4792 42.6433 69.4792L144.258 69.4791C145.394 69.4791 146.314 70.3999 146.314 71.5346C146.314 72.6693 145.394 73.59 144.258 73.5899Z" fill="#013475"/>
</svg>
