<svg width="207" height="200" viewBox="0 0 207 200" fill="none" xmlns="http://www.w3.org/2000/svg">
<path d="M62.8229 69.2344C81.9164 69.2344 97.4401 53.7107 97.4401 34.6172C97.4401 15.5237 81.9164 0 62.8229 0C43.7295 0 28.2057 15.5237 28.2057 34.6172C28.2057 53.7107 43.7295 69.2344 62.8229 69.2344ZM62.8229 6.05918C78.5815 6.05918 91.3809 18.8821 91.3809 34.6172C91.3809 50.3523 78.558 63.1752 62.8229 63.1752C47.0878 63.1752 34.2649 50.3523 34.2649 34.6172C34.2649 18.8821 47.0878 6.05918 62.8229 6.05918Z" fill="#013475"/>
<path d="M206.623 118.671C206.247 114.96 204.509 109.277 198.333 103.1C191.874 96.6416 185.392 94.7863 181.094 94.387C177.478 94.0348 173.955 95.3499 171.395 97.9568L170.808 98.5674C169.046 98.2856 167.262 98.1447 165.5 98.1447H116.721C115.054 98.1447 113.692 99.5068 113.692 101.174C113.692 102.842 115.054 104.204 116.721 104.204H165.5C165.829 104.204 166.134 104.204 166.463 104.204C161.79 112.705 163.058 123.65 170.221 130.813C174.378 134.969 179.826 137.224 185.627 137.224C185.744 137.224 185.885 137.224 186.003 137.224C188.21 137.177 190.371 136.825 192.414 136.144V168.906C192.414 170.573 193.776 171.935 195.444 171.935C197.111 171.935 198.473 170.573 198.473 168.906V133.02C199.577 132.198 200.611 131.282 201.574 130.249C201.597 130.225 201.62 130.178 201.667 130.155L203.546 127.971C205.895 125.434 207.022 122.053 206.693 118.671H206.623ZM199.037 123.884C199.037 123.884 198.99 123.955 198.943 123.978L197.064 126.163C194.105 129.31 190.136 131.071 185.862 131.165C181.564 131.235 177.525 129.591 174.448 126.515C168.154 120.221 168.107 109.911 174.331 103.546L175.669 102.161C176.797 101.01 178.323 100.352 179.92 100.352C180.108 100.352 180.296 100.352 180.484 100.376C183.795 100.681 188.845 102.161 194.035 107.351C198.943 112.259 200.305 116.534 200.587 119.258C200.752 120.925 200.188 122.593 198.99 123.861L199.037 123.884Z" fill="#013475"/>
<path d="M89.6665 83.8187C96.4302 83.8187 102.818 86.0263 108.126 90.1832C108.69 90.6059 109.347 90.8173 109.981 90.8173C110.874 90.8173 111.766 90.418 112.353 89.6665C113.387 88.3513 113.152 86.449 111.837 85.4157C105.449 80.4133 97.7924 77.7595 89.643 77.7595H35.9558C16.1343 77.7595 0 93.8938 0 113.715V155.355C0 157.022 1.36214 158.384 3.02959 158.384C4.69704 158.384 6.05918 157.022 6.05918 155.355V113.715C6.05918 97.2287 19.4927 83.7952 35.9793 83.7952H89.6665V83.8187Z" fill="#013475"/>
<path d="M31.2353 122.194C29.5679 122.194 28.2057 123.556 28.2057 125.223V155.355C28.2057 157.022 29.5679 158.384 31.2353 158.384C32.9028 158.384 34.2649 157.022 34.2649 155.355V125.223C34.2649 123.556 32.9028 122.194 31.2353 122.194Z" fill="#013475"/>
<path d="M141.968 90.0423C158.572 90.0423 172.1 76.5383 172.1 59.9108C172.1 43.2832 158.596 29.7792 141.968 29.7792C125.341 29.7792 111.837 43.2832 111.837 59.9108C111.837 76.5383 125.341 90.0423 141.968 90.0423ZM141.968 35.8149C155.261 35.8149 166.064 46.6181 166.064 59.9108C166.064 73.2034 155.261 84.0066 141.968 84.0066C128.675 84.0066 117.872 73.2034 117.872 59.9108C117.872 46.6181 128.675 35.8149 141.968 35.8149Z" fill="#013475"/>
<path d="M169.798 143.87C168.131 143.87 166.768 145.232 166.768 146.9V168.906C166.768 170.573 168.131 171.935 169.798 171.935C171.465 171.935 172.828 170.573 172.828 168.906V146.9C172.828 145.232 171.465 143.87 169.798 143.87Z" fill="#013475"/>
<path d="M84.3354 100.47C70.8079 100.47 59.8168 111.484 59.8168 124.988C59.8168 138.492 70.8314 149.507 84.3354 149.507C97.8394 149.507 108.854 138.492 108.854 124.988C108.854 111.484 97.8394 100.47 84.3354 100.47ZM84.3354 143.495C74.1428 143.495 65.8525 135.204 65.8525 125.012C65.8525 114.819 74.1428 106.529 84.3354 106.529C94.5279 106.529 102.818 114.819 102.818 125.012C102.818 135.204 94.5279 143.495 84.3354 143.495Z" fill="#013475"/>
<path d="M62.8229 183.678C61.1555 183.678 59.7933 185.04 59.7933 186.707V196.97C59.7933 198.638 61.1555 200 62.8229 200C64.4904 200 65.8525 198.638 65.8525 196.97V186.707C65.8525 185.04 64.4904 183.678 62.8229 183.678Z" fill="#013475"/>
<path d="M66.0639 153.429C52.0197 153.429 40.6059 164.843 40.6059 178.887V196.97C40.6059 198.638 41.9681 200 43.6355 200C45.303 200 46.6651 198.638 46.6651 196.97V178.887C46.6651 168.178 55.3781 159.465 66.0874 159.465H102.63C113.34 159.465 122.053 168.178 122.053 178.887V196.97C122.053 198.638 123.415 200 125.082 200C126.75 200 128.112 198.638 128.112 196.97V178.887C128.112 164.843 116.698 153.429 102.654 153.429H66.0639Z" fill="#013475"/>
<path d="M105.848 183.678C104.18 183.678 102.818 185.04 102.818 186.707V196.97C102.818 198.638 104.18 200 105.848 200C107.515 200 108.877 198.638 108.877 196.97V186.707C108.877 185.04 107.515 183.678 105.848 183.678Z" fill="#013475"/>
</svg>
