<svg width="187" height="200" viewBox="0 0 187 200" fill="none" xmlns="http://www.w3.org/2000/svg">
<path d="M136.667 153.333V140C140.333 140 143.333 143 143.333 146.667H150C150 139.333 144 133.333 136.667 133.333V126.667H130V133.333C122.667 133.333 116.667 139.333 116.667 146.667C116.667 154 122.667 160 130 160V173.333C126.333 173.333 123.333 170.333 123.333 166.667H116.667C116.667 174 122.667 180 130 180V186.667H136.667V180C144 180 150 174 150 166.667C150 159.333 144 153.333 136.667 153.333ZM123.333 146.667C123.333 143 126.333 140 130 140V153.333C126.333 153.333 123.333 150.333 123.333 146.667ZM136.667 173.333V160C140.333 160 143.333 163 143.333 166.667C143.333 170.333 140.333 173.333 136.667 173.333Z" fill="#013475"/>
<path d="M179.667 150.333L153.333 119.333C157.333 118 160 114.333 160 110C160 105 156.333 101 151.333 100L161.333 73.3333H105.333L115.333 100C110.333 100.667 106.667 104.667 106.667 110C106.667 114.333 109.333 118 113.333 119.333L87 150.333C82.6667 155.667 80 162.667 80 170C80 186.667 93.3333 200 110 200H156.667C173.333 200 186.667 186.667 186.667 169.667C186.667 162.667 184 155.667 179.667 150.333ZM152 80L144.333 100H122.333L114.667 80H152ZM116.667 106.667H150C152 106.667 153.333 108 153.333 110C153.333 112 152 113.333 150 113.333H116.667C114.667 113.333 113.333 112 113.333 110C113.333 108 114.667 106.667 116.667 106.667ZM156.667 193.333H110C97 193.333 86.6667 183 86.6667 169.667C86.6667 164 88.6667 158.667 92.3333 154.667L121.667 120H145.333L174.667 154.667C178.333 159 180.333 164.333 180.333 170C180 183 169.667 193.333 156.667 193.333Z" fill="#013475"/>
<path d="M81.6667 193.333H6.66667V6.66667H130V66.6667H136.667V0H0V200H89C86.3333 198 84 196 81.6667 193.333Z" fill="#013475"/>
<path d="M23.5007 64.5467L61.2127 26.8347L56.4987 22.1207L18.7867 59.8327L23.5007 64.5467Z" fill="#013475"/>
<path d="M26 39.3333C23.3333 39.3333 21 38.3333 19 36.3333C15 32.3333 15 26 19 22.3333C23 18.3333 29.3333 18.3333 33 22.3333C37 26.3333 37 32.6667 33 36.3333C31 38.3333 28.3333 39.3333 26 39.3333ZM26 26C25 26 24.3333 26.3333 23.6667 27C22.3333 28.3333 22.3333 30.3333 23.6667 31.6667C25 33 27 33 28.3333 31.6667C29.6667 30.3333 29.6667 28.3333 28.3333 27C27.6667 26.3333 26.6667 26 26 26Z" fill="#013475"/>
<path d="M54 67.3333C51.3333 67.3333 49 66.3333 47 64.3333C43 60.3333 43 54 47 50.3333C51 46.3333 57.3333 46.3333 61 50.3333C65 54.3333 65 60.6667 61 64.3333C59.3333 66.3333 56.6667 67.3333 54 67.3333ZM54 54C53 54 52.3333 54.3333 51.6667 55C50.3333 56.3333 50.3333 58.3333 51.6667 59.6667C53 61 55 61 56.3333 59.6667C57.6667 58.3333 57.6667 56.3333 56.3333 55C56 54.3333 55 54 54 54Z" fill="#013475"/>
</svg>
