<svg width="207" height="200" viewBox="0 0 207 200" fill="none" xmlns="http://www.w3.org/2000/svg">
<path d="M96.5919 173.304H93.2591V146.842C93.2591 141.476 90.6596 136.411 86.2936 133.278L53.6657 109.982C51.6327 108.549 49.3665 107.749 47.0668 107.482L37.6017 79.0202C36.1353 74.6209 33.0025 71.1215 28.8032 69.1885C24.6039 67.2555 19.9047 67.1221 15.6387 68.8552L12.106 70.255C10.5063 70.8882 9.63974 72.6546 10.1397 74.2876L12.106 81.0198C9.90636 80.9865 7.70672 81.3531 5.6404 82.1863L2.10766 83.5861C0.507924 84.2193 -0.358599 85.9857 0.141318 87.6187L15.6054 140.143C16.6052 143.509 18.5716 146.442 21.3711 148.609L46.7002 168.305V173.338H43.3674C41.5344 173.338 40.0347 174.838 40.0347 176.671V196.667C40.0347 198.5 41.5344 200 43.3674 200H96.5919C98.4249 200 99.9247 198.5 99.9247 196.667V176.671C99.9247 174.838 98.4249 173.338 96.5919 173.338V173.304ZM18.0383 75.0208C20.6046 73.9877 23.4374 74.0543 25.937 75.2208C28.4699 76.3873 30.3363 78.4869 31.2028 81.1198L40.268 108.282C38.0017 109.148 35.902 110.548 34.269 112.515L27.5368 92.318C26.1703 88.252 23.2708 84.9858 19.5714 82.9862L17.3051 75.2875L18.0383 74.9875V75.0208ZM51.966 164.006L25.3704 143.309C23.7041 142.01 22.5043 140.243 21.9044 138.244L7.34012 88.6186L8.04 88.3519C10.4396 87.3854 13.1058 87.3854 15.5054 88.3519C18.205 89.4518 20.3046 91.6514 21.2378 94.4509L31.5694 125.479C32.336 128.279 33.969 130.845 36.4019 132.778L61.1645 152.608C62.5976 153.741 64.6972 153.508 65.8637 152.075C67.0302 150.642 66.7969 148.542 65.3305 147.375L40.5679 127.545C39.4681 126.679 38.7016 125.579 38.235 124.346C38.235 124.246 38.1683 124.146 38.135 124.046L37.9683 123.513C37.3685 121.246 37.835 118.78 39.4014 116.814C41.9344 113.648 46.5003 113.014 49.7997 115.381L82.4276 138.677C85.0605 140.543 86.6269 143.576 86.6269 146.809V173.271H53.2991V166.606C53.2991 165.572 52.8325 164.606 51.9993 163.973L51.966 164.006ZM93.2591 193.301H46.6002V179.97H93.2591V193.301Z" fill="#013475"/>
<path d="M204.474 83.5527L200.941 82.153C198.875 81.3198 196.675 80.9532 194.476 80.9865L196.442 74.2543C196.942 72.5879 196.075 70.8549 194.476 70.2216L190.943 68.8219C186.644 67.0888 181.944 67.1888 177.745 69.1551C173.546 71.0882 170.413 74.5876 168.947 78.9868L159.481 107.449C157.182 107.715 154.882 108.515 152.883 109.948L120.255 133.244C115.889 136.377 113.289 141.443 113.289 146.809V173.271H109.956C108.123 173.271 106.624 174.771 106.624 176.604V196.601C106.624 198.434 108.123 199.933 109.956 199.933H163.281C165.114 199.933 166.614 198.434 166.614 196.601V176.604C166.614 174.771 165.114 173.271 163.281 173.271H159.948V168.239L185.277 148.542C188.043 146.376 190.043 143.476 191.043 140.077L206.507 87.5521C207.007 85.8857 206.14 84.1526 204.541 83.5194L204.474 83.5527ZM175.279 81.1198C176.179 78.4869 178.045 76.3873 180.578 75.2208C183.111 74.0543 185.91 73.9877 188.51 75.0208L189.21 75.2875L186.944 82.9862C183.211 84.9858 180.345 88.252 178.978 92.318L172.246 112.515C170.613 110.515 168.513 109.115 166.247 108.282L175.279 81.1198ZM159.915 193.301H113.256V179.97H159.915V193.301ZM184.577 138.244C183.977 140.277 182.778 142.01 181.111 143.309L154.516 164.006C153.716 164.639 153.216 165.606 153.216 166.639V173.304H119.888V146.842C119.888 143.609 121.454 140.577 124.087 138.71L156.715 115.414C160.015 113.048 164.581 113.681 167.113 116.847C168.68 118.814 169.113 121.28 168.547 123.546V123.646C168.547 123.646 168.413 124.046 168.38 124.079C168.313 124.213 168.28 124.346 168.247 124.479C167.78 125.646 167.014 126.712 165.947 127.579L141.184 147.409C139.751 148.575 139.518 150.642 140.651 152.108C141.784 153.541 143.884 153.774 145.35 152.641L170.113 132.811C172.513 130.878 174.146 128.312 174.912 125.546L185.277 94.4843C186.21 91.6847 188.31 89.4851 190.976 88.3853C193.409 87.4188 196.075 87.4188 198.475 88.3853L199.175 88.6519L184.577 138.277V138.244Z" fill="#013475"/>
<path d="M166.58 41.3264V37.4604C166.58 16.7972 149.783 0 129.12 0H127.42C118.488 0 110.023 3.09948 103.291 8.79853C96.5586 3.09948 88.0933 0 79.1615 0H77.4618C56.7985 0 40.0013 16.7972 40.0013 37.4604V41.3264C40.0013 52.0247 44.6006 62.223 52.5659 69.3218L101.091 112.448C101.724 113.015 102.524 113.281 103.291 113.281C104.057 113.281 104.891 113.015 105.49 112.448L154.016 69.3218C162.014 62.223 166.58 52.0247 166.58 41.3264ZM149.583 64.3559L103.257 105.516L56.9319 64.3559C50.3663 58.5236 46.6002 50.125 46.6002 41.3264V37.4604C46.6002 20.4633 60.4313 6.66556 77.3951 6.66556H79.0948C87.3268 6.66556 95.0588 9.86502 100.891 15.6974C102.191 16.9972 104.291 16.9972 105.59 15.6974C111.423 9.86502 119.155 6.66556 127.387 6.66556H129.087C146.084 6.66556 159.881 20.4966 159.881 37.4604V41.3264C159.881 50.125 156.115 58.5236 149.55 64.3559H149.583Z" fill="#013475"/>
<path d="M123.254 39.9933H113.256V29.995C113.256 28.162 111.756 26.6622 109.923 26.6622H96.5919C94.7589 26.6622 93.2591 28.162 93.2591 29.995V39.9933H83.2608C81.4278 39.9933 79.928 41.4931 79.928 43.3261V56.6572C79.928 58.4903 81.4278 59.99 83.2608 59.99H93.2591V69.9883C93.2591 71.8214 94.7589 73.3211 96.5919 73.3211H109.923C111.756 73.3211 113.256 71.8214 113.256 69.9883V59.99H123.254C125.087 59.99 126.587 58.4903 126.587 56.6572V43.3261C126.587 41.4931 125.087 39.9933 123.254 39.9933ZM119.921 53.3244H109.923C108.09 53.3244 106.59 54.8242 106.59 56.6572V66.6556H99.9247V56.6572C99.9247 54.8242 98.4249 53.3244 96.5919 53.3244H86.5936V46.6589H96.5919C98.4249 46.6589 99.9247 45.1591 99.9247 43.3261V33.3278H106.59V43.3261C106.59 45.1591 108.09 46.6589 109.923 46.6589H119.921V53.3244Z" fill="#013475"/>
</svg>
