<svg width="188" height="200" viewBox="0 0 188 200" fill="none" xmlns="http://www.w3.org/2000/svg">
<path d="M48.4449 95.7208C48.4449 96.9626 49.4577 97.9753 50.6994 97.9753H114.45C115.701 97.9753 116.705 96.9626 116.705 95.7208C116.705 94.4791 115.701 93.4663 114.45 93.4663H50.6994C49.4577 93.4663 48.4449 94.4791 48.4449 95.7208Z" fill="#013475"/>
<path d="M50.6994 115.851H114.45C115.701 115.851 116.705 114.847 116.705 113.597C116.705 112.346 115.701 111.342 114.45 111.342H50.6994C49.4577 111.342 48.4449 112.346 48.4449 113.597C48.4449 114.839 49.4577 115.851 50.6994 115.851Z" fill="#013475"/>
<path d="M85.0356 131.608C85.0356 130.358 84.0228 129.354 82.7811 129.354H50.6994C49.4577 129.354 48.4449 130.358 48.4449 131.608C48.4449 132.859 49.4577 133.863 50.6994 133.863H82.7811C84.0316 133.863 85.0356 132.859 85.0356 131.608Z" fill="#013475"/>
<path d="M109.341 148.702C108.461 147.821 107.034 147.821 106.153 148.702L100.147 154.699L94.1409 148.702C93.2602 147.821 91.8336 147.821 90.9528 148.702L84.9465 154.69L78.9403 148.702C78.0596 147.821 76.633 147.821 75.7522 148.702L68.152 156.284C67.2714 157.165 67.2714 158.592 68.152 159.472C69.0327 160.353 70.4593 160.353 71.3401 159.472L77.3464 153.484L83.3526 159.472C83.5111 159.631 83.696 159.719 83.881 159.825C83.9603 159.869 84.0219 159.939 84.1012 159.966C84.1716 159.992 84.2597 159.992 84.3301 160.01C84.5327 160.071 84.7353 160.133 84.9466 160.133C85.1844 160.133 85.4134 160.071 85.6423 160.001C85.6864 159.983 85.7392 159.992 85.792 159.974C85.8625 159.948 85.9241 159.878 85.9946 159.842C86.1883 159.737 86.3733 159.64 86.5406 159.481L92.5469 153.493L98.5531 159.481C98.7028 159.631 98.8878 159.728 99.0727 159.825C99.152 159.869 99.2136 159.939 99.3017 159.974C99.4778 160.045 99.6715 160.054 99.8565 160.08C99.9533 160.098 100.05 160.133 100.147 160.133C100.226 160.133 100.297 160.098 100.376 160.089C100.587 160.071 100.799 160.045 100.993 159.966C101.045 159.948 101.089 159.895 101.142 159.869C101.354 159.763 101.565 159.649 101.741 159.472L107.747 153.484L113.754 159.472C113.903 159.622 114.088 159.719 114.273 159.816C114.352 159.86 114.414 159.93 114.502 159.966C114.678 160.036 114.872 160.045 115.057 160.071C115.154 160.089 115.251 160.124 115.348 160.124C115.427 160.124 115.497 160.089 115.577 160.08C115.788 160.063 115.999 160.036 116.193 159.957C116.246 159.939 116.29 159.886 116.343 159.86C116.554 159.754 116.765 159.64 116.942 159.464L122.948 153.475L128.954 159.464C129.394 159.904 129.967 160.124 130.548 160.124C131.129 160.124 131.702 159.904 132.142 159.464C133.023 158.583 133.023 157.156 132.142 156.276L124.551 148.693C123.67 147.812 122.243 147.812 121.363 148.693L115.356 154.69L109.341 148.702Z" fill="#013475"/>
<path d="M110.002 63.6369C111.253 63.6369 112.257 62.6241 112.257 61.3824V58.4146C112.257 57.4194 112.626 56.4595 113.278 55.7637C113.895 55.1032 114.705 54.7422 115.568 54.7422H126.699C127.554 54.7422 128.373 55.1032 128.989 55.7637C129.641 56.4594 130.011 57.4194 130.011 58.4146V61.3824C130.011 62.6241 131.015 63.6369 132.265 63.6369C133.516 63.6369 134.52 62.6241 134.52 61.3824V58.4146C134.52 56.2569 133.727 54.2225 132.283 52.6814C130.803 51.0962 128.822 50.2244 126.699 50.2244H115.568C113.454 50.2244 111.464 51.0963 109.984 52.6814C108.54 54.2225 107.747 56.2568 107.747 58.4146V61.3824C107.747 62.6241 108.751 63.6369 110.002 63.6369Z" fill="#013475"/>
<path d="M120.623 44.2459C125.431 44.2459 129.342 40.3357 129.342 35.5272C129.342 30.7188 125.431 26.8086 120.623 26.8086C115.815 26.8086 111.904 30.7188 111.904 35.5272C111.904 40.3357 115.815 44.2459 120.623 44.2459ZM120.623 31.3264C122.948 31.3264 124.833 33.211 124.833 35.536C124.833 37.8521 122.948 39.7456 120.623 39.7456C118.307 39.7456 116.413 37.861 116.413 35.536C116.413 33.211 118.298 31.3264 120.623 31.3264Z" fill="#013475"/>
<path d="M185.679 14.6103H149.555V2.25451C149.555 1.01277 148.551 0 147.301 0H17.8512C16.6095 0 15.5967 1.01277 15.5967 2.25451V16.9088L2.25451 16.9C1.01277 16.9 0 17.9128 0 19.1545V197.745C0 198.996 1.01277 200 2.25451 200H131.704C132.954 200 133.958 198.996 133.958 197.745V183.091H147.292C148.542 183.091 149.546 182.087 149.546 180.837L149.555 76.9895H185.672C186.923 76.9895 187.927 75.9767 187.927 74.7349V16.8662C187.936 15.6245 186.923 14.6117 185.681 14.6117L185.679 14.6103ZM129.456 195.499H4.50676V21.4077H15.5856V180.844C15.5856 182.095 16.5984 183.099 17.8402 183.099H129.447L129.456 195.499ZM145.044 178.59H20.1037V4.50789H145.044V14.618H96.642C95.4003 14.618 94.3875 15.6308 94.3875 16.8725V29.5541H50.6974C49.4556 29.5541 48.4429 30.5669 48.4429 31.8087C48.4429 33.0504 49.4556 34.0632 50.6974 34.0632H94.3875V48.2508H50.6974C49.4556 48.2508 48.4429 49.2636 48.4429 50.5053C48.4429 51.747 49.4556 52.7598 50.6974 52.7598H94.3875V66.2605H50.6974C49.4556 66.2605 48.4429 67.2732 48.4429 68.515C48.4429 69.7567 49.4556 70.7695 50.6974 70.7695H94.3875V74.7325C94.3875 75.9742 95.4003 76.987 96.642 76.987H145.044V178.59ZM183.423 72.4791H98.8965V19.1194H183.414L183.423 72.4791Z" fill="#013475"/>
<path d="M145.607 41.3736H167.871C169.121 41.3736 170.125 40.3609 170.125 39.1191C170.125 37.8774 169.121 36.8646 167.871 36.8646H145.607C144.357 36.8646 143.353 37.8774 143.353 39.1191C143.353 40.3697 144.366 41.3736 145.607 41.3736Z" fill="#013475"/>
<path d="M145.607 54.7339H163.415C164.665 54.7339 165.669 53.7211 165.669 52.4793C165.669 51.2376 164.665 50.2248 163.415 50.2248H145.607C144.357 50.2248 143.353 51.2376 143.353 52.4793C143.353 53.7211 144.366 54.7339 145.607 54.7339Z" fill="#013475"/>
</svg>
