<svg width="200" height="200" viewBox="0 0 200 200" fill="none" xmlns="http://www.w3.org/2000/svg">
<path d="M196.664 0H69.9989C68.1581 0 66.6656 1.49249 66.6656 3.33328V26.1965C61.3536 24.3071 55.7723 23.333 49.9992 23.333C22.4297 23.333 0 45.7626 0 73.3322C0 100.902 22.4297 123.331 49.9992 123.331C55.7731 123.331 61.3553 122.357 66.6656 120.468V196.664C66.6656 198.132 67.6275 199.429 69.0338 199.854C70.4367 200.287 71.9585 199.735 72.7723 198.513L83.6299 182.227L97.4383 198.797C98.7045 200.318 101.292 200.318 102.559 198.797L116.665 181.871L130.771 198.797C132.037 200.318 134.625 200.318 135.891 198.797L149.998 181.871L164.104 198.797C165.37 200.318 167.958 200.318 169.224 198.797L183.033 182.227L193.89 198.513C194.52 199.457 195.57 199.997 196.664 199.997C196.986 199.997 197.31 199.951 197.629 199.854C199.035 199.429 199.997 198.132 199.997 196.664V3.33329C199.997 1.49249 198.504 0 196.664 0ZM6.66656 73.3322C6.66656 49.4377 26.1047 29.9995 49.9992 29.9995C56.5226 29.9995 62.7676 31.4041 68.5667 34.1759C83.6104 41.3324 93.3319 56.7016 93.3319 73.3322C93.3319 77.4899 92.7242 81.5688 91.5778 85.4601C88.1381 97.1343 79.8482 107.122 68.5618 112.49C62.7676 115.26 56.5226 116.665 49.9992 116.665C26.1047 116.665 6.66656 97.2267 6.66656 73.3322ZM193.33 185.655L186.104 174.815C185.521 173.939 184.558 173.391 183.508 173.336C182.46 173.279 181.441 173.723 180.77 174.53L166.664 191.457L152.558 174.53C151.925 173.77 150.987 173.331 149.998 173.331C149.008 173.331 148.071 173.77 147.438 174.53L133.331 191.457L119.225 174.53C117.959 173.01 115.371 173.01 114.105 174.53L99.9985 191.457L85.8922 174.53C85.2184 173.723 84.1784 173.277 83.1546 173.336C82.1049 173.391 81.1413 173.939 80.5587 174.815L73.3322 185.655V117.554C73.5637 117.431 73.7816 117.289 74.0107 117.164C74.4768 116.907 74.9344 116.641 75.3905 116.37C75.9402 116.045 76.4836 115.712 77.0183 115.367C77.4626 115.08 77.8996 114.785 78.3334 114.485C78.8534 114.125 79.3656 113.757 79.87 113.379C80.2925 113.062 80.7092 112.739 81.1206 112.41C81.6111 112.017 82.0922 111.615 82.5667 111.205C82.964 110.861 83.3567 110.514 83.7424 110.159C84.2032 109.734 84.6528 109.3 85.0968 108.86C85.4687 108.491 85.8373 108.119 86.197 107.739C86.6261 107.286 87.0415 106.823 87.4529 106.354C87.7979 105.962 88.1411 105.569 88.4736 105.166C88.8705 104.685 89.252 104.193 89.6304 103.698C89.9469 103.284 90.2637 102.871 90.5673 102.448C90.9314 101.94 91.2777 101.42 91.6225 100.899C91.9086 100.467 92.1969 100.038 92.4695 99.5971C92.7993 99.064 93.1087 98.52 93.4186 97.9752C93.6741 97.5256 93.9339 97.0796 94.1756 96.6225C94.4698 96.066 94.741 95.4986 95.0144 94.9314C95.2378 94.4678 95.4677 94.0086 95.6768 93.538C95.9348 92.9582 96.1667 92.3676 96.4027 91.7778C96.5924 91.3037 96.7911 90.834 96.9665 90.3538C97.187 89.7496 97.3793 89.135 97.5766 88.5218C97.7312 88.0417 97.8975 87.5658 98.0378 87.0806C98.2216 86.4452 98.3729 85.8001 98.5316 85.1566C98.6486 84.6819 98.7798 84.212 98.883 83.733C99.0301 83.0505 99.1409 82.359 99.2593 81.6687C99.3367 81.218 99.4315 80.7719 99.4964 80.3182C99.606 79.5524 99.6752 78.7783 99.7488 78.0048C99.7859 77.6176 99.8428 77.2347 99.8707 76.8457C99.9539 75.6812 99.9985 74.5096 99.9985 73.3322C99.9985 72.1549 99.9539 70.9832 99.8707 69.8187C99.8428 69.4297 99.7859 69.0468 99.7488 68.6596C99.6752 67.8861 99.606 67.112 99.4964 66.3462C99.4315 65.8925 99.3367 65.4464 99.2593 64.9958C99.1409 64.3055 99.0301 63.6139 98.883 62.9314C98.7798 62.4527 98.6486 61.9825 98.5316 61.5078C98.3729 60.8643 98.2216 60.2192 98.0378 59.5838C97.8971 59.0966 97.7302 58.6189 97.5748 58.1369C97.3781 57.5266 97.1874 56.9148 96.9677 56.3134C96.7905 55.8282 96.5897 55.3534 96.3979 54.8742C96.1639 54.2899 95.9338 53.7042 95.6783 53.1297C95.4669 52.6542 95.2347 52.19 95.0089 51.7214C94.7379 51.1597 94.4696 50.5976 94.1782 50.0466C93.9333 49.5832 93.67 49.1307 93.4106 48.6752C93.1047 48.1375 92.7993 47.6004 92.474 47.0745C92.1965 46.6263 91.9033 46.1887 91.6122 45.7492C91.2724 45.2363 90.9314 44.7249 90.573 44.2246C90.2637 43.7933 89.941 43.3725 89.6184 42.9508C89.2467 42.4652 88.8727 41.9824 88.4836 41.5102C88.1428 41.0968 87.7906 40.6936 87.4366 40.2909C87.0346 39.8338 86.6291 39.3813 86.2104 38.9386C85.841 38.5478 85.4622 38.1667 85.0799 37.7875C84.6465 37.3576 84.2077 36.9338 83.7581 36.5194C83.3618 36.154 82.9583 35.7974 82.5498 35.4444C82.087 35.0446 81.6178 34.6528 81.1397 34.2695C80.7163 33.9301 80.2875 33.5979 79.8521 33.2718C79.3616 32.9042 78.8635 32.5467 78.3584 32.1964C77.9106 31.8859 77.4587 31.5815 76.9998 31.2851C76.4793 30.9492 75.9504 30.6262 75.4159 30.3088C74.9472 30.0305 74.4764 29.7564 73.9969 29.493C73.7725 29.3697 73.5591 29.2309 73.3322 29.1109V6.66656H193.33V185.655Z" fill="#013475"/>
<path d="M69.0224 54.3091C67.7203 53.007 65.611 53.007 64.3089 54.3091L29.3094 89.3085C28.0074 90.6106 28.0074 92.7199 29.3094 94.022C29.9605 94.673 30.8133 94.9985 31.6662 94.9985C32.519 94.9985 33.3719 94.673 34.0229 94.022L69.0224 59.0225C70.3244 57.7205 70.3244 55.6111 69.0224 54.3091Z" fill="#013475"/>
<path d="M44.9993 63.3324C51.4315 63.3324 56.6658 58.0981 56.6658 51.6659C56.6658 45.2337 51.4315 39.9994 44.9993 39.9994C38.5671 39.9994 33.3328 45.2337 33.3328 51.6659C33.3328 58.0981 38.5671 63.3324 44.9993 63.3324ZM44.9993 46.666C47.7564 46.666 49.9992 48.9088 49.9992 51.6659C49.9992 54.423 47.7564 56.6658 44.9993 56.6658C42.2422 56.6658 39.9994 54.423 39.9994 51.6659C39.9994 48.9088 42.2422 46.666 44.9993 46.666Z" fill="#013475"/>
<path d="M51.6659 86.6653C45.2337 86.6653 39.9994 91.8996 39.9994 98.3318C39.9994 104.764 45.2337 109.998 51.6659 109.998C58.0981 109.998 63.3324 104.764 63.3324 98.3318C63.3324 91.8996 58.0981 86.6653 51.6659 86.6653ZM51.6659 103.332C48.9088 103.332 46.666 101.089 46.666 98.3318C46.666 95.5747 48.9088 93.3319 51.6659 93.3319C54.423 93.3319 56.6658 95.5747 56.6658 98.3318C56.6658 101.089 54.423 103.332 51.6659 103.332Z" fill="#013475"/>
<path d="M136.665 36.6661H169.997C171.838 36.6661 173.331 35.1736 173.331 33.3328C173.331 31.492 171.838 29.9995 169.997 29.9995H136.665C134.824 29.9995 133.331 31.492 133.331 33.3328C133.331 35.1736 134.824 36.6661 136.665 36.6661Z" fill="#013475"/>
<path d="M169.997 49.9992H153.331C151.49 49.9992 149.998 51.4917 149.998 53.3325C149.998 55.1733 151.49 56.6658 153.331 56.6658H169.997C171.838 56.6658 173.331 55.1733 173.331 53.3325C173.331 51.4917 171.838 49.9992 169.997 49.9992Z" fill="#013475"/>
<path d="M116.665 56.6658H136.666C138.507 56.6658 139.999 55.1733 139.999 53.3325C139.999 51.4917 138.507 49.9992 136.666 49.9992H116.665C114.824 49.9992 113.332 51.4917 113.332 53.3325C113.332 55.1733 114.824 56.6658 116.665 56.6658Z" fill="#013475"/>
<path d="M169.997 89.9986H143.331C141.49 89.9986 139.998 91.4911 139.998 93.3319C139.998 95.1727 141.49 96.6652 143.331 96.6652H169.997C171.838 96.6652 173.331 95.1727 173.331 93.3319C173.331 91.4911 171.838 89.9986 169.997 89.9986Z" fill="#013475"/>
<path d="M169.997 109.998H153.329C151.489 109.998 149.996 111.491 149.996 113.332C149.996 115.172 151.489 116.665 153.329 116.665H169.997C171.838 116.665 173.331 115.172 173.331 113.332C173.331 111.491 171.838 109.998 169.997 109.998Z" fill="#013475"/>
<path d="M113.332 116.665H133.33C135.17 116.665 136.663 115.172 136.663 113.332C136.663 111.491 135.17 109.998 133.33 109.998H113.332C111.491 109.998 109.998 111.491 109.998 113.332C109.998 115.172 111.491 116.665 113.332 116.665Z" fill="#013475"/>
<path d="M169.997 129.998H139.998C138.157 129.998 136.665 131.49 136.665 133.331C136.665 135.172 138.157 136.665 139.998 136.665H169.997C171.838 136.665 173.331 135.172 173.331 133.331C173.331 131.49 171.838 129.998 169.997 129.998Z" fill="#013475"/>
</svg>
