<svg width="184" height="200" viewBox="0 0 184 200" fill="none" xmlns="http://www.w3.org/2000/svg">
<path d="M180.98 45.0782H153.956C152.691 45.0782 151.656 44.0432 151.656 42.7783V15.7774C151.656 14.8574 152.208 14.0064 153.082 13.6615C153.933 13.3165 154.922 13.5005 155.589 14.1674L182.613 41.1914C183.28 41.8583 183.464 42.8473 183.119 43.6983C182.751 44.5262 181.9 45.0782 180.98 45.0782ZM156.256 40.4784H175.414L156.256 21.3201V40.4784Z" fill="#013475"/>
<path d="M179.554 200H21.7801C19.7102 200 18.0543 198.321 18.0543 196.274V105.267H22.6541V195.4H178.68V43.7443L153.013 18.0773H22.6541V77.9899H18.0543V17.2033C18.0543 15.1334 19.7332 13.4775 21.7801 13.4775H153.956C154.554 13.4775 155.152 13.7075 155.566 14.1444L155.589 14.1674L182.59 41.1684C183.027 41.6053 183.257 42.1803 183.257 42.8013V196.297C183.28 198.321 181.601 200 179.554 200Z" fill="#013475"/>
<path d="M22.6541 88.3165H18.0543V95.0782H22.6541V88.3165Z" fill="#013475"/>
<path d="M20.3542 181.164H3.72585C1.67893 181.164 0 179.485 0 177.438V3.72585C0 1.67893 1.67893 0 3.72585 0H145.469C147.516 0 149.195 1.67893 149.195 3.72585L149.172 15.7544H144.572L144.595 4.59982H4.57682V176.564H20.3542V181.164Z" fill="#013475"/>
<path d="M154.485 124.632H46.8721V129.232H154.485V124.632Z" fill="#013475"/>
<path d="M154.485 146.435H46.8721V151.035H154.485V146.435Z" fill="#013475"/>
<path d="M92.6633 168.261H46.8721V172.861H92.6633V168.261Z" fill="#013475"/>
<path d="M124.195 179.577C122.907 179.577 121.757 179.278 120.975 178.312C119.756 176.794 120.446 175.046 121.044 173.505C121.826 171.527 122.7 169.296 121.251 166.743C121.159 166.582 121.09 166.467 121.021 166.375C120.561 166.858 119.595 168.146 118.33 171.389C117.295 174.034 116.628 176.541 116.628 176.587L112.19 175.414C112.213 175.299 113.017 172.309 114.259 169.25C116.26 164.259 118.215 161.914 120.607 161.592C121.872 161.431 123.712 161.799 125.253 164.466C127.691 168.721 126.38 172.493 125.46 174.862C125.621 174.839 125.805 174.816 126.012 174.77C128.542 174.356 129.439 172.424 130.267 170.147C130.681 168.997 131.325 167.272 133.188 167.272H133.211C135.051 167.295 135.787 169.043 136.224 170.078C136.5 170.745 136.822 171.619 137.305 172.953C146.573 169.227 152.737 163.017 152.806 162.948L156.072 166.168C155.75 166.49 148.068 174.195 136.615 178.105C136.04 178.312 135.396 178.266 134.867 177.99C134.315 177.714 133.901 177.254 133.694 176.656C133.533 176.219 133.326 175.575 133.096 174.908C131.946 176.817 130.037 178.749 126.725 179.278C125.897 179.439 125.023 179.577 124.195 179.577Z" fill="#013475"/>
<path d="M180.98 45.0782H153.956C152.691 45.0782 151.656 44.0432 151.656 42.7783V15.7774C151.656 14.8574 152.208 14.0064 153.082 13.6615C153.933 13.3165 154.922 13.5005 155.589 14.1674L182.613 41.1914C183.28 41.8583 183.464 42.8473 183.119 43.6983C182.751 44.5262 181.9 45.0782 180.98 45.0782ZM156.256 40.4784H175.414L156.256 21.3201V40.4784Z" fill="#013475"/>
<path d="M114.857 107.567H52.8979V71.7111H46.9411C45.9522 71.7111 45.0322 71.0902 44.6872 70.1472C44.3422 69.2042 44.6182 68.1463 45.3772 67.5023L83.8547 34.3836L122.332 67.5023C123.091 68.1463 123.367 69.2272 123.022 70.1472C122.677 71.0902 121.78 71.7111 120.768 71.7111H114.857V107.567ZM57.4977 102.967H110.258V67.1113H114.857L83.8776 40.4784L52.8979 67.1113H57.4977V102.967Z" fill="#013475"/>
<path d="M71.8031 107.567V78.9098C71.8031 77.1389 73.2521 75.69 75.023 75.69H92.7553C94.5262 75.69 95.9752 77.1389 95.9752 78.9098V107.567H71.8031ZM76.4029 102.967H91.3523V80.2668H76.4029V102.967Z" fill="#013475"/>
<path d="M111.822 64.4894L99.264 53.6799V42.4793H110.488L111.086 43.1003L111.822 43.6983V64.4894ZM103.864 51.5869L107.222 54.4848V47.0791H103.864V51.5869Z" fill="#013475"/>
</svg>
