<svg width="251" height="200" viewBox="0 0 251 200" fill="none" xmlns="http://www.w3.org/2000/svg">
<path d="M219.759 157.61H133.091C131.359 157.61 129.955 159.015 129.955 160.747C129.955 162.479 131.359 163.884 133.091 163.884H219.759C221.491 163.884 222.896 162.479 222.896 160.747C222.896 159.015 221.491 157.61 219.759 157.61Z" fill="#013475"/>
<path d="M219.759 127.238H133.091C131.359 127.238 129.955 128.642 129.955 130.374C129.955 132.107 131.359 133.511 133.091 133.511H219.759C221.491 133.511 222.896 132.107 222.896 130.374C222.896 128.642 221.491 127.238 219.759 127.238Z" fill="#013475"/>
<path d="M219.759 96.8633H133.091C131.359 96.8633 129.955 98.2678 129.955 100C129.955 101.732 131.359 103.137 133.091 103.137H219.759C221.491 103.137 222.896 101.732 222.896 100C222.896 98.2678 221.491 96.8633 219.759 96.8633Z" fill="#013475"/>
<path d="M129.955 69.6257C129.955 71.3579 131.359 72.7624 133.091 72.7624H219.759C221.491 72.7624 222.896 71.3579 222.896 69.6257C222.896 67.8935 221.491 66.489 219.759 66.489H133.091C131.359 66.489 129.955 67.8935 129.955 69.6257Z" fill="#013475"/>
<path d="M133.091 42.3896H199.366C201.098 42.3896 202.503 40.9851 202.503 39.2529C202.503 37.5207 201.098 36.1162 199.366 36.1162H133.091C131.359 36.1162 129.955 37.5207 129.955 39.2529C129.955 40.9851 131.359 42.3896 133.091 42.3896Z" fill="#013475"/>
<path d="M250.898 38.6426C250.885 38.3196 250.823 38.0077 250.712 37.7043C250.696 37.6627 250.685 37.622 250.668 37.5812C250.513 37.2077 250.313 36.8516 250.015 36.5542L214.38 0.918949C214.081 0.619333 213.724 0.41793 213.348 0.263049C213.313 0.247733 213.276 0.238544 213.24 0.224568C212.931 0.110082 212.612 0.046713 212.282 0.0338862C212.224 0.0306316 212.171 0 212.112 0H105.051C103.319 0 101.914 1.40446 101.914 3.13668V196.863C101.914 198.596 103.319 200 105.051 200H247.798C249.53 200 250.934 198.596 250.934 196.863V38.8225C250.934 38.7601 250.902 38.7044 250.898 38.6426ZM215.299 10.7594L240.175 35.6353H215.299V10.7594ZM244.661 193.727H108.188V6.27336H209.026V38.772C209.026 40.5042 210.43 41.9087 212.162 41.9087H244.661V193.727Z" fill="#013475"/>
<path d="M80.7067 27.2285C80.7695 27.4168 80.8951 27.6052 80.9885 27.7614C81.1141 27.9498 81.2397 28.106 81.3959 28.2316C81.5215 28.3894 81.6792 28.515 81.8661 28.6406C82.0238 28.734 82.2122 28.829 82.4006 28.9224C82.5874 28.9852 82.7758 29.048 82.9964 29.1108C83.1848 29.1414 83.4038 29.1736 83.5922 29.1736C83.9996 29.1736 84.407 29.0786 84.7837 28.9224C85.1911 28.7662 85.5373 28.5456 85.8191 28.2316C85.9753 28.106 86.1009 27.9498 86.1959 27.7614C86.3214 27.6052 86.4149 27.4168 86.5083 27.2285C86.5711 27.0401 86.6339 26.8517 86.6661 26.6327C86.7288 26.4443 86.7288 26.2253 86.7288 26.0369C86.7288 25.1899 86.4149 24.4057 85.8191 23.81C85.5373 23.5266 85.1911 23.277 84.7837 23.1192C84.2186 22.9002 83.5922 22.8374 82.9964 22.963C82.7758 22.9936 82.5874 23.0564 82.4006 23.1192C82.2122 23.2142 82.0238 23.3076 81.8661 23.401C81.6792 23.5266 81.5215 23.6522 81.3959 23.81C81.0819 24.0918 80.8629 24.4364 80.7067 24.8131C80.5489 25.2205 80.4555 25.6295 80.4555 26.0369C80.4555 26.2253 80.4861 26.4443 80.5183 26.6327C80.5811 26.8517 80.6117 27.0401 80.7067 27.2285Z" fill="#013475"/>
<path d="M21.3058 29.1628H73.2172C74.9495 29.1628 76.3539 27.7584 76.3539 26.0262C76.3539 24.2939 74.9495 22.8895 73.2172 22.8895H21.3058C19.5736 22.8895 18.1691 24.2939 18.1691 26.0262C18.1691 27.7584 19.5736 29.1628 21.3058 29.1628Z" fill="#013475"/>
<path d="M14.0599 26.0262C14.0599 24.2939 12.6555 22.8895 10.9232 22.8895H3.13668C1.40446 22.8895 0 24.2939 0 26.0262C0 27.7584 1.40446 29.1628 3.13668 29.1628H10.9232C12.6555 29.1628 14.0599 27.7584 14.0599 26.0262Z" fill="#013475"/>
<path d="M83.5983 52.9039H52.4521C50.7198 52.9039 49.3154 54.3083 49.3154 56.0406C49.3154 57.7728 50.7198 59.1772 52.4521 59.1772H83.5983C85.3305 59.1772 86.735 57.7728 86.735 56.0406C86.735 54.3083 85.3305 52.9039 83.5983 52.9039Z" fill="#013475"/>
<path d="M42.0695 52.9039H34.2829C32.5507 52.9039 31.1462 54.3083 31.1462 56.0406C31.1462 57.7728 32.5507 59.1772 34.2829 59.1772H42.0695C43.8017 59.1772 45.2062 57.7728 45.2062 56.0406C45.2062 54.3083 43.8017 52.9039 42.0695 52.9039Z" fill="#013475"/>
<path d="M83.5983 82.9167H78.4078C76.6755 82.9167 75.2711 84.3212 75.2711 86.0534C75.2711 87.7856 76.6755 89.1901 78.4078 89.1901H83.5983C85.3305 89.1901 86.735 87.7856 86.735 86.0534C86.735 84.3212 85.3305 82.9167 83.5983 82.9167Z" fill="#013475"/>
<path d="M70.6381 89.1778C71.4529 89.1778 72.2692 88.8639 72.8328 88.2681C73.1162 87.9863 73.3658 87.6417 73.5236 87.2649C73.6798 86.8575 73.7426 86.4807 73.7426 86.0412C73.7426 85.2264 73.4286 84.41 72.8328 83.8449C71.6719 82.6855 69.5705 82.6855 68.4111 83.8449C67.8138 84.41 67.4692 85.2264 67.4692 86.0412C67.4692 86.4807 67.5642 86.8575 67.7204 87.2649C67.8766 87.6417 68.0972 87.9863 68.4111 88.2681C68.9748 88.8639 69.7911 89.1778 70.6381 89.1778Z" fill="#013475"/>
<path d="M65.9713 86.0534C65.9713 84.3212 64.5669 82.9167 62.8346 82.9167H26.4964C24.7641 82.9167 23.3597 84.3212 23.3597 86.0534C23.3597 87.7856 24.7641 89.1901 26.4964 89.1901H62.8346C64.5669 89.1901 65.9713 87.7856 65.9713 86.0534Z" fill="#013475"/>
<path d="M19.2504 86.0534C19.2504 84.3212 17.846 82.9167 16.1138 82.9167H8.32721C6.59499 82.9167 5.19053 84.3212 5.19053 86.0534C5.19053 87.7856 6.59499 89.1901 8.32721 89.1901H16.1138C17.846 89.1901 19.2504 87.7856 19.2504 86.0534Z" fill="#013475"/>
<path d="M83.5983 112.93H44.6655C42.9333 112.93 41.5288 114.334 41.5288 116.066C41.5288 117.799 42.9333 119.203 44.6655 119.203H83.5983C85.3305 119.203 86.735 117.799 86.735 116.066C86.735 114.334 85.3305 112.93 83.5983 112.93Z" fill="#013475"/>
<path d="M34.2829 112.93H26.4964C24.7641 112.93 23.3597 114.334 23.3597 116.066C23.3597 117.799 24.7641 119.203 26.4964 119.203H34.2829C36.0151 119.203 37.4196 117.799 37.4196 116.066C37.4196 114.334 36.0151 112.93 34.2829 112.93Z" fill="#013475"/>
<path d="M80.9885 147.834C81.1141 147.991 81.2397 148.147 81.3652 148.305C81.6792 148.586 82.0238 148.807 82.4006 148.963C82.7758 149.152 83.1848 149.214 83.5922 149.214C84.4391 149.214 85.2233 148.868 85.8191 148.305C85.9447 148.147 86.1009 147.991 86.1959 147.834C86.3214 147.646 86.4149 147.458 86.5083 147.269C86.5711 147.081 86.6339 146.892 86.6661 146.704C86.7288 146.485 86.7288 146.297 86.7288 146.078C86.7288 145.261 86.4149 144.446 85.8191 143.851C84.94 143.004 83.56 142.69 82.4006 143.192C82.0238 143.348 81.6792 143.567 81.3652 143.851C80.8001 144.446 80.4555 145.261 80.4555 146.078C80.4555 146.297 80.4861 146.485 80.5183 146.704C80.5489 146.892 80.6117 147.081 80.7067 147.269C80.7695 147.458 80.8629 147.646 80.9885 147.834Z" fill="#013475"/>
<path d="M28.5517 146.081C28.5517 147.813 29.9562 149.217 31.6884 149.217H73.2172C74.9495 149.217 76.3539 147.813 76.3539 146.081C76.3539 144.348 74.9495 142.944 73.2172 142.944H31.6884C29.9562 142.944 28.5517 144.348 28.5517 146.081Z" fill="#013475"/>
<path d="M24.4425 146.081C24.4425 144.348 23.038 142.944 21.3058 142.944H13.5193C11.787 142.944 10.3826 144.348 10.3826 146.081C10.3826 147.813 11.787 149.217 13.5193 149.217H21.3058C23.038 149.217 24.4425 147.813 24.4425 146.081Z" fill="#013475"/>
<path d="M83.5983 172.957H44.6655C42.9333 172.957 41.5288 174.361 41.5288 176.094C41.5288 177.826 42.9333 179.23 44.6655 179.23H83.5983C85.3305 179.23 86.735 177.826 86.735 176.094C86.735 174.361 85.3305 172.957 83.5983 172.957Z" fill="#013475"/>
<path d="M34.2829 172.957H26.4964C24.7641 172.957 23.3597 174.361 23.3597 176.094C23.3597 177.826 24.7641 179.23 26.4964 179.23H34.2829C36.0151 179.23 37.4196 177.826 37.4196 176.094C37.4196 174.361 36.0151 172.957 34.2829 172.957Z" fill="#013475"/>
</svg>
