<svg width="205" height="200" viewBox="0 0 205 200" fill="none" xmlns="http://www.w3.org/2000/svg">
<path d="M49.4226 0.0544453C48.9719 0.155874 48.5524 0.391729 48.2317 0.723943L45.8499 3.10417C45.4123 3.55593 45.1654 4.18652 45.18 4.81504V32.7093C45.1621 33.9668 46.3033 35.1234 47.5618 35.1234C48.8202 35.1234 49.9614 33.9668 49.9436 32.7093V5.78201L67.2862 23.1137C68.1716 24.0283 69.8245 24.0283 70.71 23.1137L88.0526 5.78201L105.395 23.1137C106.3 24.0094 107.954 23.9735 108.819 23.0394L124.971 5.85656L141.122 23.0394C141.988 23.9735 143.641 24.0094 144.546 23.1137L161.889 5.78201L179.231 23.1137C180.117 24.0283 181.77 24.0283 182.655 23.1137L199.998 5.78201V195.24H49.9436V165.411C49.9615 164.154 48.8202 162.997 47.5618 162.997C46.3033 162.997 45.1622 164.154 45.18 165.411V197.62C45.1801 198.866 46.3147 200 47.5618 200H202.38C203.627 200 204.761 198.866 204.761 197.62V4.81504C204.776 4.18652 204.529 3.55593 204.091 3.10417L201.71 0.723943C200.824 -0.190676 199.171 -0.190676 198.286 0.723943L180.943 18.0555L163.526 0.723943C162.646 -0.14601 161.057 -0.14601 160.177 0.723943L142.834 18.0555L126.683 0.798348C125.797 -0.116272 124.144 -0.116272 123.259 0.798348L107.107 18.0555L89.7645 0.723943C88.884 -0.14601 87.2956 -0.14601 86.4151 0.723943L68.9981 18.0555L51.6555 0.723943C51.0914 0.140252 50.215 -0.122579 49.4226 0.0544453ZM125.864 42.8256C124.694 42.972 123.734 44.1027 123.78 45.2802V50.0408C123.779 50.0656 123.779 50.0903 123.78 50.1151C120.082 50.3819 116.401 51.4293 113.359 53.5368C110.012 55.8558 107.525 59.5245 107.107 64.3226C107.097 64.4464 107.097 64.5708 107.107 64.6945C107.396 69.6097 109.547 73.4807 112.764 76.0754C115.981 78.67 120.105 80.0949 124.524 80.9104C128.478 81.6399 131.897 82.9203 134.2 84.7782C136.448 86.5911 137.726 88.9164 137.996 92.5146C137.657 95.8665 136.157 98.116 133.828 99.7298C131.457 101.373 128.215 102.235 124.896 102.333C121.577 102.431 118.221 101.727 115.816 100.474C113.41 99.2202 112.105 97.6393 111.871 95.7874C111.717 94.5393 110.439 93.5443 109.191 93.7003C107.942 93.8574 106.949 95.1349 107.107 96.3823C107.584 100.154 110.348 102.99 113.657 104.713C115.969 105.918 118.62 106.648 121.398 106.945V111.929C121.38 113.186 122.521 114.343 123.78 114.343C125.038 114.343 126.179 113.186 126.162 111.929V107.019C129.858 106.764 133.541 105.779 136.582 103.672C139.929 101.353 142.416 97.61 142.834 92.8119C142.844 92.6881 142.844 92.5639 142.834 92.44C142.546 87.5247 140.394 83.6536 137.177 81.059C133.961 78.4644 129.836 77.0395 125.417 76.224C121.464 75.4944 118.045 74.2141 115.741 72.3561C113.493 70.5432 112.215 68.2179 111.945 64.6201C112.285 61.268 113.784 59.0184 116.113 57.4048C118.485 55.7619 121.726 54.8995 125.045 54.8014C128.364 54.7033 131.72 55.4077 134.126 56.6609C136.531 57.9142 137.836 59.4951 138.071 61.3471C138.226 62.5935 139.503 63.5857 140.75 63.4299C141.997 63.2742 142.99 61.9983 142.834 60.752C142.357 56.9804 139.593 54.1448 136.284 52.421C133.972 51.2162 131.322 50.4861 128.543 50.1895C128.545 50.1399 128.545 50.0902 128.543 50.0407V45.2801C128.597 43.9037 127.231 42.6525 125.864 42.8256ZM45.1055 52.4956C19.9624 53.7698 0 74.584 0 100.027C0 126.291 21.2812 147.559 47.5618 147.559C73.8423 147.559 95.1236 126.291 95.1236 100.027C95.1236 73.7632 73.8423 52.4956 47.5618 52.4956C46.7405 52.4956 45.9166 52.4544 45.1055 52.4956ZM47.5618 57.1074C71.2679 57.1074 90.5088 76.3361 90.5088 100.027C90.5088 123.718 71.2679 142.947 47.5618 142.947C23.8557 142.947 4.61476 123.718 4.61476 100.027C4.61476 76.3361 23.8557 57.1074 47.5618 57.1074ZM71.231 88.0513C70.7026 88.1085 70.1958 88.3484 69.8168 88.7208L39.5976 115.574L30.4425 103.3C29.6797 102.295 28.0735 102.07 27.0638 102.827C26.054 103.584 25.8203 105.188 26.5721 106.201L37.2902 120.483C38.0718 121.545 39.8008 121.729 40.7885 120.855L72.943 92.2912C74.5508 91.0277 73.266 87.8457 71.231 88.0513ZM111.424 126.211C110.182 126.335 109.161 127.571 109.278 128.813C109.394 130.055 110.627 131.081 111.871 130.971H135.689C136.948 130.995 138.107 129.849 138.107 128.591C138.107 127.333 136.948 126.192 135.689 126.211C127.618 126.211 119.459 126.211 111.424 126.211ZM159.06 126.211C157.818 126.335 156.798 127.571 156.914 128.813C157.031 130.055 158.263 131.081 159.507 130.971H171.416C172.675 130.995 173.834 129.849 173.834 128.591C173.834 127.333 172.675 126.192 171.416 126.211C167.32 126.211 163.119 126.211 159.06 126.211ZM116.188 157.154C114.941 157.271 113.913 158.512 114.03 159.758C114.147 161.004 115.387 162.032 116.634 161.915H171.416C172.672 161.939 173.825 160.79 173.825 159.535C173.825 158.28 172.672 157.14 171.416 157.154C153.019 157.154 134.55 157.154 116.188 157.154Z" fill="#013475"/>
</svg>
