<svg width="193" height="200" viewBox="0 0 193 200" fill="none" xmlns="http://www.w3.org/2000/svg">
<path d="M131.477 43.9616C115.722 37.9619 85.2565 37.9397 66.3239 43.9616C54.9465 47.5615 47.1913 65.0497 43.747 80.2269C42.9009 83.8798 42.9996 87.6881 44.0338 91.2923C45.068 94.8964 47.0036 98.1776 49.6579 100.826L60.2797 111.448C56.1687 118.448 53.6133 125.936 55.5243 132.514C57.4353 139.091 63.9462 144.136 74.6124 146.847V150.446C74.6075 152.062 74.9488 153.66 75.6134 155.133C76.2781 156.606 77.2506 157.92 78.4655 158.985C79.6804 160.05 81.1096 160.843 82.6566 161.31C84.2037 161.777 85.8327 161.906 87.4342 161.69L96.3227 160.535H101.167L110.322 161.69C110.796 161.72 111.271 161.72 111.744 161.69C114.721 161.673 117.571 160.483 119.676 158.378C121.781 156.273 122.971 153.423 122.988 150.446V146.847C133.655 144.136 140.099 139.336 142.076 132.514C144.054 125.692 141.454 118.448 137.321 111.448L147.943 100.826C150.609 98.1799 152.555 94.897 153.597 91.2883C154.639 87.6796 154.743 83.8647 153.898 80.2047C150.787 66.2274 142.988 48.3393 131.477 43.9616ZM119.7 150.446C119.698 151.569 119.459 152.678 118.998 153.702C118.537 154.725 117.864 155.64 117.025 156.385C116.185 157.13 115.198 157.689 114.127 158.025C113.056 158.361 111.926 158.467 110.811 158.335L101.456 157.157H96.1227L86.9675 158.313C85.8528 158.444 84.7228 158.339 83.6518 158.003C82.5809 157.666 81.5932 157.107 80.7536 156.362C79.9141 155.617 79.2418 154.703 78.7808 153.68C78.3198 152.656 78.0806 151.547 78.079 150.424V146.313C81.4566 143.424 99.7448 129.492 119.766 146.313L119.7 150.446ZM145.654 98.4484L135.588 108.515C131.751 102.928 127.391 97.7192 122.566 92.9597C121.509 91.8916 120.819 90.5153 120.596 89.0295C120.372 87.5437 120.626 86.0253 121.322 84.6934C123.966 79.7158 127.122 76.4048 133.81 76.4048H134.099C134.511 76.3574 134.891 76.1602 135.166 75.8508C135.442 75.5415 135.594 75.1415 135.594 74.7271C135.594 74.3127 135.442 73.9128 135.166 73.6034C134.891 73.294 134.511 73.0969 134.099 73.0494C125.21 73.0494 121.077 78.0714 118.389 83.1157C117.359 85.0834 116.981 87.327 117.309 89.5234C117.636 91.7197 118.652 93.7555 120.211 95.3374C127.01 102.204 142.432 119.47 138.943 131.669C137.299 137.358 131.521 141.425 121.811 143.802C116.009 138.563 108.611 135.432 100.811 134.914V127.114L110.811 119.848C111.292 119.505 111.66 119.027 111.866 118.474C112.073 117.921 112.109 117.319 111.971 116.745C111.832 116.171 111.525 115.652 111.088 115.255C110.652 114.857 110.106 114.599 109.522 114.514C103.01 113.66 96.4133 113.66 89.9007 114.514C89.3335 114.604 88.8044 114.856 88.377 115.24C87.9497 115.623 87.6423 116.122 87.492 116.676C87.3417 117.23 87.3549 117.816 87.5299 118.363C87.705 118.91 88.0344 119.395 88.4786 119.759L97.3671 126.936V134.914C89.4754 135.612 81.9746 138.662 75.8346 143.669C66.1461 141.291 60.2797 137.225 58.7242 131.536C55.191 119.336 70.657 102.07 77.4568 95.2041C79.0152 93.6221 80.0313 91.5864 80.3587 89.39C80.6862 87.1937 80.3081 84.9501 79.2789 82.9824C76.5901 77.9603 72.6125 72.8494 63.5684 72.9383C63.1567 72.9858 62.7769 73.1829 62.5011 73.4923C62.2254 73.8016 62.073 74.2016 62.073 74.616C62.073 75.0304 62.2254 75.4304 62.5011 75.7397C62.7769 76.0491 63.1567 76.2463 63.5684 76.2937C70.2348 76.1604 73.5902 79.5603 76.279 84.5823C76.9745 85.9142 77.2287 87.4326 77.005 88.9184C76.7814 90.4042 76.0914 91.7805 75.0346 92.8486C70.2175 97.6091 65.8647 102.818 62.0351 108.404L52.0578 98.4484C49.7997 96.2026 48.1515 93.4181 47.2689 90.3581C46.3863 87.2981 46.2984 84.0636 47.0135 80.9602C50.1245 67.3385 57.302 50.317 67.3238 47.1393C85.3454 41.4506 115.344 41.4284 130.277 47.1393C140.543 51.0503 147.698 67.8052 150.698 80.9824C151.409 84.0825 151.32 87.3126 150.437 90.3684C149.555 93.4241 147.909 96.2048 145.654 98.4484Z" fill="#013475"/>
<path d="M150.054 19.3181C155.675 17.7022 161.459 16.7184 167.298 16.3849L171.275 16.0961L168.298 13.4517C141.899 -10.0807 102.056 3.96319 96.3229 6.16311C90.612 3.94097 50.7691 -10.0807 24.3479 13.4739L21.3702 16.1183L25.3479 16.3849C31.1871 16.7171 36.9709 17.701 42.5916 19.3181C31.2587 23.6069 -2.6955 41.2951 0.171057 98.7817L0.326607 102.226L2.99317 100.004C4.68199 98.4928 9.45958 95.093 13.3705 95.093C12.015 104.715 7.21523 152.269 38.7251 176.89L42.8583 180.001L41.4361 175.045C41.4361 175.045 38.9251 166.024 42.9249 161.202C48.147 168.712 70.4794 198.467 96.3229 200C122.055 198.467 144.388 168.735 149.654 161.224C153.632 166.046 151.165 174.979 151.143 175.068L149.81 180.001L153.854 176.845C185.386 152.246 180.52 104.67 179.209 95.0485C182.986 95.0485 187.986 98.4484 189.653 100.004L192.275 102.226L192.452 98.7373C195.341 41.3173 161.387 23.6069 150.054 19.3181ZM176.853 92.0264L175.386 92.4486L175.675 93.9597C175.675 94.4708 184.564 144.313 155.276 171.268C155.654 166.979 155.276 160.846 150.476 157.313L149.054 156.246L148.076 157.757C147.81 158.091 123.433 194.934 96.3229 196.645C69.2128 194.934 44.836 158.091 44.6138 157.779L43.636 156.268L42.2139 157.335C37.5029 160.868 37.0363 167.024 37.414 171.29C8.1263 144.336 16.9037 94.4708 16.9926 93.9597L17.2593 92.4486L15.7927 92.0264C11.3484 90.7598 6.37081 93.3819 3.37093 95.4041C2.72651 69.694 9.81513 48.8948 23.9701 35.0953C30.3735 28.6952 38.2701 23.9908 46.947 21.407L49.5025 20.807L47.8803 18.7404C45.436 15.5627 35.6586 14.0739 29.6588 13.3406C56.1244 -6.21419 95.2785 9.36298 95.7007 9.51853L96.3229 9.78519L96.9673 9.51853C97.3673 9.36298 136.499 -6.25863 162.987 13.3406C157.054 13.985 147.276 15.5627 144.81 18.6737L143.188 20.7625L145.765 21.3403C154.386 23.8939 162.237 28.5521 168.609 34.8953C182.853 48.6948 189.986 69.5384 189.319 95.3374C186.275 93.3375 181.275 90.782 176.853 92.0264Z" fill="#013475"/>
</svg>
