<svg width="250" height="208" viewBox="0 0 250 208" fill="none" xmlns="http://www.w3.org/2000/svg">
<path d="M123.659 0.246966C124.382 0.0425623 125.152 -0.114306 125.891 0.109112C143.354 4.67967 160.331 10.9425 176.93 18.0016C178.523 18.7122 180.17 19.3017 181.708 20.1312C180.436 29.1606 179.067 38.1781 177.919 47.2218C179.417 46.5206 180.802 45.6127 182.252 44.8189C189.77 40.5525 197.459 36.5833 205.295 32.9302C205.979 32.645 206.766 32.065 207.503 32.5546C220.606 39.1051 233.348 46.3519 245.962 53.7936C247.309 54.6088 248.686 55.3742 250 56.2441C245.919 59.2103 241.776 62.0957 237.736 65.1214C224.671 74.8377 212.036 85.1339 199.821 95.9008C199.101 96.6495 198.048 96.0172 197.197 95.8984C175.647 90.9404 153.925 86.743 132.088 83.2705C129.901 82.9782 127.733 82.5171 125.532 82.3507C126.329 83.1232 127.251 83.7435 128.154 84.3805C143.083 95.2662 157.781 106.47 172.113 118.131C172.55 118.492 172.978 118.865 173.41 119.236C171.728 121.016 169.836 122.583 168.113 124.322C154.116 137.654 140.102 150.973 126.112 164.317C125.799 164.592 125.48 164.863 125.162 165.137C123.992 164.236 123.008 163.131 121.948 162.113C97.6693 138.728 73.1623 115.557 47.7069 93.4455C48.1323 92.4164 48.6314 91.4205 49.152 90.4365C55.8236 77.3547 62.5808 64.3061 69.9679 51.6093C70.7118 50.2855 71.6031 49.0424 72.2329 47.6567C70.9946 48.1987 69.8514 48.9259 68.6796 49.5962C55.0559 57.4467 41.6912 65.7393 28.5452 74.3647C27.8346 74.8092 27.1809 75.3986 26.3586 75.6291C25.5742 75.1752 24.9254 74.5263 24.2147 73.9725C17.1794 68.3395 9.89219 63.0274 2.46473 57.9268C1.73505 57.4301 1.01251 56.9238 0.306606 56.3914C1.80398 55.2886 3.48199 54.4686 5.06018 53.487C26.1019 41.0849 47.6475 29.4886 69.9393 19.4847C70.8734 19.0521 71.8265 18.5411 72.8866 18.5482C88.5092 18.5649 104.132 19.1686 119.712 20.3166C121.278 20.4045 122.839 20.6422 124.411 20.5661C123.964 20.2928 123.507 20.0361 123.027 19.8293C113.796 16.0574 104.427 12.6253 94.9669 9.47365C96.4025 8.80578 97.9379 8.39935 99.4258 7.8717C107.447 5.15265 115.481 2.45738 123.659 0.246966ZM124.527 21.0439C111.148 26.9549 98.0353 33.4649 85.1579 40.398C80.9795 42.6964 76.7583 44.9282 72.6584 47.3644C73.678 48.037 74.7381 48.6431 75.7886 49.2658C84.6992 54.5993 93.422 60.2394 102.028 66.0459C109.848 71.2891 117.508 76.7653 125.195 82.1986C126.457 81.3929 127.636 80.4707 128.86 79.6103C143.786 68.9361 158.962 58.5828 174.73 49.1803C175.74 48.5861 176.785 48.0418 177.715 47.3169C161.134 37.2631 143.774 28.5046 125.891 21.0177C125.452 20.8062 124.957 20.8228 124.527 21.0439Z" fill="#003772"/>
<path d="M119.83 30.4369C125.737 29.8926 131.752 30.261 137.5 31.7679C141.186 32.7281 144.765 34.1875 147.948 36.2957C150.196 37.8002 152.247 39.6731 153.636 42.0142C155.071 44.4172 155.713 47.3787 154.997 50.1238C154.215 53.3682 151.972 56.0444 149.398 58.0671C145.457 61.1117 140.715 62.9585 135.886 64.0352C127.945 65.7821 119.567 65.6086 111.716 63.479C106.948 62.1575 102.299 59.997 98.6795 56.5578C96.2623 54.1501 94.4036 50.8939 94.5581 47.3882C94.646 43.6661 96.8731 40.3576 99.6254 38.007C105.266 33.2891 112.634 31.1975 119.83 30.4369Z" fill="#003772"/>
<path d="M0.00237684 176.909C3.14449 176.754 6.29136 176.89 9.43584 176.842C11.7294 176.807 14.111 176.79 16.2572 177.722C18.1206 178.501 19.7154 180.056 20.2787 182.028C21.0797 184.688 20.7517 187.835 18.9192 190.005C17.9542 191.177 16.5163 191.768 15.1449 192.32C15.896 192.736 16.7373 193.102 17.2436 193.832C17.9685 194.877 18.3797 196.099 18.7766 197.299C19.8367 200.724 20.9347 204.135 22.009 207.555C19.4873 207.581 16.9655 207.567 14.4437 207.565C13.5477 204.777 12.818 201.939 11.9766 199.137C11.5916 197.953 11.2588 196.648 10.301 195.785C9.46674 195.077 8.30449 195.172 7.28248 195.167C7.22543 199.298 7.28723 203.431 7.25871 207.562C4.83914 207.565 2.41957 207.588 0 207.548C0.00950715 197.335 0.00713042 187.122 0.00237684 176.909ZM7.0139 182.095C6.96636 184.719 6.94497 187.348 7.02578 189.972C8.61348 189.955 10.3604 190.14 11.7675 189.254C13.7141 187.963 14.0278 184.866 12.49 183.157C11.0378 181.767 8.85353 182.031 7.0139 182.095Z" fill="#003772"/>
<path d="M78.6408 176.885C80.7846 176.809 82.9332 176.818 85.0771 176.88C85.1294 178.777 85.1722 180.676 85.051 182.57C82.9166 182.573 80.7846 182.568 78.6503 182.573C78.617 180.676 78.6265 178.782 78.6408 176.885Z" fill="#003772"/>
<path d="M130.593 176.88C136.256 176.821 141.923 176.818 147.587 176.88C147.651 178.644 147.656 180.41 147.582 182.176C144.238 182.268 140.891 182.173 137.545 182.216C137.478 184.579 137.497 186.946 137.533 189.311C140.76 189.382 143.991 189.287 147.218 189.351C147.216 191.139 147.216 192.926 147.218 194.713C143.991 194.777 140.76 194.682 137.533 194.754C137.471 199.022 137.538 203.294 137.507 207.562C135.204 207.572 132.9 207.574 130.597 207.56C130.497 203.852 130.585 200.14 130.557 196.429C130.583 189.912 130.505 183.395 130.593 176.88Z" fill="#003772"/>
<path d="M181.08 176.885C183.224 176.809 185.37 176.818 187.517 176.88C187.602 183.87 187.526 190.863 187.552 197.855C187.583 201.088 187.471 204.325 187.652 207.555C185.61 207.574 183.569 207.586 181.527 207.548C181.423 206.526 181.339 205.502 181.263 204.48C180.584 205.373 179.939 206.343 178.977 206.961C177.517 207.912 175.664 208.057 173.986 207.738C171.968 207.322 170.387 205.742 169.489 203.95C168.291 201.561 167.937 198.839 167.989 196.194C167.97 193.468 168.46 190.587 170.123 188.358C171.963 185.872 175.626 185.247 178.364 186.492C179.538 187.005 180.294 188.082 181.04 189.076C181.128 185.014 181.037 180.949 181.08 176.885ZM176.624 190.571C175.557 191.079 175.117 192.298 174.922 193.389C174.665 195.02 174.729 196.679 174.758 198.324C174.817 199.652 175.01 201.05 175.768 202.179C176.495 203.284 178.228 203.564 179.25 202.711C179.989 202.107 180.401 201.204 180.636 200.301C181.163 198.193 181.154 195.98 180.805 193.846C180.633 192.878 180.339 191.885 179.687 191.127C178.944 190.269 177.627 190.167 176.624 190.571Z" fill="#003772"/>
<path d="M243.069 176.885C245.211 176.814 247.355 176.814 249.498 176.885C249.582 182.606 249.508 188.329 249.534 194.053C249.508 198.554 249.579 203.058 249.501 207.56C247.355 207.576 245.208 207.574 243.064 207.56C242.986 200.681 243.055 193.801 243.031 186.922C243.057 183.576 242.981 180.229 243.069 176.885Z" fill="#003772"/>
<path d="M89.8402 181.791C91.9365 181.156 94.0186 180.469 96.1125 179.825C96.141 181.957 96.0626 184.091 96.1434 186.223C97.5219 186.25 98.9005 186.242 100.279 186.245C100.36 187.74 100.357 189.24 100.281 190.735C98.9053 190.777 97.5291 190.768 96.1529 190.768C96.0531 193.841 96.1434 196.919 96.103 199.995C96.1363 201.007 96.1078 202.3 97.0751 202.918C98.1161 203.486 99.3354 203.049 100.426 202.87C100.448 204.449 100.441 206.027 100.431 207.605C98.7175 207.945 96.961 207.914 95.2236 207.859C93.6335 207.798 91.9935 207.199 90.9573 205.948C89.978 204.755 89.6643 203.175 89.6191 201.67C89.5621 198.038 89.6809 194.404 89.5668 190.775C88.079 190.751 86.5911 190.746 85.1056 190.789C85.0937 196.379 85.1674 201.972 85.0723 207.56C82.9261 207.576 80.7822 207.572 78.6384 207.562C78.6312 200.458 78.6312 193.351 78.6384 186.247C82.3533 186.216 86.0706 186.283 89.7855 186.221C89.8188 184.743 89.7808 183.267 89.8402 181.791Z" fill="#003772"/>
<path d="M26.8577 186.982C28.9588 185.805 31.4996 185.653 33.8288 186.105C35.8919 186.504 37.7933 187.759 38.8605 189.587C40.4957 192.268 40.6431 195.521 40.529 198.578C36.3435 198.678 32.1532 198.545 27.9677 198.64C28.0437 200.03 28.5286 201.471 29.6789 202.34C31.1145 203.536 33.0944 203.491 34.858 203.431C36.3696 203.41 37.8575 203.113 39.3026 202.687C39.3263 204.323 39.4048 205.956 39.381 207.591C37.6531 207.881 35.8966 207.883 34.1497 207.926C31.6564 207.923 29.0396 207.84 26.784 206.645C24.4785 205.48 22.8861 203.194 22.28 200.715C21.5503 197.76 21.6359 194.547 22.8029 191.714C23.6015 189.762 24.9919 188.006 26.8577 186.982ZM29.0538 190.856C28.1008 192.016 28.0366 193.596 27.9914 195.027C30.2209 195.127 32.4527 195.094 34.6821 195.048C34.6132 193.603 34.5205 192.018 33.5531 190.853C32.4836 189.475 30.121 189.477 29.0538 190.856Z" fill="#003772"/>
<path d="M45.2421 188.505C47.0342 186.784 49.537 185.971 51.9851 185.888C53.8818 185.834 55.7761 186.005 57.6585 186.221C57.6751 187.856 57.5634 189.492 57.3685 191.117C55.5122 190.968 53.568 190.599 51.7593 191.219C49.9268 191.904 48.9951 193.886 48.8192 195.728C48.5578 197.924 48.8121 200.539 50.6969 201.991C52.6886 203.55 55.3863 203.032 57.7131 202.83C57.8843 204.413 57.8914 206.01 57.8748 207.603C55.6192 208.066 53.3018 207.969 51.0177 207.852C48.9167 207.74 46.8037 206.992 45.2659 205.521C42.9105 203.351 41.9527 200.033 42.0026 196.905C41.9598 193.843 42.9652 190.635 45.2421 188.505Z" fill="#003772"/>
<path d="M60.0709 189.784C61.4328 187.685 63.7597 186.252 66.2434 185.964C67.9785 185.755 69.7848 185.891 71.4296 186.506C73.2621 187.193 74.7476 188.66 75.5581 190.43C76.7369 192.962 76.9057 195.826 76.7536 198.576C72.5871 198.668 68.4158 198.568 64.2469 198.618C64.2659 199.771 64.5844 200.943 65.3616 201.822C66.1793 202.754 67.3914 203.284 68.6155 203.393C70.9328 203.569 73.2882 203.389 75.5129 202.699C75.5937 204.335 75.6603 205.97 75.589 207.607C73.0434 207.952 70.4599 207.966 67.8977 207.866C65.4567 207.783 62.954 207.011 61.1476 205.314C59.3935 203.698 58.4903 201.354 58.2004 199.025C57.7821 195.864 58.2527 192.465 60.0709 189.784ZM65.1335 191.051C64.3325 192.218 64.235 193.679 64.2469 195.053C66.4502 195.101 68.6559 195.103 70.8592 195.051C70.8782 193.625 70.7451 192.094 69.8657 190.91C68.7557 189.43 66.1365 189.465 65.1335 191.051Z" fill="#003772"/>
<path d="M103.787 186.261C107.155 186.078 110.559 185.582 113.917 186.133C115.692 186.452 117.558 187.191 118.597 188.748C119.521 190.09 119.743 191.757 119.797 193.349C119.885 198.084 119.7 202.823 119.914 207.557C117.962 207.574 116.013 207.584 114.064 207.553C113.976 206.757 113.886 205.963 113.779 205.171C113.023 205.856 112.298 206.609 111.381 207.082C109.696 207.945 107.692 208.09 105.867 207.655C103.754 207.137 102 205.368 101.543 203.234C101.092 201.204 101.337 198.88 102.703 197.24C103.954 195.738 105.855 194.975 107.728 194.606C109.741 194.169 111.811 194.264 113.858 194.243C113.855 193.209 113.722 192.08 112.943 191.319C111.954 190.247 110.364 190.338 109.03 190.385C107.21 190.426 105.456 190.956 103.775 191.619C103.737 189.834 103.721 188.046 103.787 186.261ZM108.581 198.359C107.136 199.31 106.839 201.506 107.804 202.887C109.154 204.43 111.909 203.923 112.959 202.272C113.943 200.822 113.915 198.992 113.827 197.316C112.046 197.287 110.112 197.34 108.581 198.359Z" fill="#003772"/>
<path d="M150.004 189.641C151.42 187.55 153.804 186.164 156.317 185.936C158.27 185.755 160.331 185.957 162.09 186.882C163.606 187.676 164.787 189.033 165.472 190.592C166.589 193.085 166.739 195.883 166.599 198.576C162.401 198.664 158.199 198.58 154.002 198.611C154.173 199.802 154.439 201.062 155.316 201.951C156.136 202.804 157.289 203.289 158.458 203.393C160.775 203.572 163.128 203.386 165.358 202.702C165.432 204.335 165.5 205.97 165.429 207.607C162.803 207.959 160.141 207.973 157.498 207.852C154.976 207.731 152.4 206.835 150.638 204.969C149.048 203.308 148.262 201.038 148.017 198.787C147.639 195.643 148.157 192.275 150.004 189.641ZM155.073 190.91C154.189 192.094 154.066 193.625 154.087 195.053C156.29 195.101 158.498 195.101 160.702 195.051C160.714 193.625 160.588 192.094 159.706 190.913C158.636 189.468 156.138 189.449 155.073 190.91Z" fill="#003772"/>
<path d="M191.705 189.045C193.074 187.386 195.063 186.242 197.204 185.981C199.51 185.684 202.01 185.96 203.981 187.281C205.739 188.469 206.864 190.414 207.356 192.453C207.898 194.445 207.909 196.527 207.855 198.578C203.662 198.666 199.465 198.566 195.272 198.623C195.36 200.018 195.833 201.473 196.995 202.343C198.431 203.553 200.418 203.488 202.184 203.431C203.693 203.412 205.183 203.113 206.628 202.687C206.65 204.323 206.702 205.958 206.685 207.596C204.095 207.962 201.461 207.978 198.854 207.85C196.382 207.724 193.825 206.944 192.049 205.15C189.955 203.072 189.138 200.025 189.145 197.145C189.076 194.269 189.844 191.284 191.705 189.045ZM196.38 190.853C195.431 192.025 195.346 193.606 195.258 195.046C197.504 195.103 199.75 195.11 201.996 195.041C201.887 193.603 201.823 192.023 200.877 190.853C199.807 189.484 197.437 189.453 196.38 190.853Z" fill="#003772"/>
<path d="M224.098 186.257C226.458 186.097 228.818 185.9 231.185 185.874C233.583 185.941 236.231 186.185 238.114 187.842C239.72 189.261 240.094 191.521 240.132 193.558C240.191 198.226 240.075 202.897 240.208 207.565C238.261 207.569 236.314 207.584 234.368 207.55C234.297 206.688 234.211 205.827 234.123 204.967C233.215 206.11 232.065 207.108 230.634 207.517C228.271 208.252 225.405 207.969 223.551 206.207C221.835 204.625 221.391 202.062 221.807 199.847C222.132 198.062 223.335 196.498 224.949 195.681C227.758 194.157 231.045 194.228 234.147 194.245C234.185 193.092 233.931 191.83 232.994 191.067C231.96 190.238 230.539 190.352 229.296 190.39C227.492 190.442 225.75 190.958 224.086 191.623C224.095 189.834 224.081 188.044 224.098 186.257ZM229.141 198.183C227.482 199.068 227.057 201.539 228.2 202.985C229.593 204.375 232.214 203.892 233.253 202.286C234.24 200.845 234.23 199.032 234.201 197.359C232.49 197.235 230.679 197.354 229.141 198.183Z" fill="#003772"/>
<path d="M209.35 186.247C211.303 186.233 213.255 186.238 215.209 186.245C215.261 187.386 215.335 188.527 215.515 189.658C216.345 188.719 216.927 187.5 218.077 186.894C219.375 186.152 220.915 186.219 222.36 186.238C222.37 188.037 222.37 189.839 222.36 191.638C220.789 191.7 218.988 191.35 217.659 192.403C216.252 193.523 216.076 195.462 215.974 197.131C215.895 200.608 215.976 204.085 215.941 207.562C213.797 207.572 211.651 207.574 209.507 207.562C209.345 200.458 209.628 193.347 209.35 186.247Z" fill="#003772"/>
</svg>
