<svg width="212" height="108" viewBox="0 0 212 108" fill="none" xmlns="http://www.w3.org/2000/svg">
<rect width="212" height="101.254" fill="#C4D1D6"/>
<path d="M122.127 25.5244L114.607 73.3035H109.28L101.57 25.5244H96.5813L106.686 82.3847H116.874L126.979 25.5244H122.127Z" fill="#D13239"/>
<path d="M111.938 62.4609L117.275 25.5244L111.938 62.4187L106.601 25.5244H101.57H106.601L111.938 62.4609Z" fill="white"/>
<path d="M114.606 73.3035L122.127 25.5244H117.275L111.938 62.4187L106.601 25.5244H101.57L109.28 73.3035H114.606Z" fill="white"/>
<path d="M29.1842 25.6509C28.2666 26.231 27.9818 27.1064 28.024 28.1928L27.9396 42.8957C27.813 46.8087 29.3529 50.8061 33.0972 52.5148C37.2528 54.5926 41.8303 52.4726 45.0262 49.8885L45.1105 49.5932L45.3215 28.3194C45.4059 27.3596 44.9523 26.4842 44.1191 26.0306C43.866 25.9041 43.539 25.9041 43.4968 25.6193L43.539 25.5349C45.4902 25.788 47.4837 25.6193 49.4455 25.6193C49.5298 25.6193 49.6142 25.6193 49.6142 25.7037C49.4455 26.0412 49.0763 26.0412 48.8232 26.2416C47.9056 27.0748 47.8634 28.3616 47.8634 29.6167L47.568 50.1839C47.6524 51.3124 47.4837 52.7679 48.57 53.4746C48.8654 53.6855 49.1501 53.6855 49.4455 53.8859C49.4455 53.9281 49.4033 54.0547 49.2767 54.0125C47.4837 53.9281 45.659 53.675 43.8343 53.9281C43.7921 53.8859 43.7921 53.8438 43.7921 53.7594C44.7941 53.1371 45.0367 51.9663 45.0367 50.8061C44.868 50.6374 44.7836 50.8905 44.5832 51.0171C40.9655 53.6855 36.0188 55.3942 31.4835 53.6012C28.3615 52.5148 26.0411 49.1924 25.788 46.0177C25.4188 43.0644 25.6614 36.6939 25.6614 36.6939C25.7458 33.7829 25.8301 30.7347 25.6192 27.8237C25.4504 26.8639 24.4168 26.0728 23.5414 25.788C23.5414 25.7037 23.6258 25.6615 23.6679 25.6193C25.4188 25.6193 27.1169 25.8724 28.8256 25.5349H29.1947V25.6615L29.1842 25.6509ZM57.704 52.0085C57.7462 52.5886 58.2841 53.0527 58.7481 53.2953C59.0435 53.464 59.4548 53.4219 59.708 53.6644L59.5392 53.8332C57.588 53.6644 54.5503 53.7488 53.6749 53.8754C53.5483 53.5379 54.4238 53.4957 54.7191 53.2953C55.5523 52.8734 55.7949 52.0507 55.7949 51.2491L56.048 27.3912C55.5945 26.558 54.6769 25.9779 53.8015 25.8091C53.6327 25.7247 53.7171 25.6404 53.7171 25.556L53.9702 25.4716C55.7211 25.6404 57.588 25.6404 59.2966 25.3029C59.381 25.6404 59.0435 25.7986 59.0435 26.0939C58.9169 26.674 59.0435 27.2225 59.381 27.7182L76.9211 48.1588L77.0477 48.0744L77.132 29.2159C77.0476 28.1295 77.0898 27.0115 76.0984 26.347C75.8031 26.0517 75.2652 26.1361 74.9804 25.8091L75.2757 25.6826C77.0582 25.7669 79.1466 25.8091 80.929 25.5138L81.0134 25.5982C81.0978 25.8091 80.7603 25.8935 80.6759 25.9357C80.138 26.0623 79.5579 26.3154 79.2204 26.8533C78.5559 28.7729 78.9251 30.5132 78.7669 32.6438V33.477L78.5981 53.464C78.5559 53.675 78.6825 53.9281 78.5137 54.002L78.3872 53.9176L69.0739 42.8851C65.1292 38.392 61.4693 33.804 57.5985 29.4374H57.5563C57.5563 33.0551 57.2188 48.4646 57.7251 52.0085M90.2845 26.3154C89.1665 27.0643 89.409 27.8131 89.3247 28.9417C89.3247 28.9417 89.2403 50.764 89.5778 52.5464C89.7044 53.2109 90.411 53.5484 90.9489 53.8754L90.738 54.0442C88.9872 53.7066 86.9515 53.9176 85.0847 53.9598C84.9159 53.6223 85.4538 53.7066 85.5804 53.5484C85.9495 53.4641 86.4558 53.1687 86.5402 52.7574L86.7933 51.5444V28.7307C86.7089 27.9397 86.6246 26.9377 85.9179 26.4842L85.7491 26.231C85.38 25.9357 84.7893 26.0623 84.6311 25.6931L84.7577 25.6509C86.8355 25.8619 89.0821 25.9041 91.0755 25.6087C91.2443 25.6087 91.3286 25.5243 91.4869 25.6087C91.2337 26.0201 90.6536 26.0201 90.2845 26.3154ZM141.238 39.5944C139.287 39.4678 137.251 39.5522 135.332 39.7632L135.29 39.9319C135.247 44.0559 135.121 48.3381 135.374 52.5042L135.543 52.5886C138.369 52.3777 141.987 52.7996 144.94 52.2089C145.816 51.998 146.607 51.0804 146.976 50.2893C147.018 50.2049 147.103 50.2049 147.145 50.2893L147.229 50.3315C147.018 51.3335 146.733 52.2089 146.269 53.1582C146.016 53.5801 145.52 53.7805 145.067 53.907C140.205 53.9492 135.965 53.6117 131.018 53.907C130.934 53.8227 130.934 53.7383 130.934 53.6539C131.429 53.443 132.347 52.9894 132.6 52.114L132.769 51.0276L132.811 43.5707V29.2053C132.727 28.2034 132.811 26.8322 131.809 26.1255C131.64 25.8724 131.187 25.9568 131.187 25.5454H131.356C135.015 25.5454 138.464 25.5033 142.166 25.4189C142.42 25.4611 142.747 25.4611 142.915 25.6298C143.411 26.2943 143.495 27.0432 143.58 27.8764C143.411 28.003 143.327 27.792 143.242 27.7498C142.747 26.79 141.745 26.5791 140.743 26.6213L135.416 26.7478L135.29 26.79C135.29 30.6609 135.163 34.4895 135.332 38.2865L135.501 38.3287C137.747 38.2443 140.036 38.4131 142.198 38.0334C142.82 37.8225 143.4 37.3267 143.611 36.7044C143.654 36.6201 143.738 36.6201 143.865 36.6623C143.738 38.0756 143.738 39.4995 143.78 40.9128C143.738 40.955 143.654 40.955 143.611 40.9128C143.611 40.9128 143.949 39.7842 141.238 39.5838M164.685 26.5474V26.7162C164.769 27.7604 164.854 28.7518 164.6 29.7116C164.558 29.8382 164.474 29.7538 164.432 29.7538C163.725 28.2983 162.101 26.7162 160.445 26.5474C158.156 26.0095 155.709 26.8006 154.454 28.794C153.663 30.2073 153.747 32.2113 154.454 33.5825C155.076 34.5844 156.236 35.5443 157.196 36.4513C159.643 38.4131 162.27 40.0374 164.674 42.2418C166.256 44.0348 166.583 46.9458 165.835 49.0658C165.17 51.2702 163.092 53.443 160.803 53.8543C157.977 54.6032 155.066 53.7277 152.239 53.559C152.155 52.1035 151.986 50.6479 151.902 49.108C151.902 48.9393 152.07 48.9393 152.197 48.9815C152.45 49.3928 152.45 49.8991 152.608 50.3104C153.768 52.9367 156.637 53.3902 159.221 53.2215C161.173 53.0527 163.208 51.8503 163.915 49.8463C164.664 48.0533 164.126 45.8911 162.955 44.4778C161.995 43.307 160.793 42.4 159.717 41.6089C156.806 39.2358 152.229 36.947 152.197 32.6543C152.113 30.239 153.115 27.9502 155.235 26.5791C157.935 24.7439 161.763 25.5771 164.674 26.5369M185.674 28.3721C187.214 30.4499 187.298 33.7407 186.212 35.9872C185.168 38.3604 182.636 39.8581 180.179 39.9846C179.019 40.1112 177.806 40.0268 176.688 39.8581C176.603 39.8159 176.561 39.6893 176.603 39.5628L176.856 39.5206C179.145 39.8581 181.634 39.6893 183.132 37.8119C184.925 35.6075 184.883 31.8527 183.628 29.4374C182.879 27.7709 181.17 26.5263 179.43 26.3154C178.228 26.1888 176.772 26.3154 175.643 26.6107L175.559 26.7373L175.433 32.7387L175.475 51.3546C175.559 52.1878 176.013 53.1898 176.888 53.4324C177.141 53.5168 177.468 53.4746 177.553 53.7699C177.257 54.0652 176.719 53.8543 176.35 53.8965C174.599 53.6434 172.775 53.6434 171.15 53.9387C171.024 53.9387 170.939 53.9387 170.855 53.8965L170.939 53.6855C171.562 53.4324 172.437 53.232 172.848 52.4726L172.975 51.5128L173.102 39.5206L173.017 28.3194C172.975 27.2752 172.268 26.3576 171.393 25.8619C171.309 25.7353 171.393 25.6087 171.519 25.6509C176.297 25.9041 182.457 23.8579 185.653 28.3616" fill="white"/>
<path d="M106.601 25.5244H117.275L111.938 62.4187L106.601 25.5244Z" fill="#1D1D1B"/>
</svg>
