<svg width="200" height="200" viewBox="0 0 200 200" fill="none" xmlns="http://www.w3.org/2000/svg">
<path d="M123.42 1.37875e-09H3.33566C2.89762 -1.25931e-05 2.46385 0.0862582 2.05915 0.253887C1.65444 0.421515 1.28671 0.667218 0.976966 0.976966C0.667218 1.28671 0.421515 1.65444 0.253887 2.05915C0.0862582 2.46385 -1.25931e-05 2.89762 1.37885e-09 3.33566V156.636C-1.25931e-05 157.074 0.0862582 157.508 0.253887 157.913C0.421515 158.318 0.667218 158.685 0.976966 158.995C1.28671 159.305 1.65444 159.551 2.05915 159.718C2.46385 159.886 2.89762 159.972 3.33566 159.972H83.3916V153.301H6.67133V33.3566H113.413V26.6853H6.67133V6.67133H120.084V106.601H126.755V3.33566C126.755 2.89762 126.669 2.46385 126.501 2.05915C126.334 1.65444 126.088 1.28671 125.778 0.976966C125.469 0.667218 125.101 0.421515 124.696 0.253887C124.291 0.0862582 123.858 -1.25931e-05 123.42 1.37875e-09Z" fill="#013475"/>
<path d="M16.6783 20.014C18.5206 20.014 20.014 18.5206 20.014 16.6783C20.014 14.8361 18.5206 13.3427 16.6783 13.3427C14.8361 13.3427 13.3427 14.8361 13.3427 16.6783C13.3427 18.5206 14.8361 20.014 16.6783 20.014Z" fill="#013475"/>
<path d="M30.021 20.014C31.8632 20.014 33.3566 18.5206 33.3566 16.6783C33.3566 14.8361 31.8632 13.3427 30.021 13.3427C28.1787 13.3427 26.6853 14.8361 26.6853 16.6783C26.6853 18.5206 28.1787 20.014 30.021 20.014Z" fill="#013475"/>
<path d="M43.3636 20.014C45.2059 20.014 46.6993 18.5206 46.6993 16.6783C46.6993 14.8361 45.2059 13.3427 43.3636 13.3427C41.5214 13.3427 40.028 14.8361 40.028 16.6783C40.028 18.5206 41.5214 20.014 43.3636 20.014Z" fill="#013475"/>
<path d="M56.7063 126.615C61.9593 126.617 67.1203 125.237 71.6714 122.614L68.3337 116.837C64.7938 118.876 60.78 119.947 56.6952 119.944C52.6103 119.941 48.5982 118.863 45.0615 116.819C41.5248 114.775 38.5879 111.837 36.5457 108.299C34.5036 104.762 33.4279 100.749 33.4267 96.6642C33.4267 96.0569 33.4516 95.4524 33.4978 94.8513L37.6694 99.0229L42.3866 94.3056L32.3796 84.2986C31.7541 83.6731 30.9056 83.3217 30.021 83.3217C29.1363 83.3217 28.2879 83.6731 27.6624 84.2986L17.6554 94.3056L22.3726 99.0229L26.8331 94.5623C26.7847 95.2601 26.7554 95.9606 26.7554 96.6642C26.7643 104.605 29.9227 112.218 35.5377 117.833C41.1526 123.448 48.7655 126.606 56.7063 126.615Z" fill="#013475"/>
<path d="M83.3916 110.007C83.8297 110.007 84.2637 109.921 84.6684 109.754C85.0732 109.586 85.4408 109.34 85.7502 109.03L95.7572 99.0228L91.04 94.3056L86.5795 98.7661C86.6279 98.0683 86.6572 97.3679 86.6572 96.6642C86.6561 91.403 85.2693 86.2349 82.6365 81.6798C80.0038 77.1247 76.2178 73.3433 71.6596 70.716C67.1013 68.0887 61.9315 66.7082 56.6703 66.7133C51.4091 66.7184 46.242 68.1091 41.6889 70.7452L45.0384 76.5147C48.5776 74.4672 52.5935 73.3876 56.6823 73.3846C60.7711 73.3816 64.7886 74.4553 68.3308 76.4976C71.873 78.5399 74.815 81.4789 76.8609 85.019C78.9069 88.5591 79.9847 92.5754 79.9859 96.6642C79.9859 97.2715 79.961 97.876 79.9148 98.4771L75.7432 94.3056L71.026 99.0228L81.033 109.03C81.3424 109.34 81.71 109.586 82.1148 109.754C82.5196 109.921 82.9535 110.007 83.3916 110.007Z" fill="#013475"/>
<path d="M113.413 40.028H106.741V106.601H113.413V40.028Z" fill="#013475"/>
<path d="M93.3986 173.315H153.441C153.879 173.315 154.312 173.228 154.717 173.061C155.122 172.893 155.49 172.647 155.799 172.338C156.109 172.028 156.355 171.66 156.522 171.256C156.69 170.851 156.776 170.417 156.776 169.979V116.608C156.776 116.17 156.69 115.737 156.522 115.332C156.355 114.927 156.109 114.559 155.799 114.25C155.49 113.94 155.122 113.694 154.717 113.527C154.312 113.359 153.879 113.273 153.441 113.273H93.3986C92.9606 113.273 92.5268 113.359 92.1221 113.527C91.7174 113.694 91.3497 113.94 91.0399 114.25C90.7302 114.559 90.4845 114.927 90.3168 115.332C90.1492 115.737 90.0629 116.17 90.0629 116.608V169.979C90.0629 170.417 90.1492 170.851 90.3168 171.256C90.4845 171.66 90.7302 172.028 91.0399 172.338C91.3497 172.647 91.7174 172.893 92.1221 173.061C92.5268 173.228 92.9606 173.315 93.3986 173.315ZM150.105 166.643H96.7343V146.629H150.105V166.643ZM96.7343 119.944H150.105V139.958H96.7343V119.944Z" fill="#013475"/>
<path d="M110.077 153.301H103.406V159.972H110.077V153.301Z" fill="#013475"/>
<path d="M123.42 153.301H116.748V159.972H123.42V153.301Z" fill="#013475"/>
<path d="M143.434 153.301H130.091V159.972H143.434V153.301Z" fill="#013475"/>
<path d="M110.077 126.615H103.406V133.287H110.077V126.615Z" fill="#013475"/>
<path d="M123.42 126.615H116.748V133.287H123.42V126.615Z" fill="#013475"/>
<path d="M143.434 126.615H130.091V133.287H143.434V126.615Z" fill="#013475"/>
<path d="M196.648 93.3929C195.709 92.3037 194.546 91.4299 193.239 90.8311C191.931 90.2323 190.51 89.9226 189.072 89.9231H133.427V96.5944H176.789C177.268 96.5944 177.742 96.6977 178.178 96.8972C178.614 97.0968 179.001 97.388 179.315 97.751C179.628 98.1139 179.859 98.5401 179.993 99.0005C180.126 99.4609 180.159 99.9447 180.089 100.419L168.723 177.139C168.602 177.929 168.203 178.649 167.598 179.171C166.993 179.693 166.222 179.982 165.423 179.986H67.7744C67.2951 179.986 66.8213 179.883 66.3855 179.683C65.9496 179.484 65.562 179.192 65.2488 178.829C64.9357 178.466 64.7044 178.04 64.5709 177.58C64.4373 177.119 64.4045 176.636 64.4748 176.162L65.8124 167.132L59.2131 166.155L57.8755 175.184C57.6361 176.799 57.7956 178.447 58.34 179.986H10.007C7.35297 179.986 4.80766 181.04 2.93098 182.917C1.05431 184.794 0 187.339 0 189.993C0 192.647 1.05431 195.192 2.93098 197.069C4.80766 198.946 7.35297 200 10.007 200H176.79C178.668 200.002 180.508 199.474 182.1 198.479C183.692 197.483 184.971 196.06 185.792 194.371C186.612 192.682 186.941 190.796 186.74 188.929C186.538 187.062 185.815 185.29 184.654 183.815C186.239 182.293 187.277 180.29 187.605 178.117L198.971 101.397C199.182 99.974 199.084 98.5225 198.683 97.1413C198.282 95.7601 197.588 94.4815 196.648 93.3929ZM6.67133 189.993C6.67234 189.109 7.0241 188.261 7.64944 187.635C8.27478 187.01 9.12263 186.658 10.007 186.657H83.9654C83.2004 188.815 83.2004 191.171 83.9654 193.329H10.007C9.12263 193.328 8.27478 192.976 7.64944 192.351C7.0241 191.725 6.67234 190.877 6.67133 189.993ZM176.79 193.329H93.3986C92.5139 193.329 91.6655 192.977 91.0399 192.352C90.4144 191.726 90.0629 190.878 90.0629 189.993C90.0629 189.108 90.4144 188.26 91.0399 187.634C91.6655 187.009 92.5139 186.657 93.3986 186.657H176.79C177.675 186.657 178.523 187.009 179.149 187.634C179.774 188.26 180.126 189.108 180.126 189.993C180.126 190.878 179.774 191.726 179.149 192.352C178.523 192.977 177.675 193.329 176.79 193.329ZM192.371 100.419L181.005 177.139C180.884 177.929 180.486 178.649 179.881 179.171C179.276 179.693 178.505 179.982 177.706 179.986H174.85C175.068 179.38 175.226 178.754 175.322 178.117L186.688 101.397C186.927 99.7819 186.768 98.1332 186.223 96.5944H189.072C189.551 96.5944 190.025 96.6977 190.461 96.8973C190.897 97.0969 191.284 97.3881 191.597 97.7511C191.91 98.114 192.142 98.5402 192.275 99.0006C192.409 99.4609 192.442 99.9447 192.371 100.419Z" fill="#013475"/>
</svg>
