<svg width="309" height="200" viewBox="0 0 309 200" fill="none" xmlns="http://www.w3.org/2000/svg">
<path d="M186.72 28.2027H121.454V105.188H96.9159L154.087 161.517L211.258 105.188H186.72V28.2027ZM187.76 114.819L154.087 148L120.414 114.824H131.085V37.8332H177.094V114.819H187.76Z" fill="#013475"/>
<path d="M284.098 12.0862C284.098 5.41712 278.7 0 272.06 0H36.1141C31.0389 0 26.71 3.17804 24.9428 7.64656C24.3987 9.02853 24.0761 10.5164 24.0761 12.0862V179.169H0V188.005L14.4649 200H291.821L308.174 188.01V179.174H284.098V12.0862ZM274.467 179.174H186.989L182.391 184.013H125.783L121.185 179.174H33.7065V12.0862C33.7065 11.7058 33.8125 11.3591 33.9714 11.0317C34.371 10.2227 35.18 9.63525 36.1141 9.63525H272.06C273.365 9.63525 274.467 10.7572 274.467 12.0862V179.174Z" fill="#013475"/>
</svg>
