<svg width="277" height="100" viewBox="0 0 277 100" fill="none" xmlns="http://www.w3.org/2000/svg">
<path d="M30.2361 62.6222C36.775 62.6222 41.9861 57.1056 41.9861 48.9389C42.4917 42.5278 37.7083 36.9222 31.2972 36.4111C30.9472 36.3833 30.5917 36.3722 30.2361 36.3778C23.4028 36.3778 19.825 42.4056 19.825 49.6556C19.8194 57.9278 24.7194 62.6222 30.2361 62.6222ZM59.7472 70.4833C59.7472 92.3333 49.1361 99.3778 27.6861 99.3778C20.775 99.3945 13.9028 98.2611 7.36389 96.0111L8.28055 81.5056C13.7972 84.4889 19.9861 86 26.2583 85.9C36.8806 85.9 42.5972 80.9 42.5972 70.4833V67.6167H42.3917C38.3917 73.5167 31.6417 76.95 24.5194 76.7056C9.91389 76.7056 0.830553 65.6833 0.830553 49.9444C0.830553 34.1111 8.28055 22.2722 24.825 22.2722C32.3694 22.3333 39.2861 26.4778 42.8972 33.1H43.1083V23.5111H59.7472V70.4833Z" fill="#2864AE"/>
<path d="M133.853 76.6445H154.303L173.531 23.7722H155.669L144.825 61.4389H144.625L133.864 23.7722H114.586L133.853 76.6445Z" fill="#48AD45"/>
<path d="M102.642 50.2222C102.642 42.3111 99.1917 35.3111 90.7694 35.3111C82.3472 35.3111 78.9028 42.3111 78.9028 50.2222C78.9028 58.0333 82.3528 65.0333 90.7694 65.0333C99.1861 65.0333 102.642 58.0333 102.642 50.2222ZM60.0361 50.2222C60.0361 32.6722 73.3194 22.5389 90.7694 22.5389C108.219 22.5389 121.503 32.6833 121.503 50.2222C121.503 67.6722 108.219 77.8111 90.7694 77.8111C73.3194 77.8111 60.0361 67.6722 60.0361 50.2222Z" fill="#FABD14"/>
<path d="M175.597 69.1722C175.597 73.9611 171.714 77.8389 166.925 77.8389C162.136 77.8389 158.258 73.9556 158.258 69.1667C158.258 64.3833 162.136 60.5056 166.925 60.5C171.708 60.4945 175.592 64.3722 175.597 69.1556C175.597 69.1611 175.597 69.1667 175.597 69.1722Z" fill="#2864AE"/>
<path d="M206.675 36.5778C199.981 36.5778 195.514 42.4556 195.514 50.3722C195.514 58.0833 200.592 63.8722 206.675 63.8722C213.575 63.8722 217.736 58.0833 217.736 49.6611C217.736 42.6667 213.781 36.5778 206.675 36.5778ZM177.253 0.555557H195.625V30.5944H195.831C200.225 25.1278 206.997 22.1389 213.997 22.5833C228.608 22.5833 236.614 36.4778 236.614 49.2667C236.614 64.8889 228.197 77.8833 212.464 77.8833C204.853 78.1778 197.758 74.0167 194.303 67.2278H194.097V76.6722H177.242V0.561113H177.253V0.555557Z" fill="#2864AE"/>
<path d="M274.353 38.4056C272.331 37.9 270.247 37.6944 268.164 37.8C259.642 37.8 254.881 43.9889 254.881 54.3389V76.6667H236.608V23.7722H253.264V33.5167H253.469C255.775 26.8778 262.069 22.4667 269.092 22.5611C271.169 22.5944 273.236 22.8 275.281 23.1667L274.353 38.4056Z" fill="#FABD14"/>
</svg>
