<svg width="421" height="170" viewBox="0 0 421 170" fill="none" xmlns="http://www.w3.org/2000/svg">
<path d="M10.6758 90.9531H3.71484L1.32422 97H0L6.89062 79.7969H7.65234L14.4023 97H13.0547L10.6758 90.9531ZM4.14844 89.875H10.2773L7.94531 83.6992C7.75 83.2148 7.51562 82.543 7.24219 81.6836C7.03125 82.4336 6.80078 83.1133 6.55078 83.7227L4.14844 89.875ZM27.082 90.6133C27.082 92.6914 26.5781 94.3164 25.5703 95.4883C24.5625 96.6523 23.1719 97.2344 21.3984 97.2344C20.2812 97.2344 19.2969 96.9648 18.4453 96.4258C17.5938 95.8867 16.9414 95.1133 16.4883 94.1055C16.0352 93.0977 15.8086 91.9336 15.8086 90.6133C15.8086 88.5352 16.3125 86.918 17.3203 85.7617C18.3281 84.5977 19.7109 84.0156 21.4688 84.0156C23.2188 84.0156 24.5898 84.6055 25.582 85.7852C26.582 86.957 27.082 88.5664 27.082 90.6133ZM17.0273 90.6133C17.0273 92.3633 17.4102 93.7305 18.1758 94.7148C18.9492 95.6914 20.0391 96.1797 21.4453 96.1797C22.8516 96.1797 23.9375 95.6914 24.7031 94.7148C25.4766 93.7305 25.8633 92.3633 25.8633 90.6133C25.8633 88.8555 25.4727 87.4922 24.6914 86.5234C23.918 85.5547 22.8281 85.0703 21.4219 85.0703C20.0156 85.0703 18.9297 85.5547 18.1641 86.5234C17.4062 87.4844 17.0273 88.8477 17.0273 90.6133ZM38.0039 97H36.8438V78.7656H38.0039V97ZM50.0156 97L49.7227 94.9844H49.6289C48.9883 95.8047 48.3281 96.3867 47.6484 96.7305C46.9766 97.0664 46.1797 97.2344 45.2578 97.2344C44.0078 97.2344 43.0352 96.9141 42.3398 96.2734C41.6445 95.6328 41.2969 94.7461 41.2969 93.6133C41.2969 92.3711 41.8125 91.4062 42.8438 90.7188C43.8828 90.0312 45.3828 89.668 47.3438 89.6289L49.7695 89.5586V88.7148C49.7695 87.5039 49.5234 86.5898 49.0312 85.9727C48.5391 85.3555 47.7461 85.0469 46.6523 85.0469C45.4727 85.0469 44.25 85.375 42.9844 86.0312L42.5508 85.0234C43.9492 84.3672 45.332 84.0391 46.6992 84.0391C48.0977 84.0391 49.1406 84.4023 49.8281 85.1289C50.5234 85.8555 50.8711 86.9883 50.8711 88.5273V97H50.0156ZM45.3281 96.1797C46.6875 96.1797 47.7578 95.793 48.5391 95.0195C49.3281 94.2383 49.7227 93.1562 49.7227 91.7734V90.5195L47.4961 90.6133C45.707 90.6992 44.4297 90.9805 43.6641 91.457C42.9062 91.9258 42.5273 92.6602 42.5273 93.6602C42.5273 94.457 42.7695 95.0781 43.2539 95.5234C43.7461 95.9609 44.4375 96.1797 45.3281 96.1797ZM59.6719 84.0156C60.5938 84.0156 61.3906 84.1836 62.0625 84.5195C62.7344 84.8555 63.3359 85.4297 63.8672 86.2422H63.9375C63.8906 85.2578 63.8672 84.293 63.8672 83.3477V78.7656H65.0156V97H64.2539L63.9609 95.0547H63.8672C62.8984 96.5078 61.5078 97.2344 59.6953 97.2344C57.9375 97.2344 56.5938 96.6875 55.6641 95.5938C54.7344 94.5 54.2695 92.9062 54.2695 90.8125C54.2695 88.6094 54.7305 86.9258 55.6523 85.7617C56.5742 84.5977 57.9141 84.0156 59.6719 84.0156ZM59.6719 85.0703C58.2812 85.0703 57.2344 85.5586 56.5312 86.5352C55.8359 87.5117 55.4883 88.9297 55.4883 90.7891C55.4883 94.3984 56.8906 96.2031 59.6953 96.2031C61.1328 96.2031 62.1875 95.7852 62.8594 94.9492C63.5312 94.1133 63.8672 92.7344 63.8672 90.8125V90.6133C63.8672 88.6445 63.5352 87.2305 62.8711 86.3711C62.2148 85.5039 61.1484 85.0703 59.6719 85.0703ZM79.8398 90.6133C79.8398 92.6914 79.3359 94.3164 78.3281 95.4883C77.3203 96.6523 75.9297 97.2344 74.1562 97.2344C73.0391 97.2344 72.0547 96.9648 71.2031 96.4258C70.3516 95.8867 69.6992 95.1133 69.2461 94.1055C68.793 93.0977 68.5664 91.9336 68.5664 90.6133C68.5664 88.5352 69.0703 86.918 70.0781 85.7617C71.0859 84.5977 72.4688 84.0156 74.2266 84.0156C75.9766 84.0156 77.3477 84.6055 78.3398 85.7852C79.3398 86.957 79.8398 88.5664 79.8398 90.6133ZM69.7852 90.6133C69.7852 92.3633 70.168 93.7305 70.9336 94.7148C71.707 95.6914 72.7969 96.1797 74.2031 96.1797C75.6094 96.1797 76.6953 95.6914 77.4609 94.7148C78.2344 93.7305 78.6211 92.3633 78.6211 90.6133C78.6211 88.8555 78.2305 87.4922 77.4492 86.5234C76.6758 85.5547 75.5859 85.0703 74.1797 85.0703C72.7734 85.0703 71.6875 85.5547 70.9219 86.5234C70.1641 87.4844 69.7852 88.8477 69.7852 90.6133ZM92.3906 97L87.4688 84.2617H88.6641L91.957 92.9219C92.3945 94.0312 92.7227 95 92.9414 95.8281H93.0117C93.332 94.7656 93.6602 93.7891 93.9961 92.8984L97.2891 84.2617H98.4844L93.5625 97H92.3906ZM111.152 90.6133C111.152 92.6914 110.648 94.3164 109.641 95.4883C108.633 96.6523 107.242 97.2344 105.469 97.2344C104.352 97.2344 103.367 96.9648 102.516 96.4258C101.664 95.8867 101.012 95.1133 100.559 94.1055C100.105 93.0977 99.8789 91.9336 99.8789 90.6133C99.8789 88.5352 100.383 86.918 101.391 85.7617C102.398 84.5977 103.781 84.0156 105.539 84.0156C107.289 84.0156 108.66 84.6055 109.652 85.7852C110.652 86.957 111.152 88.5664 111.152 90.6133ZM101.098 90.6133C101.098 92.3633 101.48 93.7305 102.246 94.7148C103.02 95.6914 104.109 96.1797 105.516 96.1797C106.922 96.1797 108.008 95.6914 108.773 94.7148C109.547 93.7305 109.934 92.3633 109.934 90.6133C109.934 88.8555 109.543 87.4922 108.762 86.5234C107.988 85.5547 106.898 85.0703 105.492 85.0703C104.086 85.0703 103 85.5547 102.234 86.5234C101.477 87.4844 101.098 88.8477 101.098 90.6133ZM119.766 97.2344C117.945 97.2344 116.52 96.6602 115.488 95.5117C114.457 94.3633 113.941 92.7617 113.941 90.707C113.941 88.5977 114.477 86.957 115.547 85.7852C116.617 84.6055 118.082 84.0156 119.941 84.0156C121.043 84.0156 122.098 84.207 123.105 84.5898L122.789 85.6211C121.688 85.2539 120.73 85.0703 119.918 85.0703C118.355 85.0703 117.172 85.5547 116.367 86.5234C115.562 87.4844 115.16 88.8711 115.16 90.6836C115.16 92.4023 115.562 93.75 116.367 94.7266C117.172 95.6953 118.297 96.1797 119.742 96.1797C120.898 96.1797 121.973 95.9727 122.965 95.5586V96.6367C122.152 97.0352 121.086 97.2344 119.766 97.2344ZM131.238 97.2344C129.387 97.2344 127.941 96.6641 126.902 95.5234C125.871 94.3828 125.355 92.7852 125.355 90.7305C125.355 88.6992 125.855 87.0742 126.855 85.8555C127.855 84.6289 129.203 84.0156 130.898 84.0156C132.398 84.0156 133.582 84.5391 134.449 85.5859C135.316 86.6328 135.75 88.0547 135.75 89.8516V90.7891H126.574C126.59 92.5391 126.996 93.875 127.793 94.7969C128.598 95.7188 129.746 96.1797 131.238 96.1797C131.965 96.1797 132.602 96.1289 133.148 96.0273C133.703 95.9258 134.402 95.707 135.246 95.3711V96.4258C134.527 96.7383 133.863 96.9492 133.254 97.0586C132.645 97.1758 131.973 97.2344 131.238 97.2344ZM130.898 85.0469C129.672 85.0469 128.688 85.4531 127.945 86.2656C127.203 87.0703 126.77 88.2344 126.645 89.7578H134.52C134.52 88.2812 134.199 87.1289 133.559 86.3008C132.918 85.4648 132.031 85.0469 130.898 85.0469ZM127.359 82.2695C127.844 81.7461 128.355 81.1367 128.895 80.4414C129.441 79.7461 129.875 79.1367 130.195 78.6133H131.344C131.875 79.5508 132.82 80.7695 134.18 82.2695V82.457H133.359C132.406 81.668 131.543 80.8594 130.77 80.0312C129.926 80.9219 129.062 81.7305 128.18 82.457H127.359V82.2695ZM150.949 97.2344C148.988 97.2344 147.559 96.5 146.66 95.0312H146.578L146.613 96.0156C146.645 96.5938 146.66 97.2266 146.66 97.9141V102.766H145.5V84.2617H146.484L146.707 86.0781H146.777C147.652 84.7031 149.051 84.0156 150.973 84.0156C152.691 84.0156 154 84.582 154.898 85.7148C155.805 86.8398 156.258 88.4805 156.258 90.6367C156.258 92.7305 155.781 94.3555 154.828 95.5117C153.883 96.6602 152.59 97.2344 150.949 97.2344ZM150.926 96.2031C152.23 96.2031 153.238 95.7188 153.949 94.75C154.668 93.7812 155.027 92.4258 155.027 90.6836C155.027 86.9414 153.676 85.0703 150.973 85.0703C149.488 85.0703 148.398 85.4805 147.703 86.3008C147.008 87.1133 146.66 88.4414 146.66 90.2852V90.6602C146.66 92.6523 146.992 94.0742 147.656 94.9258C148.328 95.7773 149.418 96.2031 150.926 96.2031ZM170.332 90.6133C170.332 92.6914 169.828 94.3164 168.82 95.4883C167.812 96.6523 166.422 97.2344 164.648 97.2344C163.531 97.2344 162.547 96.9648 161.695 96.4258C160.844 95.8867 160.191 95.1133 159.738 94.1055C159.285 93.0977 159.059 91.9336 159.059 90.6133C159.059 88.5352 159.562 86.918 160.57 85.7617C161.578 84.5977 162.961 84.0156 164.719 84.0156C166.469 84.0156 167.84 84.6055 168.832 85.7852C169.832 86.957 170.332 88.5664 170.332 90.6133ZM160.277 90.6133C160.277 92.3633 160.66 93.7305 161.426 94.7148C162.199 95.6914 163.289 96.1797 164.695 96.1797C166.102 96.1797 167.188 95.6914 167.953 94.7148C168.727 93.7305 169.113 92.3633 169.113 90.6133C169.113 88.8555 168.723 87.4922 167.941 86.5234C167.168 85.5547 166.078 85.0703 164.672 85.0703C163.266 85.0703 162.18 85.5547 161.414 86.5234C160.656 87.4844 160.277 88.8477 160.277 90.6133ZM178.523 84.0156C179.445 84.0156 180.242 84.1836 180.914 84.5195C181.586 84.8555 182.188 85.4297 182.719 86.2422H182.789C182.742 85.2578 182.719 84.293 182.719 83.3477V78.7656H183.867V97H183.105L182.812 95.0547H182.719C181.75 96.5078 180.359 97.2344 178.547 97.2344C176.789 97.2344 175.445 96.6875 174.516 95.5938C173.586 94.5 173.121 92.9062 173.121 90.8125C173.121 88.6094 173.582 86.9258 174.504 85.7617C175.426 84.5977 176.766 84.0156 178.523 84.0156ZM178.523 85.0703C177.133 85.0703 176.086 85.5586 175.383 86.5352C174.688 87.5117 174.34 88.9297 174.34 90.7891C174.34 94.3984 175.742 96.2031 178.547 96.2031C179.984 96.2031 181.039 95.7852 181.711 94.9492C182.383 94.1133 182.719 92.7344 182.719 90.8125V90.6133C182.719 88.6445 182.387 87.2305 181.723 86.3711C181.066 85.5039 180 85.0703 178.523 85.0703ZM193.301 97.2344C191.449 97.2344 190.004 96.6641 188.965 95.5234C187.934 94.3828 187.418 92.7852 187.418 90.7305C187.418 88.6992 187.918 87.0742 188.918 85.8555C189.918 84.6289 191.266 84.0156 192.961 84.0156C194.461 84.0156 195.645 84.5391 196.512 85.5859C197.379 86.6328 197.812 88.0547 197.812 89.8516V90.7891H188.637C188.652 92.5391 189.059 93.875 189.855 94.7969C190.66 95.7188 191.809 96.1797 193.301 96.1797C194.027 96.1797 194.664 96.1289 195.211 96.0273C195.766 95.9258 196.465 95.707 197.309 95.3711V96.4258C196.59 96.7383 195.926 96.9492 195.316 97.0586C194.707 97.1758 194.035 97.2344 193.301 97.2344ZM192.961 85.0469C191.734 85.0469 190.75 85.4531 190.008 86.2656C189.266 87.0703 188.832 88.2344 188.707 89.7578H196.582C196.582 88.2812 196.262 87.1289 195.621 86.3008C194.98 85.4648 194.094 85.0469 192.961 85.0469ZM218.098 90.6133C218.098 92.6914 217.594 94.3164 216.586 95.4883C215.578 96.6523 214.188 97.2344 212.414 97.2344C211.297 97.2344 210.312 96.9648 209.461 96.4258C208.609 95.8867 207.957 95.1133 207.504 94.1055C207.051 93.0977 206.824 91.9336 206.824 90.6133C206.824 88.5352 207.328 86.918 208.336 85.7617C209.344 84.5977 210.727 84.0156 212.484 84.0156C214.234 84.0156 215.605 84.6055 216.598 85.7852C217.598 86.957 218.098 88.5664 218.098 90.6133ZM208.043 90.6133C208.043 92.3633 208.426 93.7305 209.191 94.7148C209.965 95.6914 211.055 96.1797 212.461 96.1797C213.867 96.1797 214.953 95.6914 215.719 94.7148C216.492 93.7305 216.879 92.3633 216.879 90.6133C216.879 88.8555 216.488 87.4922 215.707 86.5234C214.934 85.5547 213.844 85.0703 212.438 85.0703C211.031 85.0703 209.945 85.5547 209.18 86.5234C208.422 87.4844 208.043 88.8477 208.043 90.6133ZM227.004 84.0156C228.785 84.0156 230.125 84.5781 231.023 85.7031C231.93 86.8203 232.383 88.457 232.383 90.6133C232.383 92.7305 231.906 94.3633 230.953 95.5117C230.008 96.6602 228.676 97.2344 226.957 97.2344C226.051 97.2344 225.234 97.0469 224.508 96.6719C223.781 96.2969 223.207 95.7656 222.785 95.0781H222.68L222.352 97H221.625V78.7656H222.785V83.3477C222.785 84.0352 222.77 84.668 222.738 85.2461L222.703 86.2422H222.785C223.27 85.4766 223.852 84.9141 224.531 84.5547C225.219 84.1953 226.043 84.0156 227.004 84.0156ZM226.98 85.0703C225.48 85.0703 224.406 85.5 223.758 86.3594C223.109 87.2188 222.785 88.6367 222.785 90.6133V90.8125C222.785 92.7344 223.121 94.1133 223.793 94.9492C224.473 95.7852 225.527 96.2031 226.957 96.2031C228.348 96.2031 229.395 95.7188 230.098 94.75C230.801 93.7734 231.152 92.3867 231.152 90.5898C231.152 86.9102 229.762 85.0703 226.98 85.0703ZM243.82 93.6836C243.82 94.8242 243.387 95.7031 242.52 96.3203C241.652 96.9297 240.422 97.2344 238.828 97.2344C237.125 97.2344 235.773 96.9727 234.773 96.4492V95.1953C236.055 95.8359 237.406 96.1562 238.828 96.1562C240.086 96.1562 241.039 95.9492 241.688 95.5352C242.344 95.1133 242.672 94.5547 242.672 93.8594C242.672 93.2188 242.41 92.6797 241.887 92.2422C241.371 91.8047 240.52 91.375 239.332 90.9531C238.059 90.4922 237.164 90.0977 236.648 89.7695C236.133 89.4336 235.742 89.0586 235.477 88.6445C235.219 88.2227 235.09 87.7109 235.09 87.1094C235.09 86.1562 235.488 85.4023 236.285 84.8477C237.09 84.293 238.211 84.0156 239.648 84.0156C241.023 84.0156 242.328 84.2734 243.562 84.7891L243.129 85.8438C241.879 85.3281 240.719 85.0703 239.648 85.0703C238.609 85.0703 237.785 85.2422 237.176 85.5859C236.566 85.9297 236.262 86.4062 236.262 87.0156C236.262 87.6797 236.496 88.2109 236.965 88.6094C237.441 89.0078 238.367 89.4531 239.742 89.9453C240.891 90.3594 241.727 90.7344 242.25 91.0703C242.773 91.3984 243.164 91.7734 243.422 92.1953C243.688 92.6172 243.82 93.1133 243.82 93.6836ZM252.246 97.2344C250.395 97.2344 248.949 96.6641 247.91 95.5234C246.879 94.3828 246.363 92.7852 246.363 90.7305C246.363 88.6992 246.863 87.0742 247.863 85.8555C248.863 84.6289 250.211 84.0156 251.906 84.0156C253.406 84.0156 254.59 84.5391 255.457 85.5859C256.324 86.6328 256.758 88.0547 256.758 89.8516V90.7891H247.582C247.598 92.5391 248.004 93.875 248.801 94.7969C249.605 95.7188 250.754 96.1797 252.246 96.1797C252.973 96.1797 253.609 96.1289 254.156 96.0273C254.711 95.9258 255.41 95.707 256.254 95.3711V96.4258C255.535 96.7383 254.871 96.9492 254.262 97.0586C253.652 97.1758 252.98 97.2344 252.246 97.2344ZM251.906 85.0469C250.68 85.0469 249.695 85.4531 248.953 86.2656C248.211 87.0703 247.777 88.2344 247.652 89.7578H255.527C255.527 88.2812 255.207 87.1289 254.566 86.3008C253.926 85.4648 253.039 85.0469 251.906 85.0469ZM265.289 84.0156C265.828 84.0156 266.406 84.0703 267.023 84.1797L266.801 85.293C266.27 85.1602 265.719 85.0938 265.148 85.0938C264.062 85.0938 263.172 85.5547 262.477 86.4766C261.781 87.3984 261.434 88.5625 261.434 89.9688V97H260.273V84.2617H261.258L261.375 86.5586H261.457C261.98 85.6211 262.539 84.9648 263.133 84.5898C263.727 84.207 264.445 84.0156 265.289 84.0156ZM272.414 97L267.492 84.2617H268.688L271.98 92.9219C272.418 94.0312 272.746 95 272.965 95.8281H273.035C273.355 94.7656 273.684 93.7891 274.02 92.8984L277.312 84.2617H278.508L273.586 97H272.414ZM288.375 97L288.082 94.9844H287.988C287.348 95.8047 286.688 96.3867 286.008 96.7305C285.336 97.0664 284.539 97.2344 283.617 97.2344C282.367 97.2344 281.395 96.9141 280.699 96.2734C280.004 95.6328 279.656 94.7461 279.656 93.6133C279.656 92.3711 280.172 91.4062 281.203 90.7188C282.242 90.0312 283.742 89.668 285.703 89.6289L288.129 89.5586V88.7148C288.129 87.5039 287.883 86.5898 287.391 85.9727C286.898 85.3555 286.105 85.0469 285.012 85.0469C283.832 85.0469 282.609 85.375 281.344 86.0312L280.91 85.0234C282.309 84.3672 283.691 84.0391 285.059 84.0391C286.457 84.0391 287.5 84.4023 288.188 85.1289C288.883 85.8555 289.23 86.9883 289.23 88.5273V97H288.375ZM283.688 96.1797C285.047 96.1797 286.117 95.793 286.898 95.0195C287.688 94.2383 288.082 93.1562 288.082 91.7734V90.5195L285.855 90.6133C284.066 90.6992 282.789 90.9805 282.023 91.457C281.266 91.9258 280.887 92.6602 280.887 93.6602C280.887 94.457 281.129 95.0781 281.613 95.5234C282.105 95.9609 282.797 96.1797 283.688 96.1797ZM298.383 84.0156C298.922 84.0156 299.5 84.0703 300.117 84.1797L299.895 85.293C299.363 85.1602 298.812 85.0938 298.242 85.0938C297.156 85.0938 296.266 85.5547 295.57 86.4766C294.875 87.3984 294.527 88.5625 294.527 89.9688V97H293.367V84.2617H294.352L294.469 86.5586H294.551C295.074 85.6211 295.633 84.9648 296.227 84.5898C296.82 84.207 297.539 84.0156 298.383 84.0156ZM316.688 97L316.395 94.9844H316.301C315.66 95.8047 315 96.3867 314.32 96.7305C313.648 97.0664 312.852 97.2344 311.93 97.2344C310.68 97.2344 309.707 96.9141 309.012 96.2734C308.316 95.6328 307.969 94.7461 307.969 93.6133C307.969 92.3711 308.484 91.4062 309.516 90.7188C310.555 90.0312 312.055 89.668 314.016 89.6289L316.441 89.5586V88.7148C316.441 87.5039 316.195 86.5898 315.703 85.9727C315.211 85.3555 314.418 85.0469 313.324 85.0469C312.145 85.0469 310.922 85.375 309.656 86.0312L309.223 85.0234C310.621 84.3672 312.004 84.0391 313.371 84.0391C314.77 84.0391 315.812 84.4023 316.5 85.1289C317.195 85.8555 317.543 86.9883 317.543 88.5273V97H316.688ZM312 96.1797C313.359 96.1797 314.43 95.793 315.211 95.0195C316 94.2383 316.395 93.1562 316.395 91.7734V90.5195L314.168 90.6133C312.379 90.6992 311.102 90.9805 310.336 91.457C309.578 91.9258 309.199 92.6602 309.199 93.6602C309.199 94.457 309.441 95.0781 309.926 95.5234C310.418 95.9609 311.109 96.1797 312 96.1797ZM329.578 93.6836C329.578 94.8242 329.145 95.7031 328.277 96.3203C327.41 96.9297 326.18 97.2344 324.586 97.2344C322.883 97.2344 321.531 96.9727 320.531 96.4492V95.1953C321.812 95.8359 323.164 96.1562 324.586 96.1562C325.844 96.1562 326.797 95.9492 327.445 95.5352C328.102 95.1133 328.43 94.5547 328.43 93.8594C328.43 93.2188 328.168 92.6797 327.645 92.2422C327.129 91.8047 326.277 91.375 325.09 90.9531C323.816 90.4922 322.922 90.0977 322.406 89.7695C321.891 89.4336 321.5 89.0586 321.234 88.6445C320.977 88.2227 320.848 87.7109 320.848 87.1094C320.848 86.1562 321.246 85.4023 322.043 84.8477C322.848 84.293 323.969 84.0156 325.406 84.0156C326.781 84.0156 328.086 84.2734 329.32 84.7891L328.887 85.8438C327.637 85.3281 326.477 85.0703 325.406 85.0703C324.367 85.0703 323.543 85.2422 322.934 85.5859C322.324 85.9297 322.02 86.4062 322.02 87.0156C322.02 87.6797 322.254 88.2109 322.723 88.6094C323.199 89.0078 324.125 89.4531 325.5 89.9453C326.648 90.3594 327.484 90.7344 328.008 91.0703C328.531 91.3984 328.922 91.7734 329.18 92.1953C329.445 92.6172 329.578 93.1133 329.578 93.6836ZM344.238 97.2344C342.387 97.2344 340.941 96.6641 339.902 95.5234C338.871 94.3828 338.355 92.7852 338.355 90.7305C338.355 88.6992 338.855 87.0742 339.855 85.8555C340.855 84.6289 342.203 84.0156 343.898 84.0156C345.398 84.0156 346.582 84.5391 347.449 85.5859C348.316 86.6328 348.75 88.0547 348.75 89.8516V90.7891H339.574C339.59 92.5391 339.996 93.875 340.793 94.7969C341.598 95.7188 342.746 96.1797 344.238 96.1797C344.965 96.1797 345.602 96.1289 346.148 96.0273C346.703 95.9258 347.402 95.707 348.246 95.3711V96.4258C347.527 96.7383 346.863 96.9492 346.254 97.0586C345.645 97.1758 344.973 97.2344 344.238 97.2344ZM343.898 85.0469C342.672 85.0469 341.688 85.4531 340.945 86.2656C340.203 87.0703 339.77 88.2344 339.645 89.7578H347.52C347.52 88.2812 347.199 87.1289 346.559 86.3008C345.918 85.4648 345.031 85.0469 343.898 85.0469ZM355.629 96.2031C356.363 96.2031 357.004 96.1406 357.551 96.0156V96.9531C356.988 97.1406 356.34 97.2344 355.605 97.2344C354.48 97.2344 353.648 96.9336 353.109 96.332C352.578 95.7305 352.312 94.7852 352.312 93.4961V85.2695H350.426V84.5898L352.312 84.0625L352.898 81.1797H353.496V84.2617H357.234V85.2695H353.496V93.332C353.496 94.3086 353.668 95.0312 354.012 95.5C354.355 95.9688 354.895 96.2031 355.629 96.2031ZM368.039 97L367.746 94.9844H367.652C367.012 95.8047 366.352 96.3867 365.672 96.7305C365 97.0664 364.203 97.2344 363.281 97.2344C362.031 97.2344 361.059 96.9141 360.363 96.2734C359.668 95.6328 359.32 94.7461 359.32 93.6133C359.32 92.3711 359.836 91.4062 360.867 90.7188C361.906 90.0312 363.406 89.668 365.367 89.6289L367.793 89.5586V88.7148C367.793 87.5039 367.547 86.5898 367.055 85.9727C366.562 85.3555 365.77 85.0469 364.676 85.0469C363.496 85.0469 362.273 85.375 361.008 86.0312L360.574 85.0234C361.973 84.3672 363.355 84.0391 364.723 84.0391C366.121 84.0391 367.164 84.4023 367.852 85.1289C368.547 85.8555 368.895 86.9883 368.895 88.5273V97H368.039ZM363.352 96.1797C364.711 96.1797 365.781 95.793 366.562 95.0195C367.352 94.2383 367.746 93.1562 367.746 91.7734V90.5195L365.52 90.6133C363.73 90.6992 362.453 90.9805 361.688 91.457C360.93 91.9258 360.551 92.6602 360.551 93.6602C360.551 94.457 360.793 95.0781 361.277 95.5234C361.77 95.9609 362.461 96.1797 363.352 96.1797ZM378.48 97.2344C376.52 97.2344 375.09 96.5 374.191 95.0312H374.109L374.145 96.0156C374.176 96.5938 374.191 97.2266 374.191 97.9141V102.766H373.031V84.2617H374.016L374.238 86.0781H374.309C375.184 84.7031 376.582 84.0156 378.504 84.0156C380.223 84.0156 381.531 84.582 382.43 85.7148C383.336 86.8398 383.789 88.4805 383.789 90.6367C383.789 92.7305 383.312 94.3555 382.359 95.5117C381.414 96.6602 380.121 97.2344 378.48 97.2344ZM378.457 96.2031C379.762 96.2031 380.77 95.7188 381.48 94.75C382.199 93.7812 382.559 92.4258 382.559 90.6836C382.559 86.9414 381.207 85.0703 378.504 85.0703C377.02 85.0703 375.93 85.4805 375.234 86.3008C374.539 87.1133 374.191 88.4414 374.191 90.2852V90.6602C374.191 92.6523 374.523 94.0742 375.188 94.9258C375.859 95.7773 376.949 96.2031 378.457 96.2031ZM395.062 97L394.77 94.9844H394.676C394.035 95.8047 393.375 96.3867 392.695 96.7305C392.023 97.0664 391.227 97.2344 390.305 97.2344C389.055 97.2344 388.082 96.9141 387.387 96.2734C386.691 95.6328 386.344 94.7461 386.344 93.6133C386.344 92.3711 386.859 91.4062 387.891 90.7188C388.93 90.0312 390.43 89.668 392.391 89.6289L394.816 89.5586V88.7148C394.816 87.5039 394.57 86.5898 394.078 85.9727C393.586 85.3555 392.793 85.0469 391.699 85.0469C390.52 85.0469 389.297 85.375 388.031 86.0312L387.598 85.0234C388.996 84.3672 390.379 84.0391 391.746 84.0391C393.145 84.0391 394.188 84.4023 394.875 85.1289C395.57 85.8555 395.918 86.9883 395.918 88.5273V97H395.062ZM390.375 96.1797C391.734 96.1797 392.805 95.793 393.586 95.0195C394.375 94.2383 394.77 93.1562 394.77 91.7734V90.5195L392.543 90.6133C390.754 90.6992 389.477 90.9805 388.711 91.457C387.953 91.9258 387.574 92.6602 387.574 93.6602C387.574 94.457 387.816 95.0781 388.301 95.5234C388.793 95.9609 389.484 96.1797 390.375 96.1797ZM407.953 93.6836C407.953 94.8242 407.52 95.7031 406.652 96.3203C405.785 96.9297 404.555 97.2344 402.961 97.2344C401.258 97.2344 399.906 96.9727 398.906 96.4492V95.1953C400.188 95.8359 401.539 96.1562 402.961 96.1562C404.219 96.1562 405.172 95.9492 405.82 95.5352C406.477 95.1133 406.805 94.5547 406.805 93.8594C406.805 93.2188 406.543 92.6797 406.02 92.2422C405.504 91.8047 404.652 91.375 403.465 90.9531C402.191 90.4922 401.297 90.0977 400.781 89.7695C400.266 89.4336 399.875 89.0586 399.609 88.6445C399.352 88.2227 399.223 87.7109 399.223 87.1094C399.223 86.1562 399.621 85.4023 400.418 84.8477C401.223 84.293 402.344 84.0156 403.781 84.0156C405.156 84.0156 406.461 84.2734 407.695 84.7891L407.262 85.8438C406.012 85.3281 404.852 85.0703 403.781 85.0703C402.742 85.0703 401.918 85.2422 401.309 85.5859C400.699 85.9297 400.395 86.4062 400.395 87.0156C400.395 87.6797 400.629 88.2109 401.098 88.6094C401.574 89.0078 402.5 89.4531 403.875 89.9453C405.023 90.3594 405.859 90.7344 406.383 91.0703C406.906 91.3984 407.297 91.7734 407.555 92.1953C407.82 92.6172 407.953 93.1133 407.953 93.6836ZM11.0156 130V121.738C11.0156 120.457 10.7461 119.527 10.207 118.949C9.66797 118.363 8.83203 118.07 7.69922 118.07C6.17578 118.07 5.05859 118.457 4.34766 119.23C3.64453 119.996 3.29297 121.242 3.29297 122.969V130H2.13281V117.262H3.11719L3.33984 119.008H3.41016C4.23828 117.68 5.71094 117.016 7.82812 117.016C10.7188 117.016 12.1641 118.566 12.1641 121.668V130H11.0156ZM21.4336 130.234C19.582 130.234 18.1367 129.664 17.0977 128.523C16.0664 127.383 15.5508 125.785 15.5508 123.73C15.5508 121.699 16.0508 120.074 17.0508 118.855C18.0508 117.629 19.3984 117.016 21.0938 117.016C22.5938 117.016 23.7773 117.539 24.6445 118.586C25.5117 119.633 25.9453 121.055 25.9453 122.852V123.789H16.7695C16.7852 125.539 17.1914 126.875 17.9883 127.797C18.793 128.719 19.9414 129.18 21.4336 129.18C22.1602 129.18 22.7969 129.129 23.3438 129.027C23.8984 128.926 24.5977 128.707 25.4414 128.371V129.426C24.7227 129.738 24.0586 129.949 23.4492 130.059C22.8398 130.176 22.168 130.234 21.4336 130.234ZM21.0938 118.047C19.8672 118.047 18.8828 118.453 18.1406 119.266C17.3984 120.07 16.9648 121.234 16.8398 122.758H24.7148C24.7148 121.281 24.3945 120.129 23.7539 119.301C23.1133 118.465 22.2266 118.047 21.0938 118.047ZM34.5469 130.234C32.7266 130.234 31.3008 129.66 30.2695 128.512C29.2383 127.363 28.7227 125.762 28.7227 123.707C28.7227 121.598 29.2578 119.957 30.3281 118.785C31.3984 117.605 32.8633 117.016 34.7227 117.016C35.8242 117.016 36.8789 117.207 37.8867 117.59L37.5703 118.621C36.4688 118.254 35.5117 118.07 34.6992 118.07C33.1367 118.07 31.9531 118.555 31.1484 119.523C30.3438 120.484 29.9414 121.871 29.9414 123.684C29.9414 125.402 30.3438 126.75 31.1484 127.727C31.9531 128.695 33.0781 129.18 34.5234 129.18C35.6797 129.18 36.7539 128.973 37.7461 128.559V129.637C36.9336 130.035 35.8672 130.234 34.5469 130.234ZM46.0195 130.234C44.168 130.234 42.7227 129.664 41.6836 128.523C40.6523 127.383 40.1367 125.785 40.1367 123.73C40.1367 121.699 40.6367 120.074 41.6367 118.855C42.6367 117.629 43.9844 117.016 45.6797 117.016C47.1797 117.016 48.3633 117.539 49.2305 118.586C50.0977 119.633 50.5312 121.055 50.5312 122.852V123.789H41.3555C41.3711 125.539 41.7773 126.875 42.5742 127.797C43.3789 128.719 44.5273 129.18 46.0195 129.18C46.7461 129.18 47.3828 129.129 47.9297 129.027C48.4844 128.926 49.1836 128.707 50.0273 128.371V129.426C49.3086 129.738 48.6445 129.949 48.0352 130.059C47.4258 130.176 46.7539 130.234 46.0195 130.234ZM45.6797 118.047C44.4531 118.047 43.4688 118.453 42.7266 119.266C41.9844 120.07 41.5508 121.234 41.4258 122.758H49.3008C49.3008 121.281 48.9805 120.129 48.3398 119.301C47.6992 118.465 46.8125 118.047 45.6797 118.047ZM61.9453 126.684C61.9453 127.824 61.5117 128.703 60.6445 129.32C59.7773 129.93 58.5469 130.234 56.9531 130.234C55.25 130.234 53.8984 129.973 52.8984 129.449V128.195C54.1797 128.836 55.5312 129.156 56.9531 129.156C58.2109 129.156 59.1641 128.949 59.8125 128.535C60.4688 128.113 60.7969 127.555 60.7969 126.859C60.7969 126.219 60.5352 125.68 60.0117 125.242C59.4961 124.805 58.6445 124.375 57.457 123.953C56.1836 123.492 55.2891 123.098 54.7734 122.77C54.2578 122.434 53.8672 122.059 53.6016 121.645C53.3438 121.223 53.2148 120.711 53.2148 120.109C53.2148 119.156 53.6133 118.402 54.4102 117.848C55.2148 117.293 56.3359 117.016 57.7734 117.016C59.1484 117.016 60.4531 117.273 61.6875 117.789L61.2539 118.844C60.0039 118.328 58.8438 118.07 57.7734 118.07C56.7344 118.07 55.9102 118.242 55.3008 118.586C54.6914 118.93 54.3867 119.406 54.3867 120.016C54.3867 120.68 54.6211 121.211 55.0898 121.609C55.5664 122.008 56.4922 122.453 57.8672 122.945C59.0156 123.359 59.8516 123.734 60.375 124.07C60.8984 124.398 61.2891 124.773 61.5469 125.195C61.8125 125.617 61.9453 126.113 61.9453 126.684ZM73.125 126.684C73.125 127.824 72.6914 128.703 71.8242 129.32C70.957 129.93 69.7266 130.234 68.1328 130.234C66.4297 130.234 65.0781 129.973 64.0781 129.449V128.195C65.3594 128.836 66.7109 129.156 68.1328 129.156C69.3906 129.156 70.3438 128.949 70.9922 128.535C71.6484 128.113 71.9766 127.555 71.9766 126.859C71.9766 126.219 71.7148 125.68 71.1914 125.242C70.6758 124.805 69.8242 124.375 68.6367 123.953C67.3633 123.492 66.4688 123.098 65.9531 122.77C65.4375 122.434 65.0469 122.059 64.7812 121.645C64.5234 121.223 64.3945 120.711 64.3945 120.109C64.3945 119.156 64.793 118.402 65.5898 117.848C66.3945 117.293 67.5156 117.016 68.9531 117.016C70.3281 117.016 71.6328 117.273 72.8672 117.789L72.4336 118.844C71.1836 118.328 70.0234 118.07 68.9531 118.07C67.9141 118.07 67.0898 118.242 66.4805 118.586C65.8711 118.93 65.5664 119.406 65.5664 120.016C65.5664 120.68 65.8008 121.211 66.2695 121.609C66.7461 122.008 67.6719 122.453 69.0469 122.945C70.1953 123.359 71.0312 123.734 71.5547 124.07C72.0781 124.398 72.4688 124.773 72.7266 125.195C72.9922 125.617 73.125 126.113 73.125 126.684ZM84.1406 130L83.8477 127.984H83.7539C83.1133 128.805 82.4531 129.387 81.7734 129.73C81.1016 130.066 80.3047 130.234 79.3828 130.234C78.1328 130.234 77.1602 129.914 76.4648 129.273C75.7695 128.633 75.4219 127.746 75.4219 126.613C75.4219 125.371 75.9375 124.406 76.9688 123.719C78.0078 123.031 79.5078 122.668 81.4688 122.629L83.8945 122.559V121.715C83.8945 120.504 83.6484 119.59 83.1562 118.973C82.6641 118.355 81.8711 118.047 80.7773 118.047C79.5977 118.047 78.375 118.375 77.1094 119.031L76.6758 118.023C78.0742 117.367 79.457 117.039 80.8242 117.039C82.2227 117.039 83.2656 117.402 83.9531 118.129C84.6484 118.855 84.9961 119.988 84.9961 121.527V130H84.1406ZM79.4531 129.18C80.8125 129.18 81.8828 128.793 82.6641 128.02C83.4531 127.238 83.8477 126.156 83.8477 124.773V123.52L81.6211 123.613C79.832 123.699 78.5547 123.98 77.7891 124.457C77.0312 124.926 76.6523 125.66 76.6523 126.66C76.6523 127.457 76.8945 128.078 77.3789 128.523C77.8711 128.961 78.5625 129.18 79.4531 129.18ZM79.2188 115.27C79.7891 114.652 80.3516 113.984 80.9062 113.266C81.4688 112.539 81.8516 111.988 82.0547 111.613H83.707V111.812C83.4258 112.219 82.9453 112.758 82.2656 113.43C81.5938 114.102 80.8516 114.777 80.0391 115.457H79.2188V115.27ZM94.1484 117.016C94.6875 117.016 95.2656 117.07 95.8828 117.18L95.6602 118.293C95.1289 118.16 94.5781 118.094 94.0078 118.094C92.9219 118.094 92.0312 118.555 91.3359 119.477C90.6406 120.398 90.293 121.562 90.293 122.969V130H89.1328V117.262H90.1172L90.2344 119.559H90.3164C90.8398 118.621 91.3984 117.965 91.9922 117.59C92.5859 117.207 93.3047 117.016 94.1484 117.016ZM99.6445 130H98.4844V117.262H99.6445V130ZM98.3203 113.723C98.3203 112.973 98.5664 112.598 99.0586 112.598C99.3008 112.598 99.4883 112.695 99.6211 112.891C99.7617 113.086 99.832 113.363 99.832 113.723C99.832 114.074 99.7617 114.352 99.6211 114.555C99.4883 114.758 99.3008 114.859 99.0586 114.859C98.5664 114.859 98.3203 114.48 98.3203 113.723ZM111.656 130L111.363 127.984H111.27C110.629 128.805 109.969 129.387 109.289 129.73C108.617 130.066 107.82 130.234 106.898 130.234C105.648 130.234 104.676 129.914 103.98 129.273C103.285 128.633 102.938 127.746 102.938 126.613C102.938 125.371 103.453 124.406 104.484 123.719C105.523 123.031 107.023 122.668 108.984 122.629L111.41 122.559V121.715C111.41 120.504 111.164 119.59 110.672 118.973C110.18 118.355 109.387 118.047 108.293 118.047C107.113 118.047 105.891 118.375 104.625 119.031L104.191 118.023C105.59 117.367 106.973 117.039 108.34 117.039C109.738 117.039 110.781 117.402 111.469 118.129C112.164 118.855 112.512 119.988 112.512 121.527V130H111.656ZM106.969 129.18C108.328 129.18 109.398 128.793 110.18 128.02C110.969 127.238 111.363 126.156 111.363 124.773V123.52L109.137 123.613C107.348 123.699 106.07 123.98 105.305 124.457C104.547 124.926 104.168 125.66 104.168 126.66C104.168 127.457 104.41 128.078 104.895 128.523C105.387 128.961 106.078 129.18 106.969 129.18ZM124.547 126.684C124.547 127.824 124.113 128.703 123.246 129.32C122.379 129.93 121.148 130.234 119.555 130.234C117.852 130.234 116.5 129.973 115.5 129.449V128.195C116.781 128.836 118.133 129.156 119.555 129.156C120.812 129.156 121.766 128.949 122.414 128.535C123.07 128.113 123.398 127.555 123.398 126.859C123.398 126.219 123.137 125.68 122.613 125.242C122.098 124.805 121.246 124.375 120.059 123.953C118.785 123.492 117.891 123.098 117.375 122.77C116.859 122.434 116.469 122.059 116.203 121.645C115.945 121.223 115.816 120.711 115.816 120.109C115.816 119.156 116.215 118.402 117.012 117.848C117.816 117.293 118.938 117.016 120.375 117.016C121.75 117.016 123.055 117.273 124.289 117.789L123.855 118.844C122.605 118.328 121.445 118.07 120.375 118.07C119.336 118.07 118.512 118.242 117.902 118.586C117.293 118.93 116.988 119.406 116.988 120.016C116.988 120.68 117.223 121.211 117.691 121.609C118.168 122.008 119.094 122.453 120.469 122.945C121.617 123.359 122.453 123.734 122.977 124.07C123.5 124.398 123.891 124.773 124.148 125.195C124.414 125.617 124.547 126.113 124.547 126.684ZM139.512 130.234C137.551 130.234 136.121 129.5 135.223 128.031H135.141L135.176 129.016C135.207 129.594 135.223 130.227 135.223 130.914V135.766H134.062V117.262H135.047L135.27 119.078H135.34C136.215 117.703 137.613 117.016 139.535 117.016C141.254 117.016 142.562 117.582 143.461 118.715C144.367 119.84 144.82 121.48 144.82 123.637C144.82 125.73 144.344 127.355 143.391 128.512C142.445 129.66 141.152 130.234 139.512 130.234ZM139.488 129.203C140.793 129.203 141.801 128.719 142.512 127.75C143.23 126.781 143.59 125.426 143.59 123.684C143.59 119.941 142.238 118.07 139.535 118.07C138.051 118.07 136.961 118.48 136.266 119.301C135.57 120.113 135.223 121.441 135.223 123.285V123.66C135.223 125.652 135.555 127.074 136.219 127.926C136.891 128.777 137.98 129.203 139.488 129.203ZM156.094 130L155.801 127.984H155.707C155.066 128.805 154.406 129.387 153.727 129.73C153.055 130.066 152.258 130.234 151.336 130.234C150.086 130.234 149.113 129.914 148.418 129.273C147.723 128.633 147.375 127.746 147.375 126.613C147.375 125.371 147.891 124.406 148.922 123.719C149.961 123.031 151.461 122.668 153.422 122.629L155.848 122.559V121.715C155.848 120.504 155.602 119.59 155.109 118.973C154.617 118.355 153.824 118.047 152.73 118.047C151.551 118.047 150.328 118.375 149.062 119.031L148.629 118.023C150.027 117.367 151.41 117.039 152.777 117.039C154.176 117.039 155.219 117.402 155.906 118.129C156.602 118.855 156.949 119.988 156.949 121.527V130H156.094ZM151.406 129.18C152.766 129.18 153.836 128.793 154.617 128.02C155.406 127.238 155.801 126.156 155.801 124.773V123.52L153.574 123.613C151.785 123.699 150.508 123.98 149.742 124.457C148.984 124.926 148.605 125.66 148.605 126.66C148.605 127.457 148.848 128.078 149.332 128.523C149.824 128.961 150.516 129.18 151.406 129.18ZM166.102 117.016C166.641 117.016 167.219 117.07 167.836 117.18L167.613 118.293C167.082 118.16 166.531 118.094 165.961 118.094C164.875 118.094 163.984 118.555 163.289 119.477C162.594 120.398 162.246 121.562 162.246 122.969V130H161.086V117.262H162.07L162.188 119.559H162.27C162.793 118.621 163.352 117.965 163.945 117.59C164.539 117.207 165.258 117.016 166.102 117.016ZM178.172 130L177.879 127.984H177.785C177.145 128.805 176.484 129.387 175.805 129.73C175.133 130.066 174.336 130.234 173.414 130.234C172.164 130.234 171.191 129.914 170.496 129.273C169.801 128.633 169.453 127.746 169.453 126.613C169.453 125.371 169.969 124.406 171 123.719C172.039 123.031 173.539 122.668 175.5 122.629L177.926 122.559V121.715C177.926 120.504 177.68 119.59 177.188 118.973C176.695 118.355 175.902 118.047 174.809 118.047C173.629 118.047 172.406 118.375 171.141 119.031L170.707 118.023C172.105 117.367 173.488 117.039 174.855 117.039C176.254 117.039 177.297 117.402 177.984 118.129C178.68 118.855 179.027 119.988 179.027 121.527V130H178.172ZM173.484 129.18C174.844 129.18 175.914 128.793 176.695 128.02C177.484 127.238 177.879 126.156 177.879 124.773V123.52L175.652 123.613C173.863 123.699 172.586 123.98 171.82 124.457C171.062 124.926 170.684 125.66 170.684 126.66C170.684 127.457 170.926 128.078 171.41 128.523C171.902 128.961 172.594 129.18 173.484 129.18ZM194.543 130.234C192.691 130.234 191.246 129.664 190.207 128.523C189.176 127.383 188.66 125.785 188.66 123.73C188.66 121.699 189.16 120.074 190.16 118.855C191.16 117.629 192.508 117.016 194.203 117.016C195.703 117.016 196.887 117.539 197.754 118.586C198.621 119.633 199.055 121.055 199.055 122.852V123.789H189.879C189.895 125.539 190.301 126.875 191.098 127.797C191.902 128.719 193.051 129.18 194.543 129.18C195.27 129.18 195.906 129.129 196.453 129.027C197.008 128.926 197.707 128.707 198.551 128.371V129.426C197.832 129.738 197.168 129.949 196.559 130.059C195.949 130.176 195.277 130.234 194.543 130.234ZM194.203 118.047C192.977 118.047 191.992 118.453 191.25 119.266C190.508 120.07 190.074 121.234 189.949 122.758H197.824C197.824 121.281 197.504 120.129 196.863 119.301C196.223 118.465 195.336 118.047 194.203 118.047ZM203.73 130H202.57V111.766H203.73V130ZM215.742 130L215.449 127.984H215.355C214.715 128.805 214.055 129.387 213.375 129.73C212.703 130.066 211.906 130.234 210.984 130.234C209.734 130.234 208.762 129.914 208.066 129.273C207.371 128.633 207.023 127.746 207.023 126.613C207.023 125.371 207.539 124.406 208.57 123.719C209.609 123.031 211.109 122.668 213.07 122.629L215.496 122.559V121.715C215.496 120.504 215.25 119.59 214.758 118.973C214.266 118.355 213.473 118.047 212.379 118.047C211.199 118.047 209.977 118.375 208.711 119.031L208.277 118.023C209.676 117.367 211.059 117.039 212.426 117.039C213.824 117.039 214.867 117.402 215.555 118.129C216.25 118.855 216.598 119.988 216.598 121.527V130H215.742ZM211.055 129.18C212.414 129.18 213.484 128.793 214.266 128.02C215.055 127.238 215.449 126.156 215.449 124.773V123.52L213.223 123.613C211.434 123.699 210.156 123.98 209.391 124.457C208.633 124.926 208.254 125.66 208.254 126.66C208.254 127.457 208.496 128.078 208.98 128.523C209.473 128.961 210.164 129.18 211.055 129.18ZM226.113 117.016C227.895 117.016 229.234 117.578 230.133 118.703C231.039 119.82 231.492 121.457 231.492 123.613C231.492 125.73 231.016 127.363 230.062 128.512C229.117 129.66 227.785 130.234 226.066 130.234C225.16 130.234 224.344 130.047 223.617 129.672C222.891 129.297 222.316 128.766 221.895 128.078H221.789L221.461 130H220.734V111.766H221.895V116.348C221.895 117.035 221.879 117.668 221.848 118.246L221.812 119.242H221.895C222.379 118.477 222.961 117.914 223.641 117.555C224.328 117.195 225.152 117.016 226.113 117.016ZM226.09 118.07C224.59 118.07 223.516 118.5 222.867 119.359C222.219 120.219 221.895 121.637 221.895 123.613V123.812C221.895 125.734 222.23 127.113 222.902 127.949C223.582 128.785 224.637 129.203 226.066 129.203C227.457 129.203 228.504 128.719 229.207 127.75C229.91 126.773 230.262 125.387 230.262 123.59C230.262 119.91 228.871 118.07 226.09 118.07ZM245.566 123.613C245.566 125.691 245.062 127.316 244.055 128.488C243.047 129.652 241.656 130.234 239.883 130.234C238.766 130.234 237.781 129.965 236.93 129.426C236.078 128.887 235.426 128.113 234.973 127.105C234.52 126.098 234.293 124.934 234.293 123.613C234.293 121.535 234.797 119.918 235.805 118.762C236.812 117.598 238.195 117.016 239.953 117.016C241.703 117.016 243.074 117.605 244.066 118.785C245.066 119.957 245.566 121.566 245.566 123.613ZM235.512 123.613C235.512 125.363 235.895 126.73 236.66 127.715C237.434 128.691 238.523 129.18 239.93 129.18C241.336 129.18 242.422 128.691 243.188 127.715C243.961 126.73 244.348 125.363 244.348 123.613C244.348 121.855 243.957 120.492 243.176 119.523C242.402 118.555 241.312 118.07 239.906 118.07C238.5 118.07 237.414 118.555 236.648 119.523C235.891 120.484 235.512 121.848 235.512 123.613ZM254.109 117.016C254.648 117.016 255.227 117.07 255.844 117.18L255.621 118.293C255.09 118.16 254.539 118.094 253.969 118.094C252.883 118.094 251.992 118.555 251.297 119.477C250.602 120.398 250.254 121.562 250.254 122.969V130H249.094V117.262H250.078L250.195 119.559H250.277C250.801 118.621 251.359 117.965 251.953 117.59C252.547 117.207 253.266 117.016 254.109 117.016ZM266.18 130L265.887 127.984H265.793C265.152 128.805 264.492 129.387 263.812 129.73C263.141 130.066 262.344 130.234 261.422 130.234C260.172 130.234 259.199 129.914 258.504 129.273C257.809 128.633 257.461 127.746 257.461 126.613C257.461 125.371 257.977 124.406 259.008 123.719C260.047 123.031 261.547 122.668 263.508 122.629L265.934 122.559V121.715C265.934 120.504 265.688 119.59 265.195 118.973C264.703 118.355 263.91 118.047 262.816 118.047C261.637 118.047 260.414 118.375 259.148 119.031L258.715 118.023C260.113 117.367 261.496 117.039 262.863 117.039C264.262 117.039 265.305 117.402 265.992 118.129C266.688 118.855 267.035 119.988 267.035 121.527V130H266.18ZM261.492 129.18C262.852 129.18 263.922 128.793 264.703 128.02C265.492 127.238 265.887 126.156 265.887 124.773V123.52L263.66 123.613C261.871 123.699 260.594 123.98 259.828 124.457C259.07 124.926 258.691 125.66 258.691 126.66C258.691 127.457 258.934 128.078 259.418 128.523C259.91 128.961 260.602 129.18 261.492 129.18ZM276.188 117.016C276.727 117.016 277.305 117.07 277.922 117.18L277.699 118.293C277.168 118.16 276.617 118.094 276.047 118.094C274.961 118.094 274.07 118.555 273.375 119.477C272.68 120.398 272.332 121.562 272.332 122.969V130H271.172V117.262H272.156L272.273 119.559H272.355C272.879 118.621 273.438 117.965 274.031 117.59C274.625 117.207 275.344 117.016 276.188 117.016ZM294.656 126.684C294.656 127.824 294.223 128.703 293.355 129.32C292.488 129.93 291.258 130.234 289.664 130.234C287.961 130.234 286.609 129.973 285.609 129.449V128.195C286.891 128.836 288.242 129.156 289.664 129.156C290.922 129.156 291.875 128.949 292.523 128.535C293.18 128.113 293.508 127.555 293.508 126.859C293.508 126.219 293.246 125.68 292.723 125.242C292.207 124.805 291.355 124.375 290.168 123.953C288.895 123.492 288 123.098 287.484 122.77C286.969 122.434 286.578 122.059 286.312 121.645C286.055 121.223 285.926 120.711 285.926 120.109C285.926 119.156 286.324 118.402 287.121 117.848C287.926 117.293 289.047 117.016 290.484 117.016C291.859 117.016 293.164 117.273 294.398 117.789L293.965 118.844C292.715 118.328 291.555 118.07 290.484 118.07C289.445 118.07 288.621 118.242 288.012 118.586C287.402 118.93 287.098 119.406 287.098 120.016C287.098 120.68 287.332 121.211 287.801 121.609C288.277 122.008 289.203 122.453 290.578 122.945C291.727 123.359 292.562 123.734 293.086 124.07C293.609 124.398 294 124.773 294.258 125.195C294.523 125.617 294.656 126.113 294.656 126.684ZM298.945 117.262V125.512C298.945 126.793 299.215 127.727 299.754 128.312C300.293 128.891 301.129 129.18 302.262 129.18C303.777 129.18 304.891 128.797 305.602 128.031C306.32 127.266 306.68 126.02 306.68 124.293V117.262H307.828V130H306.844L306.633 128.242H306.562C305.734 129.57 304.262 130.234 302.145 130.234C299.246 130.234 297.797 128.684 297.797 125.582V117.262H298.945ZM319.828 130L319.535 127.984H319.441C318.801 128.805 318.141 129.387 317.461 129.73C316.789 130.066 315.992 130.234 315.07 130.234C313.82 130.234 312.848 129.914 312.152 129.273C311.457 128.633 311.109 127.746 311.109 126.613C311.109 125.371 311.625 124.406 312.656 123.719C313.695 123.031 315.195 122.668 317.156 122.629L319.582 122.559V121.715C319.582 120.504 319.336 119.59 318.844 118.973C318.352 118.355 317.559 118.047 316.465 118.047C315.285 118.047 314.062 118.375 312.797 119.031L312.363 118.023C313.762 117.367 315.145 117.039 316.512 117.039C317.91 117.039 318.953 117.402 319.641 118.129C320.336 118.855 320.684 119.988 320.684 121.527V130H319.828ZM315.141 129.18C316.5 129.18 317.57 128.793 318.352 128.02C319.141 127.238 319.535 126.156 319.535 124.773V123.52L317.309 123.613C315.52 123.699 314.242 123.98 313.477 124.457C312.719 124.926 312.34 125.66 312.34 126.66C312.34 127.457 312.582 128.078 313.066 128.523C313.559 128.961 314.25 129.18 315.141 129.18ZM6.79688 150.016C7.71875 150.016 8.51562 150.184 9.1875 150.52C9.85938 150.855 10.4609 151.43 10.9922 152.242H11.0625C11.0156 151.258 10.9922 150.293 10.9922 149.348V144.766H12.1406V163H11.3789L11.0859 161.055H10.9922C10.0234 162.508 8.63281 163.234 6.82031 163.234C5.0625 163.234 3.71875 162.688 2.78906 161.594C1.85938 160.5 1.39453 158.906 1.39453 156.812C1.39453 154.609 1.85547 152.926 2.77734 151.762C3.69922 150.598 5.03906 150.016 6.79688 150.016ZM6.79688 151.07C5.40625 151.07 4.35938 151.559 3.65625 152.535C2.96094 153.512 2.61328 154.93 2.61328 156.789C2.61328 160.398 4.01562 162.203 6.82031 162.203C8.25781 162.203 9.3125 161.785 9.98438 160.949C10.6562 160.113 10.9922 158.734 10.9922 156.812V156.613C10.9922 154.645 10.6602 153.23 9.99609 152.371C9.33984 151.504 8.27344 151.07 6.79688 151.07ZM21.5742 163.234C19.7227 163.234 18.2773 162.664 17.2383 161.523C16.207 160.383 15.6914 158.785 15.6914 156.73C15.6914 154.699 16.1914 153.074 17.1914 151.855C18.1914 150.629 19.5391 150.016 21.2344 150.016C22.7344 150.016 23.918 150.539 24.7852 151.586C25.6523 152.633 26.0859 154.055 26.0859 155.852V156.789H16.9102C16.9258 158.539 17.332 159.875 18.1289 160.797C18.9336 161.719 20.082 162.18 21.5742 162.18C22.3008 162.18 22.9375 162.129 23.4844 162.027C24.0391 161.926 24.7383 161.707 25.582 161.371V162.426C24.8633 162.738 24.1992 162.949 23.5898 163.059C22.9805 163.176 22.3086 163.234 21.5742 163.234ZM21.2344 151.047C20.0078 151.047 19.0234 151.453 18.2812 152.266C17.5391 153.07 17.1055 154.234 16.9805 155.758H24.8555C24.8555 154.281 24.5352 153.129 23.8945 152.301C23.2539 151.465 22.3672 151.047 21.2344 151.047ZM34.6875 163.234C32.8672 163.234 31.4414 162.66 30.4102 161.512C29.3789 160.363 28.8633 158.762 28.8633 156.707C28.8633 154.598 29.3984 152.957 30.4688 151.785C31.5391 150.605 33.0039 150.016 34.8633 150.016C35.9648 150.016 37.0195 150.207 38.0273 150.59L37.7109 151.621C36.6094 151.254 35.6523 151.07 34.8398 151.07C33.2773 151.07 32.0938 151.555 31.2891 152.523C30.4844 153.484 30.082 154.871 30.082 156.684C30.082 158.402 30.4844 159.75 31.2891 160.727C32.0938 161.695 33.2188 162.18 34.6641 162.18C35.8203 162.18 36.8945 161.973 37.8867 161.559V162.637C37.0742 163.035 36.0078 163.234 34.6875 163.234ZM42.1758 163H41.0156V144.766H42.1758V163ZM54.1875 163L53.8945 160.984H53.8008C53.1602 161.805 52.5 162.387 51.8203 162.73C51.1484 163.066 50.3516 163.234 49.4297 163.234C48.1797 163.234 47.207 162.914 46.5117 162.273C45.8164 161.633 45.4688 160.746 45.4688 159.613C45.4688 158.371 45.9844 157.406 47.0156 156.719C48.0547 156.031 49.5547 155.668 51.5156 155.629L53.9414 155.559V154.715C53.9414 153.504 53.6953 152.59 53.2031 151.973C52.7109 151.355 51.918 151.047 50.8242 151.047C49.6445 151.047 48.4219 151.375 47.1562 152.031L46.7227 151.023C48.1211 150.367 49.5039 150.039 50.8711 150.039C52.2695 150.039 53.3125 150.402 54 151.129C54.6953 151.855 55.043 152.988 55.043 154.527V163H54.1875ZM49.5 162.18C50.8594 162.18 51.9297 161.793 52.7109 161.02C53.5 160.238 53.8945 159.156 53.8945 157.773V156.52L51.668 156.613C49.8789 156.699 48.6016 156.98 47.8359 157.457C47.0781 157.926 46.6992 158.66 46.6992 159.66C46.6992 160.457 46.9414 161.078 47.4258 161.523C47.918 161.961 48.6094 162.18 49.5 162.18ZM64.1953 150.016C64.7344 150.016 65.3125 150.07 65.9297 150.18L65.707 151.293C65.1758 151.16 64.625 151.094 64.0547 151.094C62.9688 151.094 62.0781 151.555 61.3828 152.477C60.6875 153.398 60.3398 154.562 60.3398 155.969V163H59.1797V150.262H60.1641L60.2812 152.559H60.3633C60.8867 151.621 61.4453 150.965 62.0391 150.59C62.6328 150.207 63.3516 150.016 64.1953 150.016ZM76.2656 163L75.9727 160.984H75.8789C75.2383 161.805 74.5781 162.387 73.8984 162.73C73.2266 163.066 72.4297 163.234 71.5078 163.234C70.2578 163.234 69.2852 162.914 68.5898 162.273C67.8945 161.633 67.5469 160.746 67.5469 159.613C67.5469 158.371 68.0625 157.406 69.0938 156.719C70.1328 156.031 71.6328 155.668 73.5938 155.629L76.0195 155.559V154.715C76.0195 153.504 75.7734 152.59 75.2812 151.973C74.7891 151.355 73.9961 151.047 72.9023 151.047C71.7227 151.047 70.5 151.375 69.2344 152.031L68.8008 151.023C70.1992 150.367 71.582 150.039 72.9492 150.039C74.3477 150.039 75.3906 150.402 76.0781 151.129C76.7734 151.855 77.1211 152.988 77.1211 154.527V163H76.2656ZM71.5781 162.18C72.9375 162.18 74.0078 161.793 74.7891 161.02C75.5781 160.238 75.9727 159.156 75.9727 157.773V156.52L73.7461 156.613C71.957 156.699 70.6797 156.98 69.9141 157.457C69.1562 157.926 68.7773 158.66 68.7773 159.66C68.7773 160.457 69.0195 161.078 69.5039 161.523C69.9961 161.961 70.6875 162.18 71.5781 162.18ZM86.3438 163.234C84.5234 163.234 83.0977 162.66 82.0664 161.512C81.0352 160.363 80.5195 158.762 80.5195 156.707C80.5195 154.598 81.0547 152.957 82.125 151.785C83.1953 150.605 84.6602 150.016 86.5195 150.016C87.6211 150.016 88.6758 150.207 89.6836 150.59L89.3672 151.621C88.2656 151.254 87.3086 151.07 86.4961 151.07C84.9336 151.07 83.75 151.555 82.9453 152.523C82.1406 153.484 81.7383 154.871 81.7383 156.684C81.7383 158.402 82.1406 159.75 82.9453 160.727C83.75 161.695 84.875 162.18 86.3203 162.18C87.4766 162.18 88.5508 161.973 89.543 161.559V162.637C88.7305 163.035 87.6641 163.234 86.3438 163.234ZM87.5977 166.41C87.5977 167.191 87.332 167.777 86.8008 168.168C86.2773 168.566 85.543 168.766 84.5977 168.766C84.0664 168.766 83.6992 168.723 83.4961 168.637V167.605C83.7305 167.684 84.0898 167.723 84.5742 167.723C85.1836 167.723 85.6484 167.613 85.9688 167.395C86.2891 167.176 86.4492 166.863 86.4492 166.457C86.4492 165.723 85.6953 165.25 84.1875 165.039L85.2773 163H86.4023L85.6289 164.371C86.9414 164.66 87.5977 165.34 87.5977 166.41ZM100.406 163L100.113 160.984H100.02C99.3789 161.805 98.7188 162.387 98.0391 162.73C97.3672 163.066 96.5703 163.234 95.6484 163.234C94.3984 163.234 93.4258 162.914 92.7305 162.273C92.0352 161.633 91.6875 160.746 91.6875 159.613C91.6875 158.371 92.2031 157.406 93.2344 156.719C94.2734 156.031 95.7734 155.668 97.7344 155.629L100.16 155.559V154.715C100.16 153.504 99.9141 152.59 99.4219 151.973C98.9297 151.355 98.1367 151.047 97.043 151.047C95.8633 151.047 94.6406 151.375 93.375 152.031L92.9414 151.023C94.3398 150.367 95.7227 150.039 97.0898 150.039C98.4883 150.039 99.5312 150.402 100.219 151.129C100.914 151.855 101.262 152.988 101.262 154.527V163H100.406ZM95.7188 162.18C97.0781 162.18 98.1484 161.793 98.9297 161.02C99.7188 160.238 100.113 159.156 100.113 157.773V156.52L97.8867 156.613C96.0977 156.699 94.8203 156.98 94.0547 157.457C93.2969 157.926 92.918 158.66 92.918 159.66C92.918 160.457 93.1602 161.078 93.6445 161.523C94.1367 161.961 94.8281 162.18 95.7188 162.18ZM98.707 148.434C98.4258 148.434 98.1328 148.363 97.8281 148.223C97.5234 148.074 97.1289 147.793 96.6445 147.379C96.3945 147.176 96.1484 146.996 95.9062 146.84C95.6719 146.684 95.4297 146.605 95.1797 146.605C94.8281 146.605 94.5352 146.742 94.3008 147.016C94.0664 147.281 93.8789 147.754 93.7383 148.434H92.8828C92.9609 147.566 93.207 146.887 93.6211 146.395C94.0352 145.895 94.5703 145.645 95.2266 145.645C95.6016 145.645 95.9453 145.742 96.2578 145.938C96.5703 146.133 96.8906 146.363 97.2188 146.629C97.4844 146.848 97.7422 147.043 97.9922 147.215C98.2422 147.387 98.4805 147.473 98.707 147.473C99.0664 147.473 99.3672 147.332 99.6094 147.051C99.8516 146.762 100.039 146.293 100.172 145.645H101.062C100.938 146.551 100.668 147.242 100.254 147.719C99.8398 148.195 99.3242 148.434 98.707 148.434ZM115.934 156.613C115.934 158.691 115.43 160.316 114.422 161.488C113.414 162.652 112.023 163.234 110.25 163.234C109.133 163.234 108.148 162.965 107.297 162.426C106.445 161.887 105.793 161.113 105.34 160.105C104.887 159.098 104.66 157.934 104.66 156.613C104.66 154.535 105.164 152.918 106.172 151.762C107.18 150.598 108.562 150.016 110.32 150.016C112.07 150.016 113.441 150.605 114.434 151.785C115.434 152.957 115.934 154.566 115.934 156.613ZM105.879 156.613C105.879 158.363 106.262 159.73 107.027 160.715C107.801 161.691 108.891 162.18 110.297 162.18C111.703 162.18 112.789 161.691 113.555 160.715C114.328 159.73 114.715 158.363 114.715 156.613C114.715 154.855 114.324 153.492 113.543 152.523C112.77 151.555 111.68 151.07 110.273 151.07C108.867 151.07 107.781 151.555 107.016 152.523C106.258 153.484 105.879 154.848 105.879 156.613ZM130.359 150.016C131.281 150.016 132.078 150.184 132.75 150.52C133.422 150.855 134.023 151.43 134.555 152.242H134.625C134.578 151.258 134.555 150.293 134.555 149.348V144.766H135.703V163H134.941L134.648 161.055H134.555C133.586 162.508 132.195 163.234 130.383 163.234C128.625 163.234 127.281 162.688 126.352 161.594C125.422 160.5 124.957 158.906 124.957 156.812C124.957 154.609 125.418 152.926 126.34 151.762C127.262 150.598 128.602 150.016 130.359 150.016ZM130.359 151.07C128.969 151.07 127.922 151.559 127.219 152.535C126.523 153.512 126.176 154.93 126.176 156.789C126.176 160.398 127.578 162.203 130.383 162.203C131.82 162.203 132.875 161.785 133.547 160.949C134.219 160.113 134.555 158.734 134.555 156.812V156.613C134.555 154.645 134.223 153.23 133.559 152.371C132.902 151.504 131.836 151.07 130.359 151.07ZM150.527 156.613C150.527 158.691 150.023 160.316 149.016 161.488C148.008 162.652 146.617 163.234 144.844 163.234C143.727 163.234 142.742 162.965 141.891 162.426C141.039 161.887 140.387 161.113 139.934 160.105C139.48 159.098 139.254 157.934 139.254 156.613C139.254 154.535 139.758 152.918 140.766 151.762C141.773 150.598 143.156 150.016 144.914 150.016C146.664 150.016 148.035 150.605 149.027 151.785C150.027 152.957 150.527 154.566 150.527 156.613ZM140.473 156.613C140.473 158.363 140.855 159.73 141.621 160.715C142.395 161.691 143.484 162.18 144.891 162.18C146.297 162.18 147.383 161.691 148.148 160.715C148.922 159.73 149.309 158.363 149.309 156.613C149.309 154.855 148.918 153.492 148.137 152.523C147.363 151.555 146.273 151.07 144.867 151.07C143.461 151.07 142.375 151.555 141.609 152.523C140.852 153.484 140.473 154.848 140.473 156.613ZM160.582 163V145.867H161.777V163H160.582ZM182.25 163V154.645C182.25 153.402 182.008 152.496 181.523 151.926C181.039 151.355 180.297 151.07 179.297 151.07C177.992 151.07 177.027 151.43 176.402 152.148C175.777 152.867 175.465 153.996 175.465 155.535V163H174.281V154.293C174.281 152.145 173.297 151.07 171.328 151.07C169.992 151.07 169.02 151.461 168.41 152.242C167.801 153.016 167.496 154.258 167.496 155.969V163H166.336V150.262H167.297L167.543 152.008H167.613C167.965 151.375 168.465 150.887 169.113 150.543C169.762 150.191 170.477 150.016 171.258 150.016C173.266 150.016 174.555 150.77 175.125 152.277H175.172C175.586 151.551 176.141 150.992 176.836 150.602C177.539 150.211 178.336 150.016 179.227 150.016C180.617 150.016 181.66 150.387 182.355 151.129C183.051 151.871 183.398 153.051 183.398 154.668V163H182.25ZM192.973 163.234C191.012 163.234 189.582 162.5 188.684 161.031H188.602L188.637 162.016C188.668 162.594 188.684 163.227 188.684 163.914V168.766H187.523V150.262H188.508L188.73 152.078H188.801C189.676 150.703 191.074 150.016 192.996 150.016C194.715 150.016 196.023 150.582 196.922 151.715C197.828 152.84 198.281 154.48 198.281 156.637C198.281 158.73 197.805 160.355 196.852 161.512C195.906 162.66 194.613 163.234 192.973 163.234ZM192.949 162.203C194.254 162.203 195.262 161.719 195.973 160.75C196.691 159.781 197.051 158.426 197.051 156.684C197.051 152.941 195.699 151.07 192.996 151.07C191.512 151.07 190.422 151.48 189.727 152.301C189.031 153.113 188.684 154.441 188.684 156.285V156.66C188.684 158.652 189.016 160.074 189.68 160.926C190.352 161.777 191.441 162.203 192.949 162.203ZM212.355 156.613C212.355 158.691 211.852 160.316 210.844 161.488C209.836 162.652 208.445 163.234 206.672 163.234C205.555 163.234 204.57 162.965 203.719 162.426C202.867 161.887 202.215 161.113 201.762 160.105C201.309 159.098 201.082 157.934 201.082 156.613C201.082 154.535 201.586 152.918 202.594 151.762C203.602 150.598 204.984 150.016 206.742 150.016C208.492 150.016 209.863 150.605 210.855 151.785C211.855 152.957 212.355 154.566 212.355 156.613ZM202.301 156.613C202.301 158.363 202.684 159.73 203.449 160.715C204.223 161.691 205.312 162.18 206.719 162.18C208.125 162.18 209.211 161.691 209.977 160.715C210.75 159.73 211.137 158.363 211.137 156.613C211.137 154.855 210.746 153.492 209.965 152.523C209.191 151.555 208.102 151.07 206.695 151.07C205.289 151.07 204.203 151.555 203.438 152.523C202.68 153.484 202.301 154.848 202.301 156.613ZM223.781 159.684C223.781 160.824 223.348 161.703 222.48 162.32C221.613 162.93 220.383 163.234 218.789 163.234C217.086 163.234 215.734 162.973 214.734 162.449V161.195C216.016 161.836 217.367 162.156 218.789 162.156C220.047 162.156 221 161.949 221.648 161.535C222.305 161.113 222.633 160.555 222.633 159.859C222.633 159.219 222.371 158.68 221.848 158.242C221.332 157.805 220.48 157.375 219.293 156.953C218.02 156.492 217.125 156.098 216.609 155.77C216.094 155.434 215.703 155.059 215.438 154.645C215.18 154.223 215.051 153.711 215.051 153.109C215.051 152.156 215.449 151.402 216.246 150.848C217.051 150.293 218.172 150.016 219.609 150.016C220.984 150.016 222.289 150.273 223.523 150.789L223.09 151.844C221.84 151.328 220.68 151.07 219.609 151.07C218.57 151.07 217.746 151.242 217.137 151.586C216.527 151.93 216.223 152.406 216.223 153.016C216.223 153.68 216.457 154.211 216.926 154.609C217.402 155.008 218.328 155.453 219.703 155.945C220.852 156.359 221.688 156.734 222.211 157.07C222.734 157.398 223.125 157.773 223.383 158.195C223.648 158.617 223.781 159.113 223.781 159.684ZM230.426 162.203C231.16 162.203 231.801 162.141 232.348 162.016V162.953C231.785 163.141 231.137 163.234 230.402 163.234C229.277 163.234 228.445 162.934 227.906 162.332C227.375 161.73 227.109 160.785 227.109 159.496V151.27H225.223V150.59L227.109 150.062L227.695 147.18H228.293V150.262H232.031V151.27H228.293V159.332C228.293 160.309 228.465 161.031 228.809 161.5C229.152 161.969 229.691 162.203 230.426 162.203ZM245.637 156.613C245.637 158.691 245.133 160.316 244.125 161.488C243.117 162.652 241.727 163.234 239.953 163.234C238.836 163.234 237.852 162.965 237 162.426C236.148 161.887 235.496 161.113 235.043 160.105C234.59 159.098 234.363 157.934 234.363 156.613C234.363 154.535 234.867 152.918 235.875 151.762C236.883 150.598 238.266 150.016 240.023 150.016C241.773 150.016 243.145 150.605 244.137 151.785C245.137 152.957 245.637 154.566 245.637 156.613ZM235.582 156.613C235.582 158.363 235.965 159.73 236.73 160.715C237.504 161.691 238.594 162.18 240 162.18C241.406 162.18 242.492 161.691 243.258 160.715C244.031 159.73 244.418 158.363 244.418 156.613C244.418 154.855 244.027 153.492 243.246 152.523C242.473 151.555 241.383 151.07 239.977 151.07C238.57 151.07 237.484 151.555 236.719 152.523C235.961 153.484 235.582 154.848 235.582 156.613ZM260.062 150.016C260.984 150.016 261.781 150.184 262.453 150.52C263.125 150.855 263.727 151.43 264.258 152.242H264.328C264.281 151.258 264.258 150.293 264.258 149.348V144.766H265.406V163H264.645L264.352 161.055H264.258C263.289 162.508 261.898 163.234 260.086 163.234C258.328 163.234 256.984 162.688 256.055 161.594C255.125 160.5 254.66 158.906 254.66 156.812C254.66 154.609 255.121 152.926 256.043 151.762C256.965 150.598 258.305 150.016 260.062 150.016ZM260.062 151.07C258.672 151.07 257.625 151.559 256.922 152.535C256.227 153.512 255.879 154.93 255.879 156.789C255.879 160.398 257.281 162.203 260.086 162.203C261.523 162.203 262.578 161.785 263.25 160.949C263.922 160.113 264.258 158.734 264.258 156.812V156.613C264.258 154.645 263.926 153.23 263.262 152.371C262.605 151.504 261.539 151.07 260.062 151.07ZM274.84 163.234C272.988 163.234 271.543 162.664 270.504 161.523C269.473 160.383 268.957 158.785 268.957 156.73C268.957 154.699 269.457 153.074 270.457 151.855C271.457 150.629 272.805 150.016 274.5 150.016C276 150.016 277.184 150.539 278.051 151.586C278.918 152.633 279.352 154.055 279.352 155.852V156.789H270.176C270.191 158.539 270.598 159.875 271.395 160.797C272.199 161.719 273.348 162.18 274.84 162.18C275.566 162.18 276.203 162.129 276.75 162.027C277.305 161.926 278.004 161.707 278.848 161.371V162.426C278.129 162.738 277.465 162.949 276.855 163.059C276.246 163.176 275.574 163.234 274.84 163.234ZM274.5 151.047C273.273 151.047 272.289 151.453 271.547 152.266C270.805 153.07 270.371 154.234 270.246 155.758H278.121C278.121 154.281 277.801 153.129 277.16 152.301C276.52 151.465 275.633 151.047 274.5 151.047ZM290.59 155.535V163H289.395V145.867H293.473C295.598 145.867 297.168 146.262 298.184 147.051C299.199 147.832 299.707 149.012 299.707 150.59C299.707 151.738 299.402 152.707 298.793 153.496C298.191 154.285 297.273 154.852 296.039 155.195L300.691 163H299.262L294.844 155.535H290.59ZM290.59 154.504H293.859C295.305 154.504 296.426 154.184 297.223 153.543C298.02 152.895 298.418 151.941 298.418 150.684C298.418 149.379 298.027 148.43 297.246 147.836C296.465 147.242 295.191 146.945 293.426 146.945H290.59V154.504ZM308.52 163.234C306.668 163.234 305.223 162.664 304.184 161.523C303.152 160.383 302.637 158.785 302.637 156.73C302.637 154.699 303.137 153.074 304.137 151.855C305.137 150.629 306.484 150.016 308.18 150.016C309.68 150.016 310.863 150.539 311.73 151.586C312.598 152.633 313.031 154.055 313.031 155.852V156.789H303.855C303.871 158.539 304.277 159.875 305.074 160.797C305.879 161.719 307.027 162.18 308.52 162.18C309.246 162.18 309.883 162.129 310.43 162.027C310.984 161.926 311.684 161.707 312.527 161.371V162.426C311.809 162.738 311.145 162.949 310.535 163.059C309.926 163.176 309.254 163.234 308.52 163.234ZM308.18 151.047C306.953 151.047 305.969 151.453 305.227 152.266C304.484 153.07 304.051 154.234 303.926 155.758H311.801C311.801 154.281 311.48 153.129 310.84 152.301C310.199 151.465 309.312 151.047 308.18 151.047ZM325.43 163V154.738C325.43 153.457 325.16 152.527 324.621 151.949C324.082 151.363 323.246 151.07 322.113 151.07C320.59 151.07 319.473 151.457 318.762 152.23C318.059 152.996 317.707 154.242 317.707 155.969V163H316.547V150.262H317.531L317.754 152.008H317.824C318.652 150.68 320.125 150.016 322.242 150.016C325.133 150.016 326.578 151.566 326.578 154.668V163H325.43ZM335.367 150.016C336.289 150.016 337.086 150.184 337.758 150.52C338.43 150.855 339.031 151.43 339.562 152.242H339.633C339.586 151.258 339.562 150.293 339.562 149.348V144.766H340.711V163H339.949L339.656 161.055H339.562C338.594 162.508 337.203 163.234 335.391 163.234C333.633 163.234 332.289 162.688 331.359 161.594C330.43 160.5 329.965 158.906 329.965 156.812C329.965 154.609 330.426 152.926 331.348 151.762C332.27 150.598 333.609 150.016 335.367 150.016ZM335.367 151.07C333.977 151.07 332.93 151.559 332.227 152.535C331.531 153.512 331.184 154.93 331.184 156.789C331.184 160.398 332.586 162.203 335.391 162.203C336.828 162.203 337.883 161.785 338.555 160.949C339.227 160.113 339.562 158.734 339.562 156.812V156.613C339.562 154.645 339.23 153.23 338.566 152.371C337.91 151.504 336.844 151.07 335.367 151.07ZM352.734 163L352.441 160.984H352.348C351.707 161.805 351.047 162.387 350.367 162.73C349.695 163.066 348.898 163.234 347.977 163.234C346.727 163.234 345.754 162.914 345.059 162.273C344.363 161.633 344.016 160.746 344.016 159.613C344.016 158.371 344.531 157.406 345.562 156.719C346.602 156.031 348.102 155.668 350.062 155.629L352.488 155.559V154.715C352.488 153.504 352.242 152.59 351.75 151.973C351.258 151.355 350.465 151.047 349.371 151.047C348.191 151.047 346.969 151.375 345.703 152.031L345.27 151.023C346.668 150.367 348.051 150.039 349.418 150.039C350.816 150.039 351.859 150.402 352.547 151.129C353.242 151.855 353.59 152.988 353.59 154.527V163H352.734ZM348.047 162.18C349.406 162.18 350.477 161.793 351.258 161.02C352.047 160.238 352.441 159.156 352.441 157.773V156.52L350.215 156.613C348.426 156.699 347.148 156.98 346.383 157.457C345.625 157.926 345.246 158.66 345.246 159.66C345.246 160.457 345.488 161.078 345.973 161.523C346.465 161.961 347.156 162.18 348.047 162.18Z" fill="black"/>
<path d="M3.4 36C3.10667 36 2.96 35.84 2.96 35.52V10.28C2.96 9.96 3.10667 9.8 3.4 9.8H10.84C14.3067 9.8 16.8533 10.5333 18.48 12C20.1333 13.44 20.96 15.56 20.96 18.36C20.96 21.1067 20.12 23.2133 18.44 24.68C16.76 26.12 14.24 26.84 10.88 26.84H7.76V35.52C7.76 35.84 7.6 36 7.28 36H3.4ZM7.76 22.76H10.8C12.6133 22.76 13.96 22.4133 14.84 21.72C15.72 21.0267 16.16 19.92 16.16 18.4C16.16 16.8 15.72 15.6533 14.84 14.96C13.96 14.2667 12.6 13.92 10.76 13.92H7.76V22.76ZM35.9559 36C35.7959 36 35.6759 35.96 35.5959 35.88C35.5426 35.7733 35.4893 35.64 35.4359 35.48C35.3826 35.2133 35.3159 34.76 35.2359 34.12C35.1559 33.4533 35.0893 32.84 35.0359 32.28L34.7559 30.64V22.64C34.7559 21.52 34.5293 20.7333 34.0759 20.28C33.6226 19.8 32.8359 19.56 31.7159 19.56C29.6893 19.56 28.7026 20.2933 28.7559 21.76C28.7559 22.08 28.6093 22.24 28.3159 22.24H24.7159C24.3959 22.24 24.2226 22 24.1959 21.52C24.0359 19.7333 24.6359 18.3467 25.9959 17.36C27.3826 16.3467 29.3559 15.84 31.9159 15.84C34.5293 15.84 36.4359 16.4 37.6359 17.52C38.8626 18.64 39.4759 20.3733 39.4759 22.72V31.04C39.4759 31.8933 39.4893 32.6933 39.5159 33.44C39.5693 34.1867 39.6359 34.8667 39.7159 35.48C39.7693 35.8267 39.6226 36 39.2759 36H35.9559ZM28.3159 36.48C26.7159 36.48 25.4893 36 24.6359 35.04C23.7826 34.08 23.3559 32.7067 23.3559 30.92C23.3559 29.5333 23.6226 28.4133 24.1559 27.56C24.6893 26.68 25.5559 26 26.7559 25.52C27.9826 25.0133 29.6093 24.68 31.6359 24.52L35.3559 24.2V27.08L32.0359 27.36C30.4893 27.4933 29.4226 27.7867 28.8359 28.24C28.2493 28.6933 27.9559 29.4267 27.9559 30.44C27.9559 31.2133 28.1159 31.8 28.4359 32.2C28.7559 32.5733 29.2493 32.76 29.9159 32.76C30.7159 32.76 31.5293 32.5067 32.3559 32C33.1826 31.4667 34.2226 30.5333 35.4759 29.2L35.6359 32.4C34.8359 33.28 34.0493 34.0267 33.2759 34.64C32.5026 35.2533 31.7159 35.7067 30.9159 36C30.1159 36.32 29.2493 36.48 28.3159 36.48ZM51.3922 36.48C48.7522 36.48 46.8055 35.96 45.5522 34.92C44.3255 33.88 43.7522 32.2667 43.8322 30.08C43.8322 29.7867 43.9922 29.64 44.3122 29.64H47.9122C48.1789 29.64 48.3122 29.7867 48.3122 30.08C48.3122 31.04 48.5655 31.7467 49.0722 32.2C49.5789 32.6533 50.3522 32.88 51.3922 32.88C52.4855 32.88 53.2989 32.7067 53.8322 32.36C54.3655 32.0133 54.6322 31.48 54.6322 30.76C54.6322 30.2533 54.4589 29.8267 54.1122 29.48C53.7655 29.1067 53.2055 28.76 52.4322 28.44L47.8722 26.52C46.4855 25.9333 45.4855 25.24 44.8722 24.44C44.2855 23.64 43.9922 22.6 43.9922 21.32C43.9922 19.5067 44.5789 18.1467 45.7522 17.24C46.9522 16.3067 48.7922 15.84 51.2722 15.84C53.8055 15.84 55.7122 16.32 56.9922 17.28C58.2722 18.24 58.9122 19.64 58.9122 21.48C58.9122 21.7733 58.7522 21.92 58.4322 21.92H54.8322C54.6989 21.92 54.5789 21.88 54.4722 21.8C54.3922 21.6933 54.3522 21.52 54.3522 21.28C54.3522 20.6933 54.0989 20.24 53.5922 19.92C53.0855 19.5733 52.3789 19.4 51.4722 19.4C50.5389 19.4 49.8455 19.56 49.3922 19.88C48.9389 20.2 48.7122 20.68 48.7122 21.32C48.7122 21.8 48.8455 22.1733 49.1122 22.44C49.4055 22.7067 49.9655 23.0133 50.7922 23.36L55.3522 25.28C56.7655 25.8667 57.7789 26.5733 58.3922 27.4C59.0322 28.2 59.3522 29.2533 59.3522 30.56C59.3522 32.5067 58.6722 33.9867 57.3122 35C55.9522 35.9867 53.9789 36.48 51.3922 36.48ZM69.7516 36.48C67.1116 36.48 65.1649 35.96 63.9116 34.92C62.6849 33.88 62.1116 32.2667 62.1916 30.08C62.1916 29.7867 62.3516 29.64 62.6716 29.64H66.2716C66.5382 29.64 66.6716 29.7867 66.6716 30.08C66.6716 31.04 66.9249 31.7467 67.4316 32.2C67.9382 32.6533 68.7116 32.88 69.7516 32.88C70.8449 32.88 71.6582 32.7067 72.1916 32.36C72.7249 32.0133 72.9916 31.48 72.9916 30.76C72.9916 30.2533 72.8182 29.8267 72.4716 29.48C72.1249 29.1067 71.5649 28.76 70.7916 28.44L66.2316 26.52C64.8449 25.9333 63.8449 25.24 63.2316 24.44C62.6449 23.64 62.3516 22.6 62.3516 21.32C62.3516 19.5067 62.9382 18.1467 64.1116 17.24C65.3116 16.3067 67.1516 15.84 69.6316 15.84C72.1649 15.84 74.0716 16.32 75.3516 17.28C76.6316 18.24 77.2716 19.64 77.2716 21.48C77.2716 21.7733 77.1116 21.92 76.7916 21.92H73.1916C73.0582 21.92 72.9382 21.88 72.8316 21.8C72.7516 21.6933 72.7116 21.52 72.7116 21.28C72.7116 20.6933 72.4582 20.24 71.9516 19.92C71.4449 19.5733 70.7382 19.4 69.8316 19.4C68.8982 19.4 68.2049 19.56 67.7516 19.88C67.2982 20.2 67.0716 20.68 67.0716 21.32C67.0716 21.8 67.2049 22.1733 67.4716 22.44C67.7649 22.7067 68.3249 23.0133 69.1516 23.36L73.7116 25.28C75.1249 25.8667 76.1382 26.5733 76.7516 27.4C77.3916 28.2 77.7116 29.2533 77.7116 30.56C77.7116 32.5067 77.0316 33.9867 75.6716 35C74.3116 35.9867 72.3382 36.48 69.7516 36.48ZM90.0597 36.48C87.233 36.48 85.0464 35.8133 83.4997 34.48C81.9797 33.12 81.2197 31.0667 81.2197 28.32V24C81.2197 21.28 81.9797 19.24 83.4997 17.88C85.0197 16.52 87.2064 15.84 90.0597 15.84C92.8864 15.84 95.0597 16.52 96.5797 17.88C98.0997 19.24 98.8597 21.28 98.8597 24V28.32C98.8597 31.0667 98.0997 33.12 96.5797 34.48C95.0864 35.8133 92.913 36.48 90.0597 36.48ZM90.0597 32.44C91.4997 32.44 92.5397 32.08 93.1797 31.36C93.8197 30.6133 94.1397 29.4533 94.1397 27.88V24.44C94.1397 22.8667 93.8197 21.72 93.1797 21C92.5397 20.2533 91.4997 19.88 90.0597 19.88C88.6197 19.88 87.5664 20.2533 86.8997 21C86.2597 21.72 85.9397 22.8667 85.9397 24.44V27.88C85.9397 29.4533 86.2597 30.6133 86.8997 31.36C87.5664 32.08 88.6197 32.44 90.0597 32.44ZM123.183 36C123.023 36 122.903 35.96 122.823 35.88C122.769 35.7733 122.716 35.64 122.663 35.48C122.609 35.2133 122.543 34.76 122.463 34.12C122.383 33.4533 122.316 32.84 122.263 32.28L121.983 30.64V22.64C121.983 21.52 121.756 20.7333 121.303 20.28C120.849 19.8 120.063 19.56 118.943 19.56C116.916 19.56 115.929 20.2933 115.983 21.76C115.983 22.08 115.836 22.24 115.543 22.24H111.943C111.623 22.24 111.449 22 111.423 21.52C111.263 19.7333 111.863 18.3467 113.223 17.36C114.609 16.3467 116.583 15.84 119.143 15.84C121.756 15.84 123.663 16.4 124.863 17.52C126.089 18.64 126.703 20.3733 126.703 22.72V31.04C126.703 31.8933 126.716 32.6933 126.743 33.44C126.796 34.1867 126.863 34.8667 126.943 35.48C126.996 35.8267 126.849 36 126.503 36H123.183ZM115.543 36.48C113.943 36.48 112.716 36 111.863 35.04C111.009 34.08 110.583 32.7067 110.583 30.92C110.583 29.5333 110.849 28.4133 111.383 27.56C111.916 26.68 112.783 26 113.983 25.52C115.209 25.0133 116.836 24.68 118.863 24.52L122.583 24.2V27.08L119.263 27.36C117.716 27.4933 116.649 27.7867 116.063 28.24C115.476 28.6933 115.183 29.4267 115.183 30.44C115.183 31.2133 115.343 31.8 115.663 32.2C115.983 32.5733 116.476 32.76 117.143 32.76C117.943 32.76 118.756 32.5067 119.583 32C120.409 31.4667 121.449 30.5333 122.703 29.2L122.863 32.4C122.063 33.28 121.276 34.0267 120.503 34.64C119.729 35.2533 118.943 35.7067 118.143 36C117.343 36.32 116.476 36.48 115.543 36.48ZM149.744 36.48C148.81 36.48 147.797 36.3467 146.704 36.08C145.637 35.84 144.744 35.5067 144.024 35.08L143.944 31.32C144.637 31.72 145.384 32.0267 146.184 32.24C146.984 32.4267 147.73 32.52 148.424 32.52C149.704 32.52 150.637 32.1333 151.224 31.36C151.81 30.5867 152.104 29.4533 152.104 27.96V23.72C152.104 22.4133 151.877 21.4533 151.424 20.84C150.97 20.2267 150.264 19.92 149.304 19.92C148.477 19.92 147.637 20.1733 146.784 20.68C145.93 21.1867 144.917 21.9733 143.744 23.04L143.544 19.52C144.317 18.7733 145.09 18.1333 145.864 17.6C146.637 17.04 147.437 16.6133 148.264 16.32C149.09 16 149.984 15.84 150.944 15.84C152.89 15.84 154.357 16.4267 155.344 17.6C156.33 18.7467 156.824 20.52 156.824 22.92V28.4C156.824 31.12 156.21 33.1467 154.984 34.48C153.784 35.8133 152.037 36.48 149.744 36.48ZM140.344 43.4C140.05 43.4 139.904 43.24 139.904 42.92V21.08C139.904 20.3867 139.877 19.6667 139.824 18.92C139.77 18.1733 139.704 17.48 139.624 16.84C139.597 16.4933 139.757 16.32 140.104 16.32H143.464C143.757 16.32 143.93 16.4667 143.984 16.76C144.037 16.9733 144.09 17.2533 144.144 17.6C144.197 17.92 144.237 18.2533 144.264 18.6C144.29 18.9467 144.304 19.2267 144.304 19.44L144.624 21.68V42.92C144.624 43.24 144.464 43.4 144.144 43.4H140.344ZM173.065 36C172.905 36 172.785 35.96 172.705 35.88C172.652 35.7733 172.599 35.64 172.545 35.48C172.492 35.2133 172.425 34.76 172.345 34.12C172.265 33.4533 172.199 32.84 172.145 32.28L171.865 30.64V22.64C171.865 21.52 171.639 20.7333 171.185 20.28C170.732 19.8 169.945 19.56 168.825 19.56C166.799 19.56 165.812 20.2933 165.865 21.76C165.865 22.08 165.719 22.24 165.425 22.24H161.825C161.505 22.24 161.332 22 161.305 21.52C161.145 19.7333 161.745 18.3467 163.105 17.36C164.492 16.3467 166.465 15.84 169.025 15.84C171.639 15.84 173.545 16.4 174.745 17.52C175.972 18.64 176.585 20.3733 176.585 22.72V31.04C176.585 31.8933 176.599 32.6933 176.625 33.44C176.679 34.1867 176.745 34.8667 176.825 35.48C176.879 35.8267 176.732 36 176.385 36H173.065ZM165.425 36.48C163.825 36.48 162.599 36 161.745 35.04C160.892 34.08 160.465 32.7067 160.465 30.92C160.465 29.5333 160.732 28.4133 161.265 27.56C161.799 26.68 162.665 26 163.865 25.52C165.092 25.0133 166.719 24.68 168.745 24.52L172.465 24.2V27.08L169.145 27.36C167.599 27.4933 166.532 27.7867 165.945 28.24C165.359 28.6933 165.065 29.4267 165.065 30.44C165.065 31.2133 165.225 31.8 165.545 32.2C165.865 32.5733 166.359 32.76 167.025 32.76C167.825 32.76 168.639 32.5067 169.465 32C170.292 31.4667 171.332 30.5333 172.585 29.2L172.745 32.4C171.945 33.28 171.159 34.0267 170.385 34.64C169.612 35.2533 168.825 35.7067 168.025 36C167.225 36.32 166.359 36.48 165.425 36.48ZM188.502 36.48C185.862 36.48 183.915 35.96 182.662 34.92C181.435 33.88 180.862 32.2667 180.942 30.08C180.942 29.7867 181.102 29.64 181.422 29.64H185.022C185.288 29.64 185.422 29.7867 185.422 30.08C185.422 31.04 185.675 31.7467 186.182 32.2C186.688 32.6533 187.462 32.88 188.502 32.88C189.595 32.88 190.408 32.7067 190.942 32.36C191.475 32.0133 191.742 31.48 191.742 30.76C191.742 30.2533 191.568 29.8267 191.222 29.48C190.875 29.1067 190.315 28.76 189.542 28.44L184.982 26.52C183.595 25.9333 182.595 25.24 181.982 24.44C181.395 23.64 181.102 22.6 181.102 21.32C181.102 19.5067 181.688 18.1467 182.862 17.24C184.062 16.3067 185.902 15.84 188.382 15.84C190.915 15.84 192.822 16.32 194.102 17.28C195.382 18.24 196.022 19.64 196.022 21.48C196.022 21.7733 195.862 21.92 195.542 21.92H191.942C191.808 21.92 191.688 21.88 191.582 21.8C191.502 21.6933 191.462 21.52 191.462 21.28C191.462 20.6933 191.208 20.24 190.702 19.92C190.195 19.5733 189.488 19.4 188.582 19.4C187.648 19.4 186.955 19.56 186.502 19.88C186.048 20.2 185.822 20.68 185.822 21.32C185.822 21.8 185.955 22.1733 186.222 22.44C186.515 22.7067 187.075 23.0133 187.902 23.36L192.462 25.28C193.875 25.8667 194.888 26.5733 195.502 27.4C196.142 28.2 196.462 29.2533 196.462 30.56C196.462 32.5067 195.782 33.9867 194.422 35C193.062 35.9867 191.088 36.48 188.502 36.48ZM206.861 36.48C204.221 36.48 202.274 35.96 201.021 34.92C199.794 33.88 199.221 32.2667 199.301 30.08C199.301 29.7867 199.461 29.64 199.781 29.64H203.381C203.648 29.64 203.781 29.7867 203.781 30.08C203.781 31.04 204.034 31.7467 204.541 32.2C205.048 32.6533 205.821 32.88 206.861 32.88C207.954 32.88 208.768 32.7067 209.301 32.36C209.834 32.0133 210.101 31.48 210.101 30.76C210.101 30.2533 209.928 29.8267 209.581 29.48C209.234 29.1067 208.674 28.76 207.901 28.44L203.341 26.52C201.954 25.9333 200.954 25.24 200.341 24.44C199.754 23.64 199.461 22.6 199.461 21.32C199.461 19.5067 200.048 18.1467 201.221 17.24C202.421 16.3067 204.261 15.84 206.741 15.84C209.274 15.84 211.181 16.32 212.461 17.28C213.741 18.24 214.381 19.64 214.381 21.48C214.381 21.7733 214.221 21.92 213.901 21.92H210.301C210.168 21.92 210.048 21.88 209.941 21.8C209.861 21.6933 209.821 21.52 209.821 21.28C209.821 20.6933 209.568 20.24 209.061 19.92C208.554 19.5733 207.848 19.4 206.941 19.4C206.008 19.4 205.314 19.56 204.861 19.88C204.408 20.2 204.181 20.68 204.181 21.32C204.181 21.8 204.314 22.1733 204.581 22.44C204.874 22.7067 205.434 23.0133 206.261 23.36L210.821 25.28C212.234 25.8667 213.248 26.5733 213.861 27.4C214.501 28.2 214.821 29.2533 214.821 30.56C214.821 32.5067 214.141 33.9867 212.781 35C211.421 35.9867 209.448 36.48 206.861 36.48ZM227.169 36.48C224.342 36.48 222.156 35.8133 220.609 34.48C219.089 33.12 218.329 31.0667 218.329 28.32V24C218.329 21.28 219.089 19.24 220.609 17.88C222.129 16.52 224.316 15.84 227.169 15.84C229.996 15.84 232.169 16.52 233.689 17.88C235.209 19.24 235.969 21.28 235.969 24V28.32C235.969 31.0667 235.209 33.12 233.689 34.48C232.196 35.8133 230.022 36.48 227.169 36.48ZM227.169 32.44C228.609 32.44 229.649 32.08 230.289 31.36C230.929 30.6133 231.249 29.4533 231.249 27.88V24.44C231.249 22.8667 230.929 21.72 230.289 21C229.649 20.2533 228.609 19.88 227.169 19.88C225.729 19.88 224.676 20.2533 224.009 21C223.369 21.72 223.049 22.8667 223.049 24.44V27.88C223.049 29.4533 223.369 30.6133 224.009 31.36C224.676 32.08 225.729 32.44 227.169 32.44Z" fill="#013475"/>
</svg>
